{
copyright = "Copyright 2019 The Bevietnam Project Authors (https://github.com/bettergui/beVietnam)";
designer = "Gabriel Lam";
designerURL = "be.net/bygabriel";
familyName = "Saigon Sans";
customParameters = (
{
name = glyphOrder;
value = (
A,
Aacute,
Abreve,
Abreveacute,
Abrevedotbelow,
Abrevegrave,
Abrevehookabove,
Abrevetilde,
Acircumflex,
Acircumflexacute,
Acircumflexdotbelow,
Acircumflexgrave,
Acircumflexhookabove,
Acircumflextilde,
Adieresis,
Adotbelow,
Agrave,
Ahookabove,
Amacron,
Aogonek,
Aring,
Atilde,
AE,
B,
C,
Cacute,
Ccaron,
Ccedilla,
Cdotaccent,
D,
Eth,
Dcaron,
Dcroat,
E,
Eacute,
Ecaron,
Ecircumflex,
Ecircumflexacute,
Ecircumflexdotbelow,
Ecircumflexgrave,
Ecircumflexhookabove,
Ecircumflextilde,
Edieresis,
Edotaccent,
Edotbelow,
Egrave,
Ehookabove,
Emacron,
Eogonek,
Etilde,
F,
G,
Gbreve,
Gdotaccent,
H,
Hbar,
I,
Iacute,
Icircumflex,
Idieresis,
Idotaccent,
Idotbelow,
Igrave,
Ihookabove,
Imacron,
Iogonek,
Itilde,
J,
K,
L,
Lacute,
Lcaron,
M,
N,
Nacute,
Ncaron,
Ntilde,
O,
Oacute,
Ocircumflex,
Ocircumflexacute,
Ocircumflexdotbelow,
Ocircumflexgrave,
Ocircumflexhookabove,
Ocircumflextilde,
Odieresis,
Odotbelow,
Ograve,
Ohookabove,
Ohorn,
Ohornacute,
Ohorndotbelow,
Ohorngrave,
Ohornhookabove,
Ohorntilde,
Omacron,
Oslash,
Otilde,
OE,
P,
Thorn,
Q,
R,
Racute,
Rcaron,
S,
Sacute,
Scaron,
Scedilla,
T,
Tbar,
Tcaron,
Tcedilla,
U,
Uacute,
Ucircumflex,
Udieresis,
Udotbelow,
Ugrave,
Uhookabove,
Uhorn,
Uhornacute,
Uhorndotbelow,
Uhorngrave,
Uhornhookabove,
Uhorntilde,
Umacron,
Uogonek,
Uring,
Utilde,
V,
W,
Wacute,
Wcircumflex,
Wdieresis,
Wgrave,
X,
Y,
Yacute,
Ycircumflex,
Ydieresis,
Ydotbelow,
Ygrave,
Yhookabove,
Ytilde,
Z,
Zacute,
Zcaron,
Zdotaccent,
B.ss01,
C.ss01,
D.ss01,
Eth.ss01,
Dcaron.ss01,
Dcroat.ss01,
G.ss01,
Gbreve.ss01,
Gdotaccent.ss01,
J.ss01,
O.ss01,
Oacute.ss01,
Ocircumflex.ss01,
Ocircumflexacute.ss01,
Ocircumflexdotbelow.ss01,
Ocircumflexgrave.ss01,
Ocircumflexhookabove.ss01,
Ocircumflextilde.ss01,
Odieresis.ss01,
Odotbelow.ss01,
Ograve.ss01,

glyphs = (
{
glyphname = A;
layers = (
{
anchors = (
{
name = bottom;
position = "{336, 0}";
},
{
name = ogonek;
position = "{649, 51}";
},
{
name = top;
position = "{336, 700}";
}
);
guideLines = (
{
angle = 90;
position = "{336, 0}";
}
);
layerId = "306713D8-4F8C-486F-A8A4-9DD13D5E83DB";
paths = (
{
closed = 1;
nodes = (
"202 0 LINE",
"332 465 LINE",
"340 465 LINE",
"473 0 LINE",
"666 0 LINE",
"428 700 LINE",
"251 700 LINE",
"9 0 LINE"
);
},
{
closed = 1;
nodes = (
"551 141 LINE",
"551 285 LINE",
"123 285 LINE",
"123 141 LINE"
);
}
);
width = 669;
},
{
anchors = (
{
name = bottom;
position = "{341, 0}";
},
{
name = ogonek;
position = "{676, 27}";
},
{
name = top;
position = "{341, 700}";
}
);
guideLines = (
{
angle = 248.69;
position = "{222, 350}";
},
{
angle = 248.69;
position = "{187, 350}";
}
);
layerId = "9DFE6445-7062-4987-A7C3-244173BC9CEA";
paths = (
{
closed = 1;
nodes = (
"85 0 LINE",
"340 653 LINE",
"342 653 LINE",
"601 0 LINE",
"636 0 LINE",
"358 700 LINE",
"323 700 LINE",
"50 0 LINE"
);
},
{
closed = 1;
nodes = (
"510 235 LINE",
"510 267 LINE",
"174 267 LINE",
"174 235 LINE"
);
}
);
width = 686;
}
);
leftKerningGroup = A;
rightKerningGroup = A;
unicode = 0041;
},
{
glyphname = AE;
layers = (
{
guideLines = (
{
position = "{0, 535}";
},
{
angle = 250.93;
position = "{-72, 350}";
},
{
angle = 250.93;
position = "{-265, 350}";
},
{
angle = 246.32;
position = "{352, 350}";
},
{
angle = 246.32;
position = "{144, 350}";
}
);
layerId = "306713D8-4F8C-486F-A8A4-9DD13D5E83DB";
paths = (
{
closed = 1;
nodes = (
"644 0 LINE",
"644 700 LINE",
"452 700 LINE",
"452 0 LINE"
);
},
{
closed = 1;
nodes = (
"891 280 LINE",
"891 427 LINE",
"500 427 LINE",
"500 280 LINE"
);
},
{
closed = 1;
nodes = (
"946 535 LINE",
"946 700 LINE",
"571 700 LINE",
"571 535 LINE"
);
},
{
closed = 1;
nodes = (
"946 0 LINE",
"946 165 LINE",
"571 165 LINE",
"571 0 LINE"
);
},
{
closed = 1;
nodes = (
"208 0 LINE",
"443 535 LINE",
"451 535 LINE",
"451 0 LINE",
"644 0 LINE",
"644 700 LINE",
"313 700 LINE",
"-10 0 LINE"
);
},
{
closed = 1;
nodes = (
"529 141 LINE",
"529 285 LINE",
"139 285 LINE",
"139 141 LINE"
);
}
);
width = 976;
},
{
guideLines = (
{
position = "{0, 666}";
},
{
angle = 68.67;
position = "{-147, 327}";
}
);
layerId = "9DFE6445-7062-4987-A7C3-244173BC9CEA";
paths = (
{
closed = 1;
nodes = (
"501 0 LINE",
"501 700 LINE",
"467 700 LINE",
"467 0 LINE"
);
},
{
closed = 1;
nodes = (
"832 343 LINE",
"832 375 LINE",
"493 375 LINE",
"493 343 LINE"
);
},
{
closed = 1;
nodes = (
"867 666 LINE",
"867 700 LINE",
"483 700 LINE",
"483 666 LINE"
);
},
{
closed = 1;
nodes = (
"867 0 LINE",
"867 34 LINE",
"483 34 LINE",
"483 0 LINE"
);
},
{
closed = 1;
nodes = (
"70 0 LINE",
"458 666 LINE",
"467 666 LINE",
"467 0 LINE",
"501 0 LINE",
"501 700 LINE",
"436 700 LINE",
"35 0 LINE"
);
},
{
closed = 1;
nodes = (
"492 235 LINE",
"492 267 LINE",
"195 267 LINE",
"195 235 LINE"
);
}
);
width = 946;
}
);
unicode = 00C6;
},
{
glyphname = B;
layers = (
{
guideLines = (
{
angle = 90;
position = "{229, 0}";
},
{
angle = 270;
position = "{43, 493}";
}
);
layerId = "306713D8-4F8C-486F-A8A4-9DD13D5E83DB";
paths = (
{
closed = 1;
nodes = (
"377 -1 LINE SMOOTH",
"534 -1 OFFCURVE",
"594 112 OFFCURVE",
"594 205 CURVE SMOOTH",
"594 313 OFFCURVE",
"514 364 OFFCURVE",
"457 373 CURVE",
"457 381 LINE",
"506 396 OFFCURVE",
"549 442 OFFCURVE",
"549 522 CURVE SMOOTH",
"549 626 OFFCURVE",
"476 700 OFFCURVE",
"350 700 CURVE SMOOTH",
"40 700 LINE",
"40 -1 LINE"
);
},
{
closed = 1;
nodes = (
"228 294 LINE",
"335 294 LINE SMOOTH",
"363 294 OFFCURVE",
"415 278 OFFCURVE",
"415 219 CURVE SMOOTH",
"415 157 OFFCURVE",
"361 148 OFFCURVE",
"335 148 CURVE SMOOTH",
"228 148 LINE"
);
},
{
closed = 1;
nodes = (
"228 552 LINE",
"293 552 LINE SMOOTH",
"322 552 OFFCURVE",
"371 542 OFFCURVE",
"371 488 CURVE SMOOTH",
"371 436 OFFCURVE",
"327 426 OFFCURVE",
"293 426 CURVE SMOOTH",
"228 426 LINE"
);
}
);
width = 624;
},
{
guideLines = (
{
position = "{0, 376}";
},
{
position = "{0, 341}";
},
{
angle = 90;
position = "{579, 0}";
},
{
angle = 90;
position = "{543, 0}";
},
{
angle = 270;
position = "{92, 195}";
},
{
angle = 90;
position = "{124, 0}";
},
{
position = "{0, 665}";
}
);
layerId = "9DFE6445-7062-4987-A7C3-244173BC9CEA";
paths = (
{
closed = 1;
nodes = (
"368 0 LINE SMOOTH",
"519 0 OFFCURVE",
"579 105 OFFCURVE",
"579 197 CURVE SMOOTH",
"579 328 OFFCURVE",
"456 359 OFFCURVE",
"425 360 CURVE",
"425 364 LINE",
"463 369 OFFCURVE",
"554 416 OFFCURVE",
"554 522 CURVE SMOOTH",
"554 587 OFFCURVE",
"519 700 OFFCURVE",
"358 700 CURVE SMOOTH",
"92 700 LINE",
"92 0 LINE"
);
},
{
closed = 1;
nodes = (
"124 341 LINE",
"356 341 LINE SMOOTH",
"453 341 OFFCURVE",
"543 309 OFFCURVE",
"543 192 CURVE SMOOTH",
"543 75 OFFCURVE",
"455 35 OFFCURVE",
"356 35 CURVE SMOOTH",
"124 35 LINE"
);
},
{
closed = 1;
nodes = (
"124 665 LINE",
"348 665 LINE SMOOTH",
"442 665 OFFCURVE",
"518 626 OFFCURVE",
"518 527 CURVE SMOOTH",
"518 420 OFFCURVE",
"430 376 OFFCURVE",
"348 376 CURVE SMOOTH",
"124 376 LINE"
);
}
);
width = 624;
}
);
leftKerningGroup = h;
rightKerningGroup = B;
unicode = 0042;
},
{
glyphname = C;
layers = (
{
anchors = (
{
name = bottom;
position = "{366, -10}";
},
{
name = top;
position = "{353, 700}";
}
);
guideLines = (
{
angle = 90;
position = "{227, 0}";
},
{
angle = 90;
position = "{31, -76}";
},
{
position = "{0, 447}";
},
{
position = "{0, 545}";
},
{
angle = 90;
position = "{473, 0}";
},
{
position = "{0, -10}";
}
);
layerId = "306713D8-4F8C-486F-A8A4-9DD13D5E83DB";
paths = (
{
closed = 1;
nodes = (
"531 -10 OFFCURVE",
"631 114 OFFCURVE",
"655 253 CURVE",
"473 253 LINE",
"464 211 OFFCURVE",
"426 155 OFFCURVE",
"356 155 CURVE SMOOTH",
"263 155 OFFCURVE",
"227 245 OFFCURVE",
"227 352 CURVE SMOOTH",
"227 458 OFFCURVE",
"262 549 OFFCURVE",
"356 549 CURVE SMOOTH",
"422 549 OFFCURVE",
"465 498 OFFCURVE",
"474 450 CURVE",
"657 450 LINE",
"631 593 OFFCURVE",
"531 714 OFFCURVE",
"353 714 CURVE SMOOTH",
"139 714 OFFCURVE",
"30 534 OFFCURVE",
"30 352 CURVE SMOOTH",
"30 171 OFFCURVE",
"139 -10 OFFCURVE",
"353 -10 CURVE SMOOTH"
);
}
);
width = 687;
},
{
anchors = (
{
name = bottom;
position = "{404, 0}";
},
{
name = top;
position = "{362, 700}";
}
);
guideLines = (
{
angle = 90;
position = "{153, 0}";
},
{
angle = 90;
position = "{117, 0}";
},
{
position = "{0, 713}";
},
{
position = "{0, -7}";
}
);
layerId = "9DFE6445-7062-4987-A7C3-244173BC9CEA";
paths = (
{
closed = 1;
nodes = (
"522 -5 OFFCURVE",
"624 74 OFFCURVE",
"666 205 CURVE",
"629 205 LINE",
"588 95 OFFCURVE",
"498 30 OFFCURVE",
"378 30 CURVE SMOOTH",
"202 30 OFFCURVE",
"105 157 OFFCURVE",
"105 356 CURVE SMOOTH",
"105 554 OFFCURVE",
"202 681 OFFCURVE",
"378 681 CURVE SMOOTH",
"507 681 OFFCURVE",
"602 605 OFFCURVE",
"638 479 CURVE",
"674 479 LINE",
"637 626 OFFCURVE",
"532 715 OFFCURVE",
"378 715 CURVE SMOOTH",
"185 715 OFFCURVE",
"67 574 OFFCURVE",
"67 355 CURVE SMOOTH",
"67 137 OFFCURVE",
"184 -5 OFFCURVE",
"378 -5 CURVE SMOOTH"
);
}
);
width = 724;
}
);
leftKerningGroup = O;
rightKerningGroup = O;
unicode = 0043;
},
{
glyphname = D;
layers = (
{
anchors = (
{
name = bottom;
position = "{336, 0}";
},
{
name = center;
position = "{336, 350}";
},
{
name = top;
position = "{327, 701}";
}
);
guideLines = (
{
position = "{0, 534}";
}
);
layerId = "306713D8-4F8C-486F-A8A4-9DD13D5E83DB";
paths = (
{
closed = 1;
nodes = (
"324 1 LINE SMOOTH",
"506 1 OFFCURVE",
"642 122 OFFCURVE",
"642 352 CURVE SMOOTH",
"642 578 OFFCURVE",
"509 701 OFFCURVE",
"327 701 CURVE SMOOTH",
"40 701 LINE",
"40 1 LINE"
);
},
{
closed = 1;
nodes = (
"225 534 LINE",
"287 534 LINE SMOOTH",
"365 534 OFFCURVE",
"437 514 OFFCURVE",
"437 352 CURVE SMOOTH",
"437 190 OFFCURVE",
"364 171 OFFCURVE",
"287 171 CURVE SMOOTH",
"225 171 LINE"
);
}
);
width = 672;
},
{
anchors = (
{
name = bottom;
position = "{347, 0}";
},
{
name = center;
position = "{347, 350}";
},
{
name = top;
position = "{334, 700}";
}
);
guideLines = (
{
angle = 270;
position = "{92, 436}";
},
{
angle = 90;
position = "{611, 0}";
},
{
position = "{0, 671}";
},
{
position = "{0, 349}";
},
{
angle = 180;
position = "{317, 34}";
},
{
angle = 90;
position = "{644, 0}";
},
{
angle = 270;
position = "{92, 233}";
}
);
layerId = "9DFE6445-7062-4987-A7C3-244173BC9CEA";
paths = (
{
closed = 1;
nodes = (
"333 0 LINE SMOOTH",
"527 0 OFFCURVE",
"644 140 OFFCURVE",
"644 350 CURVE SMOOTH",
"644 561 OFFCURVE",
"526 700 OFFCURVE",
"333 700 CURVE SMOOTH",
"92 700 LINE",
"92 0 LINE"
);
},
{
closed = 1;
nodes = (
"126 666 LINE",
"333 666 LINE SMOOTH",
"501 666 OFFCURVE",
"610 541 OFFCURVE",
"610 351 CURVE SMOOTH",
"610 160 OFFCURVE",
"501 34 OFFCURVE",
"333 34 CURVE SMOOTH",
"126 34 LINE"
);
}
);
width = 694;
}
);
leftKerningGroup = h;
rightKerningGroup = O;
unicode = 0044;
},
{
glyphname = Eth;
layers = (
{
layerId = "306713D8-4F8C-486F-A8A4-9DD13D5E83DB";
paths = (
{
closed = 1;
nodes = (
"328 296 LINE",
"328 421 LINE",
"25 421 LINE",
"25 296 LINE"
);
},
{
closed = 1;
nodes = (
"355 1 LINE SMOOTH",
"537 1 OFFCURVE",
"673 122 OFFCURVE",
"673 352 CURVE SMOOTH",
"673 578 OFFCURVE",
"540 701 OFFCURVE",
"358 701 CURVE SMOOTH",
"71 701 LINE",
"71 1 LINE"
);
},
{
closed = 1;
nodes = (
"256 534 LINE",
"318 534 LINE SMOOTH",
"396 534 OFFCURVE",
"468 514 OFFCURVE",
"468 352 CURVE SMOOTH",
"468 190 OFFCURVE",
"395 171 OFFCURVE",
"318 171 CURVE SMOOTH",
"256 171 LINE"
);
}
);
width = 703;
},
{
layerId = "9DFE6445-7062-4987-A7C3-244173BC9CEA";
paths = (
{
closed = 1;
nodes = (
"318 342 LINE",
"318 370 LINE",
"57 370 LINE",
"57 342 LINE"
);
},
{
closed = 1;
nodes = (
"310 -2 LINE SMOOTH",
"542 -2 OFFCURVE",
"670 126 OFFCURVE",
"670 349 CURVE SMOOTH",
"670 572 OFFCURVE",
"542 700 OFFCURVE",
"310 700 CURVE SMOOTH",
"118 700 LINE",
"118 -2 LINE"
);
},
{
closed = 1;
nodes = (
"152 666 LINE",
"310 666 LINE SMOOTH",
"378 666 OFFCURVE",
"637 668 OFFCURVE",
"637 349 CURVE SMOOTH",
"637 30 OFFCURVE",
"378 32 OFFCURVE",
"310 32 CURVE SMOOTH",
"152 32 LINE"
);
}
);
width = 720;
}
);
rightKerningGroup = O;
unicode = 00D0;
},
{
glyphname = Dcroat;
layers = (
{
guideLines = (
{
angle = 90;
position = "{71, 0}";
}
);
layerId = "306713D8-4F8C-486F-A8A4-9DD13D5E83DB";
paths = (
{
closed = 1;
nodes = (
"328 296 LINE",
"328 421 LINE",
"25 421 LINE",
"25 296 LINE"
);
},
{
closed = 1;
nodes = (
"355 1 LINE SMOOTH",
"537 1 OFFCURVE",
"673 122 OFFCURVE",
"673 352 CURVE SMOOTH",
"673 578 OFFCURVE",
"540 701 OFFCURVE",
"358 701 CURVE SMOOTH",
"71 701 LINE",
"71 1 LINE"
);
},
{
closed = 1;
nodes = (
"256 534 LINE",
"318 534 LINE SMOOTH",
"396 534 OFFCURVE",
"468 514 OFFCURVE",
"468 352 CURVE SMOOTH",
"468 190 OFFCURVE",
"395 171 OFFCURVE",
"318 171 CURVE SMOOTH",
"256 171 LINE"
);
}
);
width = 703;
},
{
guideLines = (
{
angle = 90;
position = "{654, 0}";
},
{
angle = 90;
position = "{118, 0}";
}
);
layerId = "9DFE6445-7062-4987-A7C3-244173BC9CEA";
paths = (
{
closed = 1;
nodes = (
"318 342 LINE",
"318 370 LINE",
"57 370 LINE",
"57 342 LINE"
);
},
{
closed = 1;
nodes = (
"310 -2 LINE SMOOTH",
"542 -2 OFFCURVE",
"670 126 OFFCURVE",
"670 349 CURVE SMOOTH",
"670 572 OFFCURVE",
"542 700 OFFCURVE",
"310 700 CURVE SMOOTH",
"118 700 LINE",
"118 -2 LINE"
);
},
{
closed = 1;
nodes = (
"152 666 LINE",
"310 666 LINE SMOOTH",
"378 666 OFFCURVE",
"637 668 OFFCURVE",
"637 349 CURVE SMOOTH",
"637 30 OFFCURVE",
"378 32 OFFCURVE",
"310 32 CURVE SMOOTH",
"152 32 LINE"
);
}
);
width = 720;
}
);
rightKerningGroup = O;
unicode = 0110;
},
{
glyphname = E;
layers = (
{
anchors = (
{
name = bottom;
position = "{285, 0}";
},
{
name = ogonek;
position = "{570, 51}";
},
{
name = top;
position = "{285, 700}";
},
{
name = topleft;
position = "{20, 700}";
}
);
guideLines = (
{
angle = 90;
position = "{535, 0}";
},
{
angle = 90;
position = "{285, 0}";
},
{
angle = 90;
position = "{41, 575}";
}
);
layerId = "306713D8-4F8C-486F-A8A4-9DD13D5E83DB";
paths = (
{
closed = 1;
nodes = (
"233 0 LINE",
"233 700 LINE",
"41 700 LINE",
"41 0 LINE"
);
},
{
closed = 1;
nodes = (
"480 280 LINE",
"480 427 LINE",
"89 427 LINE",
"89 280 LINE"
);
},
{
closed = 1;
nodes = (
"535 535 LINE",
"535 700 LINE",
"160 700 LINE",
"160 535 LINE"
);
},
{
closed = 1;
nodes = (
"535 0 LINE",
"535 165 LINE",
"160 165 LINE",
"160 0 LINE"
);
}
);
width = 565;
},
{
anchors = (
{
name = bottom;
position = "{292, 0}";
},
{
name = ogonek;
position = "{531, 27}";
},
{
name = top;
position = "{292, 700}";
},
{
name = topleft;
position = "{20, 700}";
}
);
guideLines = (
{
angle = 90;
position = "{292, 0}";
},
{
position = "{0, 666}";
},
{
angle = 90;
position = "{92, 0}";
},
{
angle = 90;
position = "{492, 0}";
}
);
layerId = "9DFE6445-7062-4987-A7C3-244173BC9CEA";
paths = (
{
closed = 1;
nodes = (
"126 0 LINE",
"126 700 LINE",
"92 700 LINE",
"92 0 LINE"
);
},
{
closed = 1;
nodes = (
"457 343 LINE",
"457 375 LINE",
"118 375 LINE",
"118 343 LINE"
);
},
{
closed = 1;
nodes = (
"492 666 LINE",
"492 700 LINE",
"108 700 LINE",
"108 666 LINE"
);
},
{
closed = 1;
nodes = (
"492 0 LINE",
"492 34 LINE",
"108 34 LINE",
"108 0 LINE"
);
}
);
width = 571;
}
);
leftKerningGroup = h;
rightKerningGroup = E;
unicode = 0045;
},
{
glyphname = F;
layers = (
{
layerId = "306713D8-4F8C-486F-A8A4-9DD13D5E83DB";
paths = (
{
closed = 1;
nodes = (
"234 0 LINE",
"234 700 LINE",
"42 700 LINE",
"42 0 LINE"
);
},
{
closed = 1;
nodes = (
"480 281 LINE",
"480 428 LINE",
"91 428 LINE",
"91 281 LINE"
);
},
{
closed = 1;
nodes = (
"514 535 LINE",
"514 700 LINE",
"161 700 LINE",
"161 535 LINE"
);
}
);
width = 507;
},
{
layerId = "9DFE6445-7062-4987-A7C3-244173BC9CEA";
paths = (
{
closed = 1;
nodes = (
"126 0 LINE",
"126 700 LINE",
"92 700 LINE",
"92 0 LINE"
);
},
{
closed = 1;
nodes = (
"442 343 LINE",
"442 375 LINE",
"116 373 LINE",
"116 343 LINE"
);
},
{
closed = 1;
nodes = (
"482 666 LINE",
"482 700 LINE",
"109 700 LINE",
"109 666 LINE"
);
}
);
width = 520;
}
);
leftKerningGroup = h;
rightKerningGroup = F;
unicode = 0046;
},
{
glyphname = G;
layers = (
{
anchors = (
{
name = bottom;
position = "{361, 0}";
},
{
name = top;
position = "{359, 700}";
}
);
guideLines = (
{
position = "{0, 447}";
},
{
position = "{0, 53}";
},
{
angle = 90;
position = "{231, 0}";
},
{
angle = 90;
position = "{35, -76}";
},
{
angle = 90;
position = "{227, 0}";
},
{
angle = 90;
position = "{467, 0}";
},
{
position = "{0, -10}";
}
);
layerId = "306713D8-4F8C-486F-A8A4-9DD13D5E83DB";
paths = (
{
closed = 1;
nodes = (
"477 -10 OFFCURVE",
"518 76 OFFCURVE",
"526 91 CURVE",
"534 91 LINE",
"534 0 LINE",
"672 0 LINE",
"672 394 LINE",
"384 394 LINE",
"384 259 LINE",
"483 259 LINE",
"483 254 LINE SMOOTH",
"483 207 OFFCURVE",
"456 139 OFFCURVE",
"369 139 CURVE SMOOTH",
"278 139 OFFCURVE",
"227 213 OFFCURVE",
"227 343 CURVE SMOOTH",
"227 459 OFFCURVE",
"267 548 OFFCURVE",
"359 548 CURVE SMOOTH",
"421 548 OFFCURVE",
"454 511 OFFCURVE",
"467 465 CURVE",
"667 465 LINE",
"627 605 OFFCURVE",
"526 714 OFFCURVE",
"358 714 CURVE SMOOTH",
"143 714 OFFCURVE",
"35 537 OFFCURVE",
"35 348 CURVE SMOOTH",
"35 165 OFFCURVE",
"137 -10 OFFCURVE",
"337 -10 CURVE SMOOTH"
);
}
);
width = 717;
},
{
anchors = (
{
name = bottom;
position = "{358, 0}";
},
{
name = top;
position = "{367, 700}";
}
);
guideLines = (
{
angle = 90;
position = "{648, 0}";
},
{
position = "{0, 716}";
}
);
layerId = "9DFE6445-7062-4987-A7C3-244173BC9CEA";
paths = (
{
closed = 1;
nodes = (
"550 -5 OFFCURVE",
"603 129 OFFCURVE",
"603 129 CURVE",
"611 129 LINE",
"611 0 LINE",
"645 0 LINE",
"645 346 LINE",
"374 346 LINE",
"374 316 LINE",
"618 316 LINE",
"617 277 LINE SMOOTH",
"613 129 OFFCURVE",
"517 30 OFFCURVE",
"367 30 CURVE SMOOTH",
"203 30 OFFCURVE",
"98 151 OFFCURVE",
"98 356 CURVE SMOOTH",
"98 559 OFFCURVE",
"201 680 OFFCURVE",
"367 680 CURVE SMOOTH",
"498 680 OFFCURVE",
"578 615 OFFCURVE",
"611 505 CURVE",
"648 505 LINE",
"618 608 OFFCURVE",
"535 715 OFFCURVE",
"367 715 CURVE SMOOTH",
"140 715 OFFCURVE",
"62 518 OFFCURVE",
"62 355 CURVE SMOOTH",
"62 192 OFFCURVE",
"142 -5 OFFCURVE",
"367 -5 CURVE SMOOTH"
);
}
);
width = 715;
}
);
leftKerningGroup = O;
unicode = 0047;
},
{
glyphname = H;
layers = (
{
layerId = "306713D8-4F8C-486F-A8A4-9DD13D5E83DB";
paths = (
{
closed = 1;
nodes = (
"640 0 LINE",
"640 700 LINE",
"448 700 LINE",
"448 0 LINE"
);
},
{
closed = 1;
nodes = (
"231 0 LINE",
"231 700 LINE",
"40 700 LINE",
"40 0 LINE"
);
},
{
closed = 1;
nodes = (
"476 277 LINE",
"476 424 LINE",
"187 424 LINE",
"187 277 LINE"
);
}
);
width = 680;
},
{
layerId = "9DFE6445-7062-4987-A7C3-244173BC9CEA";
paths = (
{
closed = 1;
nodes = (
"586 0 LINE",
"586 700 LINE",
"552 700 LINE",
"552 0 LINE"
);
},
{
closed = 1;
nodes = (
"126 0 LINE",
"126 700 LINE",
"92 700 LINE",
"92 0 LINE"
);
},
{
closed = 1;
nodes = (
"580 337 LINE",
"580 369 LINE",
"98 369 LINE",
"98 337 LINE"
);
}
);
width = 678;
}
);
leftKerningGroup = h;
rightKerningGroup = I;
unicode = 0048;
},
{
glyphname = Hbar;
layers = (
{
layerId = "306713D8-4F8C-486F-A8A4-9DD13D5E83DB";
paths = (
{
closed = 1;
nodes = (
"649 0 LINE",
"649 700 LINE",
"457 700 LINE",
"457 0 LINE"
);
},
{
closed = 1;
nodes = (
"240 0 LINE",
"240 700 LINE",
"49 700 LINE",
"49 0 LINE"
);
},
{
closed = 1;
nodes = (
"494 277 LINE",
"494 424 LINE",
"205 424 LINE",
"205 277 LINE"
);
},
{
closed = 1;
nodes = (
"694 491 LINE",
"694 638 LINE",
"5 638 LINE",
"5 491 LINE"
);
}
);
width = 699;
},
{
layerId = "9DFE6445-7062-4987-A7C3-244173BC9CEA";
paths = (
{
closed = 1;
nodes = (
"593 0 LINE",
"593 700 LINE",
"559 700 LINE",
"559 0 LINE"
);
},
{
closed = 1;
nodes = (
"133 0 LINE",
"133 700 LINE",
"99 700 LINE",
"99 0 LINE"
);
},
{
closed = 1;
nodes = (
"587 337 LINE",
"587 369 LINE",
"105 369 LINE",
"105 337 LINE"
);
},
{
closed = 1;
nodes = (
"657 525 LINE",
"657 557 LINE",
"35 557 LINE",
"35 525 LINE"
);
}
);
width = 692;
}
);
unicode = 0126;
},
{
glyphname = I;
layers = (
{
anchors = (
{
name = bottom;
position = "{146, 0}";
},
{
name = ogonek;
position = "{277, 51}";
},
{
name = top;
position = "{146, 700}";
},
{
name = topleft;
position = "{20, 700}";
}
);
guideLines = (
{
angle = 90;
position = "{89, 0}";
},
{
angle = 90;
position = "{-49, 103}";
}
);
layerId = "306713D8-4F8C-486F-A8A4-9DD13D5E83DB";
paths = (
{
closed = 1;
nodes = (
"242 0 LINE",
"242 700 LINE",
"50 700 LINE",
"50 0 LINE"
);
}
);
width = 292;
},
{
anchors = (
{
name = bottom;
position = "{110, 0}";
},
{
name = ogonek;
position = "{166, 27}";
},
{
name = top;
position = "{110, 700}";
},
{
name = topleft;
position = "{20, 700}";
}
);
layerId = "9DFE6445-7062-4987-A7C3-244173BC9CEA";
paths = (
{
closed = 1;
nodes = (
"127 0 LINE",
"127 700 LINE",
"92 700 LINE",
"92 0 LINE"
);
}
);
width = 219;
}
);
leftKerningGroup = h;
rightKerningGroup = I;
unicode = 0049;
},
{
glyphname = J;
layers = (
{
layerId = "306713D8-4F8C-486F-A8A4-9DD13D5E83DB";
paths = (
{
closed = 1;
nodes = (
"336 -3 OFFCURVE",
"336 132 OFFCURVE",
"336 163 CURVE SMOOTH",
"336 700 LINE",
"146 700 LINE",
"146 224 LINE SMOOTH",
"146 179 OFFCURVE",
"146 137 OFFCURVE",
"77 137 CURVE SMOOTH",
"66 137 OFFCURVE",
"46 138 OFFCURVE",
"35 140 CURVE",
"35 6 LINE",
"53 2 OFFCURVE",
"93 -3 OFFCURVE",
"133 -3 CURVE SMOOTH"
);
}
);
width = 386;
},
{
layerId = "9DFE6445-7062-4987-A7C3-244173BC9CEA";
paths = (
{
closed = 1;
nodes = (
"206 -3 OFFCURVE",
"223 60 OFFCURVE",
"223 123 CURVE SMOOTH",
"222 700 LINE",
"190 700 LINE",
"190 123 LINE SMOOTH",
"190 81 OFFCURVE",
"189 26 OFFCURVE",
"106 26 CURVE SMOOTH",
"88 26 OFFCURVE",
"70 28 OFFCURVE",
"57 31 CURVE",
"57 3 LINE",
"70 -1 OFFCURVE",
"87 -3 OFFCURVE",
"109 -3 CURVE SMOOTH"
);
}
);
width = 327;
}
);
rightKerningGroup = U;
unicode = 004A;
},
{
glyphname = K;
layers = (
{
guideLines = (
{
angle = 50.92;
position = "{534, 547}";
},
{
angle = 119.29;
position = "{530, 209}";
}
);
layerId = "306713D8-4F8C-486F-A8A4-9DD13D5E83DB";
paths = (
{
closed = 1;
nodes = (
"228 0 LINE",
"228 196 LINE",
"301 278 LINE",
"436 0 LINE",
"647 0 LINE",
"419 406 LINE",
"658 700 LINE",
"445 700 LINE",
"233 442 LINE",
"228 442 LINE",
"228 700 LINE",
"40 700 LINE",
"40 0 LINE"
);
}
);
width = 683;
},
{
guideLines = (
{
angle = 128.29;
position = "{323, 186}";
},
{
angle = 128.29;
position = "{395, 205}";
},
{
angle = 46.72;
position = "{380, 543}";
},
{
angle = 45.99;
position = "{339, 542}";
},
{
angle = 129.97;
position = "{358, 204}";
}
);
layerId = "9DFE6445-7062-4987-A7C3-244173BC9CEA";
paths = (
{
closed = 1;
nodes = (
"125 0 LINE",
"125 312 LINE",
"176 365 LINE",
"483 0 LINE",
"529 0 LINE",
"197 395 LINE",
"492 700 LINE",
"440 700 LINE",
"130 364 LINE",
"125 364 LINE",
"125 700 LINE",
"90 700 LINE",
"90 0 LINE"
);
}
);
width = 594;
}
);
leftKerningGroup = h;
rightKerningGroup = K;
unicode = 004B;
},
{
glyphname = L;
layers = (
{
anchors = (
{
name = bottom;
position = "{269, 0}";
},
{
name = center;
position = "{269, 350}";
},
{
name = top;
position = "{134, 700}";
},
{
name = topright;
position = "{518, 700}";
}
);
layerId = "306713D8-4F8C-486F-A8A4-9DD13D5E83DB";
paths = (
{
closed = 1;
nodes = (
"232 0 LINE",
"232 700 LINE",
"40 700 LINE",
"40 0 LINE"
);
},
{
closed = 1;
nodes = (
"511 0 LINE",
"511 165 LINE",
"161 165 LINE",
"161 0 LINE"
);
}
);
width = 538;
},
{
anchors = (
{
name = bottom;
position = "{262, 0}";
},
{
name = center;
position = "{262, 350}";
},
{
name = top;
position = "{110, 700}";
},
{
name = topright;
position = "{504, 700}";
}
);
layerId = "9DFE6445-7062-4987-A7C3-244173BC9CEA";
paths = (
{
closed = 1;
nodes = (
"125 0 LINE",
"127 700 LINE",
"92 700 LINE",
"93 0 LINE"
);
},
{
closed = 1;
nodes = (
"477 0 LINE",
"477 34 LINE",
"111 34 LINE",
"111 0 LINE"
);
}
);
width = 524;
}
);
leftKerningGroup = h;
rightKerningGroup = L;
unicode = 004C;
},
{
glyphname = M;
layers = (
{
guideLines = (
{
angle = 90;
position = "{428, 0}";
},
{
angle = 288.;
position = "{465, 253}";
},
{
angle = 288.;
position = "{298, 219}";
},
{
position = "{0, 437}";
}
);
layerId = "306713D8-4F8C-486F-A8A4-9DD13D5E83DB";
paths = (
{
closed = 1;
nodes = (
"227 0 LINE",
"227 437 LINE",
"232 437 LINE",
"369 0 LINE",
"487 0 LINE",
"624 437 LINE",
"629 437 LINE",
"629 0 LINE",
"816 0 LINE",
"816 700 LINE",
"531 700 LINE",
"429 373 LINE",
"427 373 LINE",
"325 700 LINE",
"40 700 LINE",
"40 0 LINE"
);
}
);
width = 856;
},
{
guideLines = (
{
angle = 112.03;
position = "{232, 380}";
},
{
angle = 112.03;
position = "{270, 380}";
},
{
angle = 90;
position = "{680, 0}";
},
{
angle = 90;
position = "{420, 0}";
}
);
layerId = "9DFE6445-7062-4987-A7C3-244173BC9CEA";
paths = (
{
closed = 1;
nodes = (
"126 0 LINE",
"126 632 LINE",
"130 632 LINE",
"386 0 LINE",
"420 0 LINE",
"676 632 LINE",
"680 632 LINE",
"680 0 LINE",
"714 0 LINE",
"714 700 LINE",
"666 700 LINE",
"405 60 LINE",
"401 60 LINE",
"140 700 LINE",
"92 700 LINE",
"92 0 LINE"
);
}
);
width = 806;
}
);
leftKerningGroup = h;
rightKerningGroup = I;
unicode = 004D;
},
{
glyphname = N;
layers = (
{
anchors = (
{
name = bottom;
position = "{346, 0}";
},
{
name = top;
position = "{346, 700}";
}
);
guideLines = (
{
position = "{0, 399}";
},
{
position = "{0, 437}";
}
);
layerId = "306713D8-4F8C-486F-A8A4-9DD13D5E83DB";
paths = (
{
closed = 1;
nodes = (
"229 -1 LINE",
"229 387 LINE",
"232 387 LINE",
"426 -1 LINE",
"651 -1 LINE",
"651 700 LINE",
"462 700 LINE",
"462 290 LINE",
"460 290 LINE",
"263 700 LINE",
"40 700 LINE",
"40 -1 LINE"
);
}
);
width = 691;
},
{
anchors = (
{
name = bottom;
position = "{361, 0}";
},
{
name = top;
position = "{361, 700}";
}
);
guideLines = (
{
angle = 90;
position = "{150, 0}";
},
{
position = "{0, 592}";
},
{
angle = 306.03;
position = "{367, 370}";
},
{
angle = 306.03;
position = "{362, 319}";
}
);
layerId = "9DFE6445-7062-4987-A7C3-244173BC9CEA";
paths = (
{
closed = 1;
nodes = (
"126 0 LINE",
"126 638 LINE",
"130 638 LINE",
"594 0 LINE",
"629 0 LINE",
"629 700 LINE",
"595 700 LINE",
"595 62 LINE",
"591 62 LINE",
"127 700 LINE",
"92 700 LINE",
"92 0 LINE"
);
}
);
width = 721;
}
);
leftKerningGroup = h;
rightKerningGroup = I;
unicode = 004E;
},
{
glyphname = O;
layers = (
{
anchors = (
{
name = bottom;
position = "{357, 0}";
},
{
name = center;
position = "{358, 350}";
},
{
name = ogonek;
position = "{644, 10}";
},
{
name = top;
position = "{357, 700}";
},
{
name = topleft;
position = "{20, 700}";
},
{
name = topright;
position = "{567, 494}";
}
);
guideLines = (
{
angle = 90;
position = "{179, 0}";
},
{
angle = 90;
position = "{234, 0}";
},
{
position = "{0, 349}";
},
{
position = "{0, -10}";
},
{
position = "{0, 159}";
},
{
position = "{0, 714}";
},
{
angle = 90;
position = "{357, 0}";
},
{
position = "{0, 545}";
},
{
angle = 90;
position = "{30, 80}";
}
);
layerId = "306713D8-4F8C-486F-A8A4-9DD13D5E83DB";
paths = (
{
closed = 1;
nodes = (
"574 -10 OFFCURVE",
"681 158 OFFCURVE",
"681 347 CURVE SMOOTH",
"681 537 OFFCURVE",
"575 714 OFFCURVE",
"357 714 CURVE SMOOTH",
"135 714 OFFCURVE",
"30 533 OFFCURVE",
"30 348 CURVE SMOOTH",
"30 163 OFFCURVE",
"134 -10 OFFCURVE",
"357 -10 CURVE SMOOTH"
);
},
{
closed = 1;
nodes = (
"267 159 OFFCURVE",
"234 258 OFFCURVE",
"234 349 CURVE SMOOTH",
"234 441 OFFCURVE",
"268 545 OFFCURVE",
"356 545 CURVE SMOOTH",
"444 545 OFFCURVE",
"477 442 OFFCURVE",
"477 350 CURVE SMOOTH",
"477 253 OFFCURVE",
"442 159 OFFCURVE",
"356 159 CURVE SMOOTH"
);
}
);
width = 716;
},
{
anchors = (
{
name = bottom;
position = "{373, 0}";
},
{
name = center;
position = "{373, 350}";
},
{
name = ogonek;
position = "{671, 10}";
},
{
name = top;
position = "{373, 700}";
},
{
name = topleft;
position = "{20, 700}";
},
{
name = topright;
position = "{537, 700}";
}
);
guideLines = (
{
position = "{0, 679}";
},
{
position = "{0, 713}";
},
{
position = "{0, -7}";
},
{
position = "{0, 28}";
},
{
angle = 90;
position = "{96, 0}";
},
{
angle = 90;
position = "{62, 153}";
}
);
layerId = "9DFE6445-7062-4987-A7C3-244173BC9CEA";
paths = (
{
closed = 1;
nodes = (
"566 -5 OFFCURVE",
"683 137 OFFCURVE",
"683 355 CURVE SMOOTH",
"683 574 OFFCURVE",
"566 715 OFFCURVE",
"373 715 CURVE SMOOTH",
"180 715 OFFCURVE",
"62 574 OFFCURVE",
"62 355 CURVE SMOOTH",
"62 137 OFFCURVE",
"179 -5 OFFCURVE",
"373 -5 CURVE SMOOTH"
);
},
{
closed = 1;
nodes = (
"205 30 OFFCURVE",
"96 157 OFFCURVE",
"96 356 CURVE SMOOTH",
"96 554 OFFCURVE",
"205 681 OFFCURVE",
"373 681 CURVE SMOOTH",
"540 681 OFFCURVE",
"649 555 OFFCURVE",
"649 356 CURVE SMOOTH",
"649 157 OFFCURVE",
"540 30 OFFCURVE",
"373 30 CURVE SMOOTH"
);
}
);
width = 745;
}
);
leftKerningGroup = O;
rightKerningGroup = O;
unicode = 004F;
},
{
glyphname = Oslash;
layers = (
{
components = (
{
name = O;
transform = "{1, 0, 0, 1, 13, 0}";
alignment = -1;
}
);
layerId = "306713D8-4F8C-486F-A8A4-9DD13D5E83DB";
paths = (
{
closed = 1;
nodes = (
"202 -43 LINE",
"706 743 LINE",
"535 743 LINE",
"31 -43 LINE"
);
}
);
width = 741;
},
{
components = (
{
name = O;
transform = "{1, 0, 0, 1, -1, 0}";
alignment = -1;
}
);
layerId = "9DFE6445-7062-4987-A7C3-244173BC9CEA";
paths = (
{
closed = 1;
nodes = (
"139 -43 LINE",
"643 743 LINE",
"606 743 LINE",
"102 -43 LINE"
);
}
);
width = 744;
}
);
unicode = 00D8;
},
{
glyphname = OE;
layers = (
{
guideLines = (
{
position = "{0, 534}";
},
{
position = "{0, 171}";
}
);
layerId = "306713D8-4F8C-486F-A8A4-9DD13D5E83DB";
paths = (
{
closed = 1;
nodes = (
"946 0 LINE",
"946 165 LINE",
"644 165 LINE",
"644 280 LINE",
"891 280 LINE",
"891 427 LINE",
"644 427 LINE",
"644 535 LINE",
"946 535 LINE",
"946 700 LINE",
"357 700 LINE SMOOTH",
"135 700 OFFCURVE",
"30 533 OFFCURVE",
"30 349 CURVE SMOOTH",
"30 163 OFFCURVE",
"134 0 OFFCURVE",
"357 0 CURVE SMOOTH"
);
},
{
closed = 1;
nodes = (
"357 170 LINE SMOOTH",
"267 170 OFFCURVE",
"234 258 OFFCURVE",
"234 349 CURVE SMOOTH",
"234 441 OFFCURVE",
"268 533 OFFCURVE",
"357 533 CURVE SMOOTH",
"452 533 LINE",
"452 170 LINE"
);
}
);
width = 976;
},
{
layerId = "9DFE6445-7062-4987-A7C3-244173BC9CEA";
paths = (
{
closed = 1;
nodes = (
"877 0 LINE",
"877 34 LINE",
"511 34 LINE",
"511 343 LINE",
"842 343 LINE",
"842 375 LINE",
"511 375 LINE",
"511 666 LINE",
"877 666 LINE",
"877 700 LINE",
"361 700 LINE SMOOTH",
"168 700 OFFCURVE",
"50 563 OFFCURVE",
"50 350 CURVE SMOOTH",
"50 138 OFFCURVE",
"167 0 OFFCURVE",
"361 0 CURVE SMOOTH"
);
},
{
closed = 1;
nodes = (
"361 33 LINE SMOOTH",
"193 33 OFFCURVE",
"84 158 OFFCURVE",
"84 351 CURVE SMOOTH",
"84 543 OFFCURVE",
"193 667 OFFCURVE",
"361 667 CURVE SMOOTH",
"477 667 LINE",
"477 33 LINE"
);
}
);
width = 956;
}
);
leftKerningGroup = O;
rightKerningGroup = E;
unicode = 0152;
},
{
glyphname = P;
layers = (
{
guideLines = (
{
angle = 90;
position = "{194, 0}";
},
{
angle = 90;
position = "{59, 76}";
},
{
position = "{0, 700}";
},
{
position = "{0, 534}";
}
);
layerId = "306713D8-4F8C-486F-A8A4-9DD13D5E83DB";
paths = (
{
closed = 1;
nodes = (
"320 203 LINE SMOOTH",
"494 203 OFFCURVE",
"581 315 OFFCURVE",
"581 448 CURVE SMOOTH",
"581 582 OFFCURVE",
"491 700 OFFCURVE",
"320 700 CURVE SMOOTH",
"202 700 LINE",
"202 534 LINE",
"288 534 LINE SMOOTH",
"342 534 OFFCURVE",
"396 517 OFFCURVE",
"396 448 CURVE SMOOTH",
"396 378 OFFCURVE",
"342 358 OFFCURVE",
"288 358 CURVE SMOOTH",
"202 358 LINE",
"202 203 LINE"
);
},
{
closed = 1;
nodes = (
"228 0 LINE",
"228 700 LINE",
"40 700 LINE",
"40 0 LINE"
);
}
);
width = 586;
},
{
guideLines = (
{
position = "{0, 665}";
},
{
angle = 90;
position = "{509, 0}";
},
{
angle = 90;
position = "{542, 0}";
}
);
layerId = "9DFE6445-7062-4987-A7C3-244173BC9CEA";
paths = (
{
closed = 1;
nodes = (
"309 262 LINE SMOOTH",
"496 262 OFFCURVE",
"542 390 OFFCURVE",
"542 481 CURVE SMOOTH",
"542 572 OFFCURVE",
"496 700 OFFCURVE",
"309 700 CURVE SMOOTH",
"119 700 LINE",
"119 666 LINE",
"309 666 LINE SMOOTH",
"402 666 OFFCURVE",
"509 630 OFFCURVE",
"509 481 CURVE SMOOTH",
"509 332 OFFCURVE",
"402 296 OFFCURVE",
"309 296 CURVE SMOOTH",
"119 296 LINE",
"119 262 LINE"
);
},
{
closed = 1;
nodes = (
"124 0 LINE",
"124 700 LINE",
"92 700 LINE",
"92 0 LINE"
);
}
);
width = 584;
}
);
leftKerningGroup = h;
rightKerningGroup = nine;
unicode = 0050;
},
{
glyphname = Thorn;
layers = (
{
layerId = "306713D8-4F8C-486F-A8A4-9DD13D5E83DB";
paths = (
{
closed = 1;
nodes = (
"320 102 LINE SMOOTH",
"494 102 OFFCURVE",
"581 214 OFFCURVE",
"581 347 CURVE SMOOTH",
"581 481 OFFCURVE",
"491 599 OFFCURVE",
"320 599 CURVE SMOOTH",
"202 599 LINE",
"202 433 LINE",
"288 433 LINE SMOOTH",
"342 433 OFFCURVE",
"396 416 OFFCURVE",
"396 347 CURVE SMOOTH",
"396 277 OFFCURVE",
"342 257 OFFCURVE",
"288 257 CURVE SMOOTH",
"202 257 LINE",
"202 102 LINE"
);
},
{
closed = 1;
nodes = (
"228 0 LINE",
"228 700 LINE",
"40 700 LINE",
"40 0 LINE"
);
}
);
width = 611;
},
{
layerId = "9DFE6445-7062-4987-A7C3-244173BC9CEA";
paths = (
{
closed = 1;
nodes = (
"309 131 LINE SMOOTH",
"496 131 OFFCURVE",
"542 259 OFFCURVE",
"542 350 CURVE SMOOTH",
"542 441 OFFCURVE",
"496 569 OFFCURVE",
"309 569 CURVE SMOOTH",
"119 569 LINE",
"119 535 LINE",
"309 535 LINE SMOOTH",
"402 535 OFFCURVE",
"509 499 OFFCURVE",
"509 350 CURVE SMOOTH",
"509 201 OFFCURVE",
"402 165 OFFCURVE",
"309 165 CURVE SMOOTH",
"119 165 LINE",
"119 131 LINE"
);
},
{
closed = 1;
nodes = (
"124 0 LINE",
"124 700 LINE",
"92 700 LINE",
"92 0 LINE"
);
}
);
width = 584;
}
);
unicode = 00DE;
},
{
glyphname = Q;
layers = (
{
components = (
{
name = O;
alignment = -1;
}
);
layerId = "306713D8-4F8C-486F-A8A4-9DD13D5E83DB";
paths = (
{
closed = 1;
nodes = (
"660 -33 LINE",
"434 282 LINE",
"273 282 LINE",
"499 -33 LINE"
);
}
);
width = 711;
},
{
components = (
{
name = O;
alignment = -1;
}
);
layerId = "9DFE6445-7062-4987-A7C3-244173BC9CEA";
paths = (
{
closed = 1;
nodes = (
"666 -67 LINE",
"394 263 LINE",
"350 263 LINE",
"622 -67 LINE"
);
}
);
width = 743;
}
);
leftKerningGroup = O;
rightKerningGroup = O;
unicode = 0051;
},
{
glyphname = R;
layers = (
{
anchors = (
{
name = bottom;
position = "{299, 0}";
},
{
name = top;
position = "{299, 700}";
}
);
guideLines = (
{
position = "{0, 534}";
}
);
layerId = "306713D8-4F8C-486F-A8A4-9DD13D5E83DB";
paths = (
{
closed = 1;
nodes = (
"230 0 LINE",
"230 700 LINE",
"40 700 LINE",
"40 0 LINE"
);
},
{
closed = 1;
nodes = (
"601 0 LINE",
"455 282 LINE",
"272 259 LINE",
"405 0 LINE"
);
},
{
closed = 1;
nodes = (
"320 228 LINE SMOOTH",
"494 228 OFFCURVE",
"581 333 OFFCURVE",
"581 460 CURVE SMOOTH",
"581 589 OFFCURVE",
"491 700 OFFCURVE",
"320 700 CURVE SMOOTH",
"202 700 LINE",
"202 535 LINE",
"288 535 LINE SMOOTH",
"342 535 OFFCURVE",
"396 520 OFFCURVE",
"396 460 CURVE SMOOTH",
"396 399 OFFCURVE",
"341 381 OFFCURVE",
"288 381 CURVE SMOOTH",
"202 381 LINE",
"202 228 LINE"
);
}
);
width = 610;
},
{
anchors = (
{
name = bottom;
position = "{297, 0}";
},
{
name = top;
position = "{277, 700}";
}
);
guideLines = (
{
position = "{0, 637}";
},
{
angle = 90;
position = "{507, 0}";
},
{
angle = 90;
position = "{540, 0}";
}
);
layerId = "9DFE6445-7062-4987-A7C3-244173BC9CEA";
paths = (
{
closed = 1;
nodes = (
"126 0 LINE",
"126 700 LINE",
"92 700 LINE",
"92 0 LINE"
);
},
{
closed = 1;
nodes = (
"541 0 LINE",
"319 314 LINE",
"275 317 LINE",
"497 0 LINE"
);
},
{
closed = 1;
nodes = (
"309 305 LINE SMOOTH",
"496 305 OFFCURVE",
"542 421 OFFCURVE",
"542 503 CURVE SMOOTH",
"542 584 OFFCURVE",
"496 700 OFFCURVE",
"309 700 CURVE SMOOTH",
"119 700 LINE",
"119 666 LINE",
"309 666 LINE SMOOTH",
"401 666 OFFCURVE",
"509 634 OFFCURVE",
"509 503 CURVE SMOOTH",
"509 371 OFFCURVE",
"401 339 OFFCURVE",
"309 339 CURVE SMOOTH",
"119 339 LINE",
"119 305 LINE"
);
}
);
width = 603;
}
);
leftKerningGroup = h;
rightKerningGroup = nine;
unicode = 0052;
},
{
glyphname = S;
layers = (
{
anchors = (
{
name = bottom;
position = "{348, -6}";
},
{
name = top;
position = "{354, 699}";
}
);
guideLines = (
{
angle = 90;
position = "{364, 0}";
},
{
position = "{0, 591}";
},
{
angle = 90;
position = "{-68, 0}";
},
{
position = "{0, 111}";
},
{
position = "{0, -10}";
},
{
angle = 163.64;
position = "{388, 265}";
},
{
angle = 163.64;
position = "{395, 439}";
},
{
position = "{0, 557}";
},
{
position = "{0, 714}";
},
{
angle = 90;
position = "{243, 0}";
},
{
angle = 90;
position = "{573, 0}";
},
{
angle = 90;
position = "{52, 313}";
}
);
layerId = "306713D8-4F8C-486F-A8A4-9DD13D5E83DB";
paths = (
{
closed = 1;
nodes = (
"464 -10 OFFCURVE",
"583 76 OFFCURVE",
"583 216 CURVE SMOOTH",
"583 348 OFFCURVE",
"482 404 OFFCURVE",
"393 424 CURVE SMOOTH",
"317 441 LINE SMOOTH",
"290 447 OFFCURVE",
"243 460 OFFCURVE",
"243 504 CURVE SMOOTH",
"243 536 OFFCURVE",
"264 556 OFFCURVE",
"299 556 CURVE SMOOTH",
"348 556 OFFCURVE",
"364 521 OFFCURVE",
"364 496 CURVE SMOOTH",
"364 492 LINE",
"573 492 LINE",
"573 498 LINE SMOOTH",
"573 604 OFFCURVE",
"481 714 OFFCURVE",
"307 714 CURVE SMOOTH",
"162 714 OFFCURVE",
"52 638 OFFCURVE",
"52 499 CURVE SMOOTH",
"52 341 OFFCURVE",
"197 298 OFFCURVE",
"252 286 CURVE SMOOTH",
"321 271 LINE SMOOTH",
"350 265 OFFCURVE",
"383 247 OFFCURVE",
"383 212 CURVE SMOOTH",
"383 180 OFFCURVE",
"359 155 OFFCURVE",
"317 155 CURVE SMOOTH",
"267 155 OFFCURVE",
"244 192 OFFCURVE",
"244 223 CURVE SMOOTH",
"244 231 LINE",
"35 231 LINE",
"35 222 LINE SMOOTH",
"35 107 OFFCURVE",
"133 -10 OFFCURVE",
"313 -10 CURVE SMOOTH"
);
}
);
width = 608;
},
{
anchors = (
{
name = bottom;
position = "{303, -7}";
},
{
name = top;
position = "{298, 700}";
}
);
guideLines = (
{
position = "{0, -7}";
},
{
position = "{0, 680}";
},
{
position = "{0, 715}";
}
);
layerId = "9DFE6445-7062-4987-A7C3-244173BC9CEA";
paths = (
{
closed = 1;
nodes = (
"447 -7 OFFCURVE",
"535 79 OFFCURVE",
"535 192 CURVE SMOOTH",
"535 331 OFFCURVE",
"399 360 OFFCURVE",
"341 371 CURVE SMOOTH",
"241 390 LINE SMOOTH",
"158 406 OFFCURVE",
"115 454 OFFCURVE",
"115 523 CURVE SMOOTH",
"115 608 OFFCURVE",
"181 680 OFFCURVE",
"295 680 CURVE SMOOTH",
"447 680 OFFCURVE",
"488 565 OFFCURVE",
"488 502 CURVE",
"488 500 LINE",
"526 500 LINE",
"526 502 LINE",
"526 603 OFFCURVE",
"451 715 OFFCURVE",
"295 715 CURVE SMOOTH",
"164 715 OFFCURVE",
"79 637 OFFCURVE",
"79 525 CURVE SMOOTH",
"79 382 OFFCURVE",
"216 359 OFFCURVE",
"243 354 CURVE SMOOTH",
"361 332 LINE SMOOTH",
"435 318 OFFCURVE",
"499 276 OFFCURVE",
"499 190 CURVE SMOOTH",
"499 87 OFFCURVE",
"411 29 OFFCURVE",
"303 29 CURVE SMOOTH",
"149 29 OFFCURVE",
"98 146 OFFCURVE",
"98 223 CURVE SMOOTH",
"98 226 LINE",
"60 226 LINE",
"60 224 LINE",
"60 116 OFFCURVE",
"136 -7 OFFCURVE",
"303 -7 CURVE SMOOTH"
);
}
);
width = 595;
}
);
leftKerningGroup = S;
rightKerningGroup = S;
unicode = 0053;
},
{
glyphname = T;
layers = (
{
anchors = (
{
name = bottom;
position = "{312, -6}";
},
{
name = center;
position = "{298, 350}";
},
{
name = top;
position = "{298, 700}";
}
);
guideLines = (
{
position = "{0, 626}";
}
);
layerId = "306713D8-4F8C-486F-A8A4-9DD13D5E83DB";
paths = (
{
closed = 1;
nodes = (
"393 0 LINE",
"393 700 LINE",
"203 700 LINE",
"203 0 LINE"
);
},
{
closed = 1;
nodes = (
"566 535 LINE",
"566 700 LINE",
"30 700 LINE",
"30 535 LINE"
);
}
);
width = 596;
},
{
anchors = (
{
name = bottom;
position = "{295, -6}";
},
{
name = center;
position = "{293, 350}";
},
{
name = top;
position = "{293, 700}";
}
);
layerId = "9DFE6445-7062-4987-A7C3-244173BC9CEA";
paths = (
{
closed = 1;
nodes = (
"309 0 LINE",
"309 700 LINE",
"275 700 LINE",
"275 0 LINE"
);
},
{
closed = 1;
nodes = (
"532 666 LINE",
"532 700 LINE",
"52 700 LINE",
"52 666 LINE"
);
}
);
width = 585;
}
);
leftKerningGroup = T;
rightKerningGroup = T;
unicode = 0054;
},
{
glyphname = Tbar;
layers = (
{
layerId = "306713D8-4F8C-486F-A8A4-9DD13D5E83DB";
paths = (
{
closed = 1;
nodes = (
"393 0 LINE",
"393 700 LINE",
"203 700 LINE",
"203 0 LINE"
);
},
{
closed = 1;
nodes = (
"566 535 LINE",
"566 700 LINE",
"30 700 LINE",
"30 535 LINE"
);
},
{
closed = 1;
nodes = (
"526 282 LINE",
"526 402 LINE",
"70 402 LINE",
"70 282 LINE"
);
}
);
width = 596;
},
{
layerId = "9DFE6445-7062-4987-A7C3-244173BC9CEA";
paths = (
{
closed = 1;
nodes = (
"309 0 LINE",
"309 700 LINE",
"275 700 LINE",
"275 0 LINE"
);
},
{
closed = 1;
nodes = (
"532 666 LINE",
"532 700 LINE",
"52 700 LINE",
"52 666 LINE"
);
},
{
closed = 1;
nodes = (
"492 391 LINE",
"492 425 LINE",
"92 425 LINE",
"92 391 LINE"
);
}
);
width = 584;
}
);
unicode = 0166;
},
{
glyphname = U;
layers = (
{
anchors = (
{
name = bottom;
position = "{342, 0}";
},
{
name = ogonek;
position = "{457, 49}";
},
{
name = top;
position = "{342, 700}";
},
{
name = topright;
position = "{640, 494}";
}
);
guideLines = (
{
angle = 90;
position = "{235, 0}";
},
{
position = "{0, -10}";
},
{
angle = 90;
position = "{344, 0}";
},
{
angle = 90;
position = "{342, 0}";
},
{
angle = 90;
position = "{451, 0}";
}
);
layerId = "306713D8-4F8C-486F-A8A4-9DD13D5E83DB";
paths = (
{
closed = 1;
nodes = (
"484 -10 OFFCURVE",
"640 54 OFFCURVE",
"640 305 CURVE SMOOTH",
"640 700 LINE",
"451 700 LINE",
"451 320 LINE SMOOTH",
"451 215 OFFCURVE",
"414 171 OFFCURVE",
"343 171 CURVE SMOOTH",
"270 171 OFFCURVE",
"235 215 OFFCURVE",
"235 320 CURVE SMOOTH",
"235 700 LINE",
"45 700 LINE",
"45 305 LINE SMOOTH",
"45 53 OFFCURVE",
"202 -10 OFFCURVE",
"343 -10 CURVE SMOOTH"
);
}
);
width = 685;
},
{
anchors = (
{
name = bottom;
position = "{344, 0}";
},
{
name = ogonek;
position = "{406, 18}";
},
{
name = top;
position = "{343, 700}";
},
{
name = topright;
position = "{642, 700}";
}
);
guideLines = (
{
angle = 90;
position = "{550, 0}";
},
{
angle = 90;
position = "{133, 0}";
},
{
position = "{0, 42}";
}
);
layerId = "9DFE6445-7062-4987-A7C3-244173BC9CEA";
paths = (
{
closed = 1;
nodes = (
"537 -9 OFFCURVE",
"607 131 OFFCURVE",
"607 310 CURVE SMOOTH",
"607 700 LINE",
"574 700 LINE",
"574 306 LINE SMOOTH",
"574 247 OFFCURVE",
"569 25 OFFCURVE",
"343 25 CURVE SMOOTH",
"111 25 OFFCURVE",
"108 253 OFFCURVE",
"108 306 CURVE SMOOTH",
"108 700 LINE",
"75 700 LINE",
"75 310 LINE SMOOTH",
"75 134 OFFCURVE",
"143 -9 OFFCURVE",
"343 -9 CURVE SMOOTH"
);
}
);
width = 683;
}
);
leftKerningGroup = U;
rightKerningGroup = U;
unicode = 0055;
},
{
glyphname = V;
layers = (
{
guideLines = (
{
angle = 105.96;
position = "{268, 454}";
},
{
angle = 73.05;
position = "{565, 344}";
},
{
angle = 287.03;
position = "{116, 344}";
}
);
layerId = "306713D8-4F8C-486F-A8A4-9DD13D5E83DB";
paths = (
{
closed = 1;
nodes = (
"460 -1 LINE",
"674 700 LINE",
"484 700 LINE",
"344 207 LINE",
"338 207 LINE",
"197 700 LINE",
"7 700 LINE",
"221 -1 LINE"
);
}
);
width = 680;
},
{
guideLines = (
{
angle = 90;
position = "{305, 0}";
},
{
angle = 290.19;
position = "{149, 344}";
},
{
angle = 69.81;
position = "{462, 344}";
}
);
layerId = "9DFE6445-7062-4987-A7C3-244173BC9CEA";
paths = (
{
closed = 1;
nodes = (
"335 0 LINE",
"592 700 LINE",
"556 700 LINE",
"308 27 LINE",
"302 27 LINE",
"54 700 LINE",
"18 700 LINE",
"275 0 LINE"
);
}
);
width = 610;
}
);
leftKerningGroup = V;
rightKerningGroup = V;
unicode = 0056;
},
{
glyphname = W;
layers = (
{
anchors = (
{
name = bottom;
position = "{499, 0}";
},
{
name = top;
position = "{499, 700}";
}
);
guideLines = (
{
angle = 90;
position = "{156, 0}";
},
{
angle = 90;
position = "{983, 0}";
},
{
angle = 90;
position = "{499, 0}";
},
{
angle = 90;
position = "{499, 0}";
},
{
angle = 283.78;
position = "{95, 344}";
},
{
angle = 76.14;
position = "{904, 344}";
}
);
layerId = "306713D8-4F8C-486F-A8A4-9DD13D5E83DB";
paths = (
{
closed = 1;
nodes = (
"399 -1 LINE",
"496 354 LINE",
"502 354 LINE",
"599 -1 LINE",
"819 -1 LINE",
"992 700 LINE",
"801 700 LINE",
"712 258 LINE",
"706 258 LINE",
"581 700 LINE",
"416 700 LINE",
"291 258 LINE",
"285 258 LINE",
"198 700 LINE",
"8 700 LINE",
"179 -1 LINE"
);
}
);
width = 999;
},
{
anchors = (
{
name = bottom;
position = "{495, 0}";
},
{
name = top;
position = "{495, 700}";
}
);
guideLines = (
{
angle = 90;
position = "{495, 0}";
},
{
position = "{0, 700}";
},
{
position = "{0, 0}";
},
{
position = "{0, 77}";
},
{
position = "{0, 26}";
},
{
angle = 105.56;
position = "{110, 370}";
},
{
angle = 105.56;
position = "{153, 370}";
},
{
angle = 251.23;
position = "{393, 357}";
},
{
angle = 251.23;
position = "{364, 363}";
},
{
angle = 74.41;
position = "{872, 344}";
}
);
layerId = "9DFE6445-7062-4987-A7C3-244173BC9CEA";
paths = (
{
closed = 1;
nodes = (
"275 0 LINE",
"492 647 LINE",
"498 647 LINE",
"715 0 LINE",
"776 0 LINE",
"971 700 LINE",
"937 700 LINE",
"747 26 LINE",
"741 26 LINE",
"513 700 LINE",
"478 700 LINE",
"249 26 LINE",
"243 26 LINE",
"53 700 LINE",
"18 700 LINE",
"214 0 LINE"
);
}
);
width = 990;
}
);
leftKerningGroup = V;
rightKerningGroup = V;
unicode = 0057;
},
{
glyphname = X;
layers = (
{
guideLines = (
{
angle = 57.19;
position = "{565, 518}";
},
{
angle = 302.33;
position = "{131, 518}";
},
{
angle = 237.67;
position = "{131, 183}";
},
{
angle = 122.81;
position = "{565, 183}";
}
);
layerId = "306713D8-4F8C-486F-A8A4-9DD13D5E83DB";
paths = (
{
closed = 1;
nodes = (
"222 0 LINE",
"345 217 LINE",
"351 217 LINE",
"476 0 LINE",
"683 0 LINE",
"457 350 LINE",
"682 700 LINE",
"476 700 LINE",
"351 484 LINE",
"345 484 LINE",
"222 700 LINE",
"16 700 LINE",
"237 350 LINE",
"15 0 LINE"
);
}
);
width = 693;
},
{
guideLines = (
{
angle = 235.64;
position = "{177, 183}";
},
{
angle = 124.;
position = "{466, 183}";
},
{
angle = 56.;
position = "{466, 518}";
},
{
angle = 304.36;
position = "{177, 518}";
}
);
layerId = "9DFE6445-7062-4987-A7C3-244173BC9CEA";
paths = (
{
closed = 1;
nodes = (
"94 0 LINE",
"319 325 LINE",
"325 325 LINE",
"546 0 LINE",
"589 0 LINE",
"353 350 LINE",
"589 700 LINE",
"546 700 LINE",
"325 374 LINE",
"319 374 LINE",
"94 700 LINE",
"53 700 LINE",
"291 350 LINE",
"52 0 LINE"
);
}
);
width = 640;
}
);
leftKerningGroup = X;
rightKerningGroup = X;
unicode = 0058;
},
{
glyphname = Y;
layers = (
{
anchors = (
{
name = bottom;
position = "{339, 0}";
},
{
name = top;
position = "{339, 700}";
},
{
name = topleft;
position = "{20, 700}";
}
);
guideLines = (
{
angle = 90;
position = "{342, 0}";
},
{
angle = 296.31;
position = "{134, 462}";
},
{
angle = 63.69;
position = "{550, 462}";
}
);
layerId = "306713D8-4F8C-486F-A8A4-9DD13D5E83DB";
paths = (
{
closed = 1;
nodes = (
"436 232 LINE",
"668 700 LINE",
"471 700 LINE",
"344 417 LINE",
"339 417 LINE",
"212 700 LINE",
"16 700 LINE",
"247 232 LINE",
"247 0 LINE",
"436 0 LINE"
);
}
);
width = 673;
},
{
anchors = (
{
name = bottom;
position = "{288, 0}";
},
{
name = top;
position = "{288, 700}";
},
{
name = topleft;
position = "{20, 700}";
}
);
guideLines = (
{
angle = 90;
position = "{288, 0}";
},
{
angle = 297.58;
position = "{159, 478}";
},
{
angle = 62.53;
position = "{416, 478}";
}
);
layerId = "9DFE6445-7062-4987-A7C3-244173BC9CEA";
paths = (
{
closed = 1;
nodes = (
"305 264 LINE",
"530 700 LINE",
"487 700 LINE",
"292 317 LINE",
"284 317 LINE",
"86 700 LINE",
"43 700 LINE",
"270 264 LINE",
"270 -1 LINE",
"305 0 LINE"
);
}
);
width = 585;
}
);
leftKerningGroup = Y;
rightKerningGroup = Y;
unicode = 0059;
},
{
glyphname = Z;
layers = (
{
anchors = (
{
name = bottom;
position = "{319, 0}";
},
{
name = center;
position = "{319, 350}";
},
{
name = top;
position = "{319, 700}";
}
);
layerId = "306713D8-4F8C-486F-A8A4-9DD13D5E83DB";
paths = (
{
closed = 1;
nodes = (
"591 0 LINE",
"591 171 LINE",
"262 171 LINE",
"262 173 LINE",
"591 530 LINE",
"591 700 LINE",
"39 700 LINE",
"39 530 LINE",
"366 530 LINE",
"366 528 LINE",
"39 171 LINE",
"39 0 LINE"
);
}
);
width = 637;
},
{
anchors = (
{
name = bottom;
position = "{300, 0}";
},
{
name = center;
position = "{300, 350}";
},
{
name = top;
position = "{300, 700}";
}
);
layerId = "9DFE6445-7062-4987-A7C3-244173BC9CEA";
paths = (
{
closed = 1;
nodes = (
"525 0 LINE",
"525 35 LINE",
"104 35 LINE",
"104 37 LINE",
"525 665 LINE",
"525 700 LINE",
"59 700 LINE",
"59 665 LINE",
"480 665 LINE",
"480 663 LINE",
"59 35 LINE",
"59 0 LINE"
);
}
);
width = 600;
}
);
unicode = 005A;
},
{
glyphname = B.ss01;
layers = (
{
guideLines = (
{
position = "{0, 225}";
},
{
position = "{0, 184}";
},
{
position = "{0, 550}";
},
{
position = "{0, 509}";
}
);
layerId = "306713D8-4F8C-486F-A8A4-9DD13D5E83DB";
paths = (
{
closed = 1;
nodes = (
"377 -1 LINE SMOOTH",
"522 -1 OFFCURVE",
"586 96 OFFCURVE",
"586 184 CURVE SMOOTH",
"586 225 LINE SMOOTH",
"586 318 OFFCURVE",
"510 365 OFFCURVE",
"457 373 CURVE",
"457 381 LINE",
"494 392 OFFCURVE",
"542 431 OFFCURVE",
"542 509 CURVE SMOOTH",
"542 550 LINE SMOOTH",
"542 639 OFFCURVE",
"486 700 OFFCURVE",
"365 700 CURVE SMOOTH",
"40 700 LINE",
"40 -1 LINE"
);
},
{
closed = 1;
nodes = (
"228 552 LINE",
"313 552 LINE SMOOTH",
"360 552 OFFCURVE",
"371 525 OFFCURVE",
"371 502 CURVE SMOOTH",
"371 476 LINE SMOOTH",
"371 455 OFFCURVE",
"360 426 OFFCURVE",
"313 426 CURVE SMOOTH",
"228 426 LINE"
);
},
{
closed = 1;
nodes = (
"228 294 LINE",
"346 294 LINE SMOOTH",
"401 294 OFFCURVE",
"415 263 OFFCURVE",
"415 236 CURVE SMOOTH",
"415 206 LINE SMOOTH",
"415 182 OFFCURVE",
"401 148 OFFCURVE",
"346 148 CURVE SMOOTH",
"228 148 LINE"
);
}
);
width = 616;
},
{
guideLines = (
{
position = "{0, 220}";
},
{
position = "{0, 169}";
}
);
layerId = "9DFE6445-7062-4987-A7C3-244173BC9CEA";
paths = (
{
closed = 1;
nodes = (
"370 0 LINE SMOOTH",
"519 0 OFFCURVE",
"570 80 OFFCURVE",
"570 163 CURVE SMOOTH",
"570 214 LINE SMOOTH",
"570 334 OFFCURVE",
"444 358 OFFCURVE",
"415 359 CURVE",
"415 363 LINE",
"449 367 OFFCURVE",
"545 406 OFFCURVE",
"545 499 CURVE SMOOTH",
"545 550 LINE SMOOTH",
"545 620 OFFCURVE",
"496 700 OFFCURVE",
"360 700 CURVE SMOOTH",
"92 700 LINE",
"92 0 LINE"
);
},
{
closed = 1;
nodes = (
"124 667 LINE",
"360 667 LINE SMOOTH",
"461 667 OFFCURVE",
"508 613 OFFCURVE",
"508 539 CURVE SMOOTH",
"508 503 LINE SMOOTH",
"508 429 OFFCURVE",
"449 375 OFFCURVE",
"348 375 CURVE SMOOTH",
"124 375 LINE"
);
},
{
closed = 1;
nodes = (
"124 341 LINE",
"376 341 LINE SMOOTH",
"485 341 OFFCURVE",
"533 284 OFFCURVE",
"533 207 CURVE SMOOTH",
"533 169 LINE SMOOTH",
"533 92 OFFCURVE",
"494 35 OFFCURVE",
"370 35 CURVE SMOOTH",
"124 35 LINE"
);
}
);
width = 615;
}
);
leftKerningGroup = h;
rightKerningGroup = B;
},
{
glyphname = C.ss01;
layers = (
{
layerId = "306713D8-4F8C-486F-A8A4-9DD13D5E83DB";
paths = (
{
closed = 1;
nodes = (
"516 -10 OFFCURVE",
"615 111 OFFCURVE",
"640 253 CURVE",
"452 253 LINE",
"443 211 OFFCURVE",
"417 151 OFFCURVE",
"340 151 CURVE SMOOTH",
"258 151 OFFCURVE",
"220 213 OFFCURVE",
"220 319 CURVE SMOOTH",
"220 384 LINE SMOOTH",
"220 493 OFFCURVE",
"259 554 OFFCURVE",
"340 554 CURVE SMOOTH",
"413 554 OFFCURVE",
"444 497 OFFCURVE",
"453 449 CURVE",
"642 449 LINE",
"616 592 OFFCURVE",
"517 713 OFFCURVE",
"340 714 CURVE SMOOTH",
"151 716 OFFCURVE",
"30 580 OFFCURVE",
"30 387 CURVE SMOOTH",
"30 317 LINE SMOOTH",
"30 122 OFFCURVE",
"150 -10 OFFCURVE",
"337 -10 CURVE SMOOTH"
);
}
);
width = 672;
},
{
guideLines = (
{
position = "{0, 716}";
}
);
layerId = "9DFE6445-7062-4987-A7C3-244173BC9CEA";
paths = (
{
closed = 1;
nodes = (
"500 -5 OFFCURVE",
"600 74 OFFCURVE",
"629 205 CURVE",
"592 205 LINE",
"564 95 OFFCURVE",
"486 29 OFFCURVE",
"353 29 CURVE SMOOTH",
"180 29 OFFCURVE",
"97 159 OFFCURVE",
"97 317 CURVE SMOOTH",
"97 393 LINE SMOOTH",
"97 551 OFFCURVE",
"180 681 OFFCURVE",
"353 681 CURVE SMOOTH",
"486 681 OFFCURVE",
"578 605 OFFCURVE",
"601 479 CURVE",
"637 479 LINE",
"613 626 OFFCURVE",
"510 715 OFFCURVE",
"356 715 CURVE SMOOTH",
"165 715 OFFCURVE",
"62 574 OFFCURVE",
"62 403 CURVE SMOOTH",
"62 307 LINE SMOOTH",
"62 136 OFFCURVE",
"165 -5 OFFCURVE",
"356 -5 CURVE SMOOTH"
);
}
);
width = 699;
}
);
leftKerningGroup = O;
rightKerningGroup = O;
},
{
glyphname = D.ss01;
layers = (
{
guideLines = (
{
position = "{0, 318}";
},
{
position = "{0, 386}";
}
);
layerId = "306713D8-4F8C-486F-A8A4-9DD13D5E83DB";
paths = (
{
closed = 1;
nodes = (
"307 0 LINE SMOOTH",
"511 0 OFFCURVE",
"618 142 OFFCURVE",
"618 318 CURVE SMOOTH",
"618 386 LINE SMOOTH",
"618 558 OFFCURVE",
"515 698 OFFCURVE",
"307 700 CURVE SMOOTH",
"40 702 LINE",
"40 0 LINE"
);
},
{
closed = 1;
nodes = (
"225 535 LINE",
"307 535 LINE SMOOTH",
"390 535 OFFCURVE",
"429 476 OFFCURVE",
"429 383 CURVE SMOOTH",
"429 320 LINE SMOOTH",
"429 228 OFFCURVE",
"390 167 OFFCURVE",
"307 167 CURVE SMOOTH",
"225 167 LINE"
);
}
);
width = 648;
},
{
guideLines = (
{
position = "{0, 396}";
},
{
position = "{0, 303}";
}
);
layerId = "9DFE6445-7062-4987-A7C3-244173BC9CEA";
paths = (
{
closed = 1;
nodes = (
"333 0 LINE SMOOTH",
"524 0 OFFCURVE",
"627 137 OFFCURVE",
"627 303 CURVE SMOOTH",
"627 396 LINE SMOOTH",
"627 563 OFFCURVE",
"524 700 OFFCURVE",
"333 700 CURVE SMOOTH",
"92 700 LINE",
"92 0 LINE"
);
},
{
closed = 1;
nodes = (
"126 667 LINE",
"333 667 LINE SMOOTH",
"510 667 OFFCURVE",
"592 540 OFFCURVE",
"592 387 CURVE SMOOTH",
"592 313 LINE SMOOTH",
"592 160 OFFCURVE",
"510 33 OFFCURVE",
"333 33 CURVE SMOOTH",
"126 33 LINE"
);
}
);
width = 677;
}
);
},
{
glyphname = Eth.ss01;
layers = (
{
layerId = "306713D8-4F8C-486F-A8A4-9DD13D5E83DB";
paths = (
{
closed = 1;
nodes = (
"328 296 LINE",
"328 421 LINE",
"25 421 LINE",
"25 296 LINE"
);
},
{
closed = 1;
nodes = (
"338 1 LINE SMOOTH",
"542 1 OFFCURVE",
"649 142 OFFCURVE",
"649 318 CURVE SMOOTH",
"649 386 LINE SMOOTH",
"649 560 OFFCURVE",
"543 697 OFFCURVE",
"338 699 CURVE SMOOTH",
"71 701 LINE",
"71 1 LINE"
);
},
{
closed = 1;
nodes = (
"256 534 LINE",
"338 534 LINE SMOOTH",
"421 534 OFFCURVE",
"460 476 OFFCURVE",
"460 383 CURVE SMOOTH",
"460 320 LINE SMOOTH",
"460 228 OFFCURVE",
"421 168 OFFCURVE",
"338 168 CURVE SMOOTH",
"256 168 LINE"
);
}
);
width = 679;
},
{
layerId = "9DFE6445-7062-4987-A7C3-244173BC9CEA";
paths = (
{
closed = 1;
nodes = (
"318 342 LINE",
"318 370 LINE",
"57 370 LINE",
"57 342 LINE"
);
},
{
closed = 1;
nodes = (
"359 0 LINE SMOOTH",
"550 0 OFFCURVE",
"653 137 OFFCURVE",
"653 303 CURVE SMOOTH",
"653 396 LINE SMOOTH",
"653 563 OFFCURVE",
"550 700 OFFCURVE",
"359 700 CURVE SMOOTH",
"118 700 LINE",
"118 0 LINE"
);
},
{
closed = 1;
nodes = (
"152 667 LINE",
"359 667 LINE SMOOTH",
"536 667 OFFCURVE",
"618 540 OFFCURVE",
"618 387 CURVE SMOOTH",
"618 313 LINE SMOOTH",
"618 160 OFFCURVE",
"536 33 OFFCURVE",
"359 33 CURVE SMOOTH",
"152 33 LINE"
);
}
);
width = 703;
}
);
rightKerningGroup = O;
},
{
glyphname = Dcroat.ss01;
layers = (
{
guideLines = (
{
angle = 90;
position = "{71, 0}";
}
);
layerId = "306713D8-4F8C-486F-A8A4-9DD13D5E83DB";
paths = (
{
closed = 1;
nodes = (
"328 296 LINE",
"328 421 LINE",
"25 421 LINE",
"25 296 LINE"
);
},
{
closed = 1;
nodes = (
"338 1 LINE SMOOTH",
"542 1 OFFCURVE",
"649 142 OFFCURVE",
"649 318 CURVE SMOOTH",
"649 386 LINE SMOOTH",
"649 560 OFFCURVE",
"543 697 OFFCURVE",
"338 699 CURVE SMOOTH",
"71 701 LINE",
"71 1 LINE"
);
},
{
closed = 1;
nodes = (
"256 534 LINE",
"338 534 LINE SMOOTH",
"421 534 OFFCURVE",
"460 476 OFFCURVE",
"460 383 CURVE SMOOTH",
"460 320 LINE SMOOTH",
"460 228 OFFCURVE",
"421 168 OFFCURVE",
"338 168 CURVE SMOOTH",
"256 168 LINE"
);
}
);
width = 679;
},
{
guideLines = (
{
angle = 90;
position = "{654, 0}";
},
{
angle = 90;
position = "{118, 0}";
}
);
layerId = "9DFE6445-7062-4987-A7C3-244173BC9CEA";
paths = (
{
closed = 1;
nodes = (
"318 342 LINE",
"318 370 LINE",
"57 370 LINE",
"57 342 LINE"
);
},
{
closed = 1;
nodes = (
"359 0 LINE SMOOTH",
"550 0 OFFCURVE",
"653 137 OFFCURVE",
"653 303 CURVE SMOOTH",
"653 396 LINE SMOOTH",
"653 563 OFFCURVE",
"550 700 OFFCURVE",
"359 700 CURVE SMOOTH",
"118 700 LINE",
"118 0 LINE"
);
},
{
closed = 1;
nodes = (
"152 667 LINE",
"359 667 LINE SMOOTH",
"536 667 OFFCURVE",
"618 540 OFFCURVE",
"618 387 CURVE SMOOTH",
"618 313 LINE SMOOTH",
"618 160 OFFCURVE",
"536 33 OFFCURVE",
"359 33 CURVE SMOOTH",
"152 33 LINE"
);
}
);
width = 703;
}
);
rightKerningGroup = O;
},
{
glyphname = G.ss01;
layers = (
{
anchors = (
{
name = bottom;
position = "{349, 0}";
},
{
name = top;
position = "{345, 700}";
}
);
layerId = "306713D8-4F8C-486F-A8A4-9DD13D5E83DB";
paths = (
{
closed = 1;
nodes = (
"467 -10 OFFCURVE",
"499 76 OFFCURVE",
"507 91 CURVE",
"515 91 LINE",
"515 0 LINE",
"653 0 LINE",
"653 394 LINE",
"355 394 LINE",
"355 259 LINE",
"464 259 LINE",
"464 245 LINE SMOOTH",
"464 192 OFFCURVE",
"426 139 OFFCURVE",
"353 139 CURVE SMOOTH",
"270 139 OFFCURVE",
"225 190 OFFCURVE",
"225 319 CURVE SMOOTH",
"225 384 LINE SMOOTH",
"225 493 OFFCURVE",
"264 554 OFFCURVE",
"345 554 CURVE SMOOTH",
"413 554 OFFCURVE",
"444 505 OFFCURVE",
"456 460 CURVE",
"645 460 LINE",
"616 598 OFFCURVE",
"518 713 OFFCURVE",
"345 714 CURVE SMOOTH",
"156 715 OFFCURVE",
"35 580 OFFCURVE",
"35 387 CURVE SMOOTH",
"35 317 LINE SMOOTH",
"35 122 OFFCURVE",
"147 -10 OFFCURVE",
"324 -10 CURVE SMOOTH"
);
}
);
width = 698;
},
{
anchors = (
{
name = bottom;
position = "{352, 0}";
},
{
name = top;
position = "{355, 700}";
}
);
layerId = "9DFE6445-7062-4987-A7C3-244173BC9CEA";
paths = (
{
closed = 1;
nodes = (
"538 -5 OFFCURVE",
"591 129 OFFCURVE",
"591 129 CURVE",
"599 129 LINE",
"599 0 LINE",
"633 0 LINE",
"633 346 LINE",
"362 346 LINE",
"362 316 LINE",
"606 316 LINE",
"605 277 LINE SMOOTH",
"601 129 OFFCURVE",
"505 29 OFFCURVE",
"355 29 CURVE SMOOTH",
"180 29 OFFCURVE",
"97 159 OFFCURVE",
"97 317 CURVE SMOOTH",
"97 393 LINE SMOOTH",
"97 551 OFFCURVE",
"180 681 OFFCURVE",
"355 681 CURVE SMOOTH",
"486 681 OFFCURVE",
"578 605 OFFCURVE",
"601 479 CURVE",
"637 479 LINE",
"613 626 OFFCURVE",
"510 715 OFFCURVE",
"355 715 CURVE SMOOTH",
"165 715 OFFCURVE",
"62 574 OFFCURVE",
"62 403 CURVE SMOOTH",
"62 307 LINE SMOOTH",
"62 136 OFFCURVE",
"165 -5 OFFCURVE",
"355 -5 CURVE SMOOTH"
);
}
);
width = 704;
}
);
leftKerningGroup = O;
},
{
glyphname = J.ss01;
layers = (
{
layerId = "306713D8-4F8C-486F-A8A4-9DD13D5E83DB";
paths = (
{
closed = 1;
nodes = (
"30 262 LINE",
"30 80 OFFCURVE",
"138 -10 OFFCURVE",
"280 -10 CURVE SMOOTH",
"424 -10 OFFCURVE",
"531 80 OFFCURVE",
"531 233 CURVE SMOOTH",
"531 702 LINE",
"342 699 LINE",
"342 233 LINE SMOOTH",
"342 159 OFFCURVE",
"303 151 OFFCURVE",
"280 151 CURVE SMOOTH",
"258 151 OFFCURVE",
"220 163 OFFCURVE",
"220 262 CURVE"
);
}
);
width = 581;
},
{
layerId = "9DFE6445-7062-4987-A7C3-244173BC9CEA";
paths = (
{
closed = 1;
nodes = (
"50 167 LINE",
"50 21 OFFCURVE",
"153 -5 OFFCURVE",
"216 -5 CURVE SMOOTH",
"279 -5 OFFCURVE",
"382 21 OFFCURVE",
"382 167 CURVE SMOOTH",
"382 700 LINE",
"347 700 LINE",
"347 167 LINE SMOOTH",
"347 44 OFFCURVE",
"265 29 OFFCURVE",
"216 29 CURVE SMOOTH",
"167 29 OFFCURVE",
"85 44 OFFCURVE",
"85 167 CURVE"
);
}
);
width = 477;
}
);
rightKerningGroup = U;
},
{
glyphname = O.ss01;
layers = (
{
anchors = (
{
name = bottom;
position = "{340, 0}";
},
{
name = center;
position = "{343, 350}";
},
{
name = ogonek;
position = "{617, 10}";
},
{
name = top;
position = "{340, 700}";
},
{
name = topleft;
position = "{20, 700}";
},
{
name = topright;
position = "{556, 493}";
}
);
guideLines = (
{
position = "{0, -10}";
},
{
position = "{0, 159}";
},
{
position = "{0, 545}";
},
{
angle = 90;
position = "{234, 0}";
},
{
angle = 90;
position = "{30, 80}";
},
{
position = "{0, 714}";
}
);
layerId = "306713D8-4F8C-486F-A8A4-9DD13D5E83DB";
paths = (
{
closed = 1;
nodes = (
"544 -10 OFFCURVE",
"651 135 OFFCURVE",
"651 317 CURVE SMOOTH",
"651 387 LINE SMOOTH",
"651 567 OFFCURVE",
"545 714 OFFCURVE",
"340 714 CURVE SMOOTH",
"136 714 OFFCURVE",
"30 567 OFFCURVE",
"30 387 CURVE SMOOTH",
"30 317 LINE SMOOTH",
"30 134 OFFCURVE",
"138 -10 OFFCURVE",
"340 -10 CURVE SMOOTH"
);
},
{
closed = 1;
nodes = (
"258 151 OFFCURVE",
"220 213 OFFCURVE",
"220 319 CURVE SMOOTH",
"220 384 LINE SMOOTH",
"220 493 OFFCURVE",
"259 554 OFFCURVE",
"340 554 CURVE SMOOTH",
"423 554 OFFCURVE",
"462 492 OFFCURVE",
"462 384 CURVE SMOOTH",
"462 319 LINE SMOOTH",
"462 213 OFFCURVE",
"423 151 OFFCURVE",
"340 151 CURVE SMOOTH"
);
}
);
width = 686;
},
{
anchors = (
{
name = bottom;
position = "{356, 0}";
},
{
name = center;
position = "{356, 350}";
},
{
name = ogonek;
position = "{641, 10}";
},
{
name = top;
position = "{356, 700}";
},
{
name = topleft;
position = "{20, 700}";
},
{
name = topright;
position = "{527, 700}";
}
);
guideLines = (
{
position = "{0, 713}";
},
{
position = "{0, 713}";
},
{
position = "{0, -7}";
}
);
layerId = "9DFE6445-7062-4987-A7C3-244173BC9CEA";
paths = (
{
closed = 1;
nodes = (
"547 -5 OFFCURVE",
"650 136 OFFCURVE",
"650 307 CURVE SMOOTH",
"650 403 LINE SMOOTH",
"650 574 OFFCURVE",
"547 715 OFFCURVE",
"356 715 CURVE SMOOTH",
"165 715 OFFCURVE",
"62 574 OFFCURVE",
"62 403 CURVE SMOOTH",
"62 307 LINE SMOOTH",
"62 136 OFFCURVE",
"165 -5 OFFCURVE",
"356 -5 CURVE SMOOTH"
);
},
{
closed = 1;
nodes = (
"179 29 OFFCURVE",
"97 159 OFFCURVE",
"97 317 CURVE SMOOTH",
"97 393 LINE SMOOTH",
"97 551 OFFCURVE",
"179 681 OFFCURVE",
"356 681 CURVE SMOOTH",
"533 681 OFFCURVE",
"615 551 OFFCURVE",
"615 393 CURVE SMOOTH",
"615 317 LINE SMOOTH",
"615 159 OFFCURVE",
"533 29 OFFCURVE",
"356 29 CURVE SMOOTH"
);
}
);
width = 712;
}
);
leftKerningGroup = O;
rightKerningGroup = O;
},
{
glyphname = Oslash.ss01;
layers = (
{
components = (
{
name = O.ss01;
transform = "{1, 0, 0, 1, 13, 0}";
alignment = -1;
}
);
layerId = "306713D8-4F8C-486F-A8A4-9DD13D5E83DB";
paths = (
{
closed = 1;
nodes = (
"202 -43 LINE",
"706 743 LINE",
"535 743 LINE",
"31 -43 LINE"
);
}
);
width = 737;
},
{
components = (
{
name = O.ss01;
transform = "{1, 0, 0, 1, -1, 0}";
alignment = -1;
}
);
layerId = "9DFE6445-7062-4987-A7C3-244173BC9CEA";
paths = (
{
closed = 1;
nodes = (
"139 -43 LINE",
"643 743 LINE",
"606 743 LINE",
"102 -43 LINE"
);
}
);
width = 710;
}
);
},
{
glyphname = OE.ss01;
layers = (
{
guideLines = (
{
position = "{0, 534}";
},
{
position = "{0, 171}";
}
);
layerId = "306713D8-4F8C-486F-A8A4-9DD13D5E83DB";
paths = (
{
closed = 1;
nodes = (
"930 0 LINE",
"930 165 LINE",
"628 165 LINE",
"628 280 LINE",
"875 280 LINE",
"875 427 LINE",
"628 427 LINE",
"628 535 LINE",
"930 535 LINE",
"930 700 LINE",
"341 700 LINE",
"133 698 OFFCURVE",
"30 558 OFFCURVE",
"30 386 CURVE SMOOTH",
"30 318 LINE SMOOTH",
"30 142 OFFCURVE",
"137 0 OFFCURVE",
"341 0 CURVE SMOOTH"
);
},
{
closed = 1;
nodes = (
"341 170 LINE SMOOTH",
"258 170 OFFCURVE",
"219 228 OFFCURVE",
"219 320 CURVE SMOOTH",
"219 383 LINE SMOOTH",
"219 476 OFFCURVE",
"258 533 OFFCURVE",
"341 533 CURVE SMOOTH",
"436 533 LINE",
"436 170 LINE"
);
}
);
width = 960;
},
{
layerId = "9DFE6445-7062-4987-A7C3-244173BC9CEA";
paths = (
{
closed = 1;
nodes = (
"860 0 LINE",
"860 34 LINE",
"494 34 LINE",
"494 343 LINE",
"825 343 LINE",
"825 375 LINE",
"494 375 LINE",
"494 666 LINE",
"860 666 LINE",
"860 700 LINE",
"344 700 LINE SMOOTH",
"153 700 OFFCURVE",
"50 563 OFFCURVE",
"50 396 CURVE SMOOTH",
"50 303 LINE SMOOTH",
"50 137 OFFCURVE",
"153 0 OFFCURVE",
"344 0 CURVE SMOOTH"
);
},
{
closed = 1;
nodes = (
"344 33 LINE SMOOTH",
"167 33 OFFCURVE",
"85 160 OFFCURVE",
"85 313 CURVE SMOOTH",
"85 387 LINE SMOOTH",
"85 540 OFFCURVE",
"167 667 OFFCURVE",
"344 667 CURVE SMOOTH",
"460 667 LINE",
"460 33 LINE"
);
}
);
width = 939;
}
);
leftKerningGroup = O;
rightKerningGroup = E;
},
{
glyphname = P.ss01;
leftMetricsKey = P;
rightMetricsKey = P;
layers = (
{
guideLines = (
{
position = "{0, 199}";
},
{
position = "{0, 33}";
},
{
position = "{0, 530}";
},
{
position = "{0, 364}";
}
);
layerId = "306713D8-4F8C-486F-A8A4-9DD13D5E83DB";
paths = (
{
closed = 1;
nodes = (
"320 203 LINE SMOOTH",
"492 203 OFFCURVE",
"586 306 OFFCURVE",
"586 433 CURVE SMOOTH",
"586 472 LINE SMOOTH",
"586 599 OFFCURVE",
"493 700 OFFCURVE",
"320 700 CURVE SMOOTH",
"40 700 LINE",
"40 203 LINE"
);
},
{
closed = 1;
nodes = (
"225 534 LINE",
"320 534 LINE SMOOTH",
"371 534 OFFCURVE",
"397 498 OFFCURVE",
"397 469 CURVE SMOOTH",
"397 435 LINE SMOOTH",
"397 407 OFFCURVE",
"371 369 OFFCURVE",
"320 369 CURVE SMOOTH",
"225 369 LINE"
);
},
{
closed = 1;
nodes = (
"228 0 LINE",
"228 700 LINE",
"40 700 LINE",
"40 0 LINE"
);
}
);
width = 591;
},
{
layerId = "9DFE6445-7062-4987-A7C3-244173BC9CEA";
paths = (
{
closed = 1;
nodes = (
"303 220 LINE SMOOTH",
"469 220 OFFCURVE",
"538 306 OFFCURVE",
"538 413 CURVE SMOOTH",
"538 506 LINE SMOOTH",
"538 614 OFFCURVE",
"469 700 OFFCURVE",
"303 700 CURVE SMOOTH",
"92 700 LINE",
"92 220 LINE"
);
},
{
closed = 1;
nodes = (
"126 667 LINE",
"303 667 LINE SMOOTH",
"451 667 OFFCURVE",
"503 591 OFFCURVE",
"503 506 CURVE SMOOTH",
"503 413 LINE SMOOTH",
"503 329 OFFCURVE",
"451 253 OFFCURVE",
"303 253 CURVE SMOOTH",
"126 253 LINE"
);
},
{
closed = 1;
nodes = (
"124 0 LINE",
"124 700 LINE",
"92 700 LINE",
"92 0 LINE"
);
}
);
width = 580;
}
);
leftKerningGroup = h;
},
{
glyphname = Q.ss01;
layers = (
{
layerId = "306713D8-4F8C-486F-A8A4-9DD13D5E83DB";
paths = (
{
closed = 1;
nodes = (
"544 -10 OFFCURVE",
"651 135 OFFCURVE",
"651 317 CURVE SMOOTH",
"651 387 LINE SMOOTH",
"651 567 OFFCURVE",
"545 714 OFFCURVE",
"340 714 CURVE SMOOTH",
"136 714 OFFCURVE",
"30 567 OFFCURVE",
"30 387 CURVE SMOOTH",
"30 317 LINE SMOOTH",
"30 134 OFFCURVE",
"138 -10 OFFCURVE",
"340 -10 CURVE SMOOTH"
);
},
{
closed = 1;
nodes = (
"645 -33 LINE",
"419 282 LINE",
"258 282 LINE",
"484 -33 LINE"
);
},
{
closed = 1;
nodes = (
"258 151 OFFCURVE",
"220 213 OFFCURVE",
"220 319 CURVE SMOOTH",
"220 384 LINE SMOOTH",
"220 493 OFFCURVE",
"259 554 OFFCURVE",
"340 554 CURVE SMOOTH",
"423 554 OFFCURVE",
"462 492 OFFCURVE",
"462 384 CURVE SMOOTH",
"462 319 LINE SMOOTH",
"462 213 OFFCURVE",
"423 151 OFFCURVE",
"340 151 CURVE SMOOTH"
);
}
);
width = 681;
},
{
layerId = "9DFE6445-7062-4987-A7C3-244173BC9CEA";
paths = (
{
closed = 1;
nodes = (
"547 -5 OFFCURVE",
"650 136 OFFCURVE",
"650 307 CURVE SMOOTH",
"650 403 LINE SMOOTH",
"650 574 OFFCURVE",
"547 715 OFFCURVE",
"356 715 CURVE SMOOTH",
"165 715 OFFCURVE",
"62 574 OFFCURVE",
"62 403 CURVE SMOOTH",
"62 307 LINE SMOOTH",
"62 136 OFFCURVE",
"165 -5 OFFCURVE",
"356 -5 CURVE SMOOTH"
);
},
{
closed = 1;
nodes = (
"650 -67 LINE",
"378 263 LINE",
"334 263 LINE",
"606 -67 LINE"
);
},
{
closed = 1;
nodes = (
"179 29 OFFCURVE",
"97 159 OFFCURVE",
"97 317 CURVE SMOOTH",
"97 393 LINE SMOOTH",
"97 551 OFFCURVE",
"179 681 OFFCURVE",
"356 681 CURVE SMOOTH",
"533 681 OFFCURVE",
"615 551 OFFCURVE",
"615 393 CURVE SMOOTH",
"615 317 LINE SMOOTH",
"615 159 OFFCURVE",
"533 29 OFFCURVE",
"356 29 CURVE SMOOTH"
);
}
);
width = 712;
}
);
leftKerningGroup = O;
rightKerningGroup = O;
},
{
glyphname = R.ss01;
leftMetricsKey = R;
rightMetricsKey = R;
layers = (
{
layerId = "306713D8-4F8C-486F-A8A4-9DD13D5E83DB";
paths = (
{
closed = 1;
nodes = (
"228 0 LINE",
"228 700 LINE",
"40 700 LINE",
"40 0 LINE"
);
},
{
closed = 1;
nodes = (
"601 0 LINE",
"455 282 LINE",
"272 259 LINE",
"405 0 LINE"
);
},
{
closed = 1;
nodes = (
"334 230 LINE SMOOTH",
"506 230 OFFCURVE",
"586 329 OFFCURVE",
"586 450 CURVE SMOOTH",
"586 483 LINE SMOOTH",
"586 603 OFFCURVE",
"507 700 OFFCURVE",
"334 700 CURVE SMOOTH",
"40 700 LINE",
"40 230 LINE"
);
},
{
closed = 1;
nodes = (
"225 535 LINE",
"334 535 LINE SMOOTH",
"385 535 OFFCURVE",
"397 503 OFFCURVE",
"397 480 CURVE SMOOTH",
"397 452 LINE SMOOTH",
"397 429 OFFCURVE",
"385 395 OFFCURVE",
"334 395 CURVE SMOOTH",
"225 395 LINE"
);
}
);
width = 610;
},
{
layerId = "9DFE6445-7062-4987-A7C3-244173BC9CEA";
paths = (
{
closed = 1;
nodes = (
"124 0 LINE",
"124 700 LINE",
"92 700 LINE",
"92 0 LINE"
);
},
{
closed = 1;
nodes = (
"541 0 LINE",
"330 282 LINE",
"290 279 LINE",
"497 0 LINE"
);
},
{
closed = 1;
nodes = (
"312 275 LINE SMOOTH",
"477 275 OFFCURVE",
"538 351 OFFCURVE",
"538 446 CURVE SMOOTH",
"538 528 LINE SMOOTH",
"538 623 OFFCURVE",
"478 700 OFFCURVE",
"312 700 CURVE SMOOTH",
"92 700 LINE",
"92 275 LINE"
);
},
{
closed = 1;
nodes = (
"126 669 LINE",
"312 669 LINE SMOOTH",
"460 669 OFFCURVE",
"503 602 OFFCURVE",
"503 528 CURVE SMOOTH",
"503 446 LINE SMOOTH",
"503 373 OFFCURVE",
"460 306 OFFCURVE",
"312 306 CURVE SMOOTH",
"126 306 LINE"
);
}
);
width = 602;
}
);
leftKerningGroup = h;
rightKerningGroup = nine;
},
{
glyphname = G.ss02;
layers = (
{
layerId = "306713D8-4F8C-486F-A8A4-9DD13D5E83DB";
paths = (
{
closed = 1;
nodes = (
"532 -10 OFFCURVE",
"656 91 OFFCURVE",
"656 246 CURVE SMOOTH",
"656 412 LINE",
"373 412 LINE",
"373 277 LINE",
"490 277 LINE",
"490 254 LINE SMOOTH",
"490 207 OFFCURVE",
"462 139 OFFCURVE",
"371 139 CURVE SMOOTH",
"277 139 OFFCURVE",
"227 213 OFFCURVE",
"227 343 CURVE SMOOTH",
"227 458 OFFCURVE",
"266 548 OFFCURVE",
"360 548 CURVE SMOOTH",
"421 548 OFFCURVE",
"454 511 OFFCURVE",
"467 465 CURVE",
"656 465 LINE",
"633 605 OFFCURVE",
"526 714 OFFCURVE",
"358 714 CURVE SMOOTH",
"143 714 OFFCURVE",
"35 536 OFFCURVE",
"35 348 CURVE SMOOTH",
"35 142 OFFCURVE",
"164 -10 OFFCURVE",
"367 -10 CURVE SMOOTH"
);
}
);
width = 696;
},
{
layerId = "9DFE6445-7062-4987-A7C3-244173BC9CEA";
paths = (
{
closed = 1;
nodes = (
"537 -5 OFFCURVE",
"651 99 OFFCURVE",
"651 277 CURVE SMOOTH",
"651 364 LINE",
"374 364 LINE",
"374 334 LINE",
"618 334 LINE",
"618 277 LINE SMOOTH",
"618 99 OFFCURVE",
"507 30 OFFCURVE",
"373 30 CURVE SMOOTH",
"210 30 OFFCURVE",
"98 151 OFFCURVE",
"98 355 CURVE SMOOTH",
"98 559 OFFCURVE",
"210 680 OFFCURVE",
"373 680 CURVE SMOOTH",
"507 680 OFFCURVE",
"581 609 OFFCURVE",
"611 505 CURVE",
"648 505 LINE",
"618 608 OFFCURVE",
"535 715 OFFCURVE",
"373 715 CURVE SMOOTH",
"139 715 OFFCURVE",
"62 518 OFFCURVE",
"62 357 CURVE SMOOTH",
"62 192 OFFCURVE",
"142 -5 OFFCURVE",
"373 -5 CURVE SMOOTH"
);
}
);
width = 701;
}
);
},
{
glyphname = a;
layers = (
{
anchors = (
{
name = bottom;
position = "{301, 0}";
},
{
name = ogonek;
position = "{599, 51}";
},
{
name = top;
position = "{308, 530}";
}
);
guideLines = (
{
angle = 90;
position = "{679, 0}";
},
{
angle = 90;
position = "{340, 0}";
},
{
position = "{0, -10}";
},
{
position = "{0, 21}";
},
{
angle = 90;
position = "{539, 0}";
},
{
position = "{0, 462}";
},
{
angle = 3.64;
position = "{388, 214}";
},
{
position = "{0, 53}";
},
{
position = "{0, 540}";
},
{
position = "{0, 37}";
},
{
angle = 90;
position = "{296, 0}";
},
{
angle = 90;
position = "{30, 0}";
},
{
angle = 90;
position = "{222, 0}";
},
{
angle = 184.;
position = "{295, 315}";
},
{
position = "{0, 400}";
},
{
position = "{0, 74}";
}
);
layerId = "306713D8-4F8C-486F-A8A4-9DD13D5E83DB";
paths = (
{
closed = 1;
nodes = (
"325 -10 OFFCURVE",
"359 63 OFFCURVE",
"364 74 CURVE",
"372 74 LINE",
"372 0 LINE",
"564 0 LINE",
"564 530 LINE",
"372 530 LINE",
"372 462 LINE",
"364 462 LINE",
"360 472 OFFCURVE",
"325 540 OFFCURVE",
"223 540 CURVE SMOOTH",
"98 540 OFFCURVE",
"25 436 OFFCURVE",
"25 264 CURVE SMOOTH",
"25 97 OFFCURVE",
"94 -10 OFFCURVE",
"221 -10 CURVE SMOOTH"
);
},
{
closed = 1;
nodes = (
"233 140 OFFCURVE",
"218 212 OFFCURVE",
"218 266 CURVE SMOOTH",
"218 319 OFFCURVE",
"233 389 OFFCURVE",
"296 389 CURVE SMOOTH",
"358 389 OFFCURVE",
"374 318 OFFCURVE",
"374 266 CURVE SMOOTH",
"374 212 OFFCURVE",
"357 140 OFFCURVE",
"296 140 CURVE SMOOTH"
);
}
);
width = 614;
},
{
anchors = (
{
name = bottom;
position = "{312, 0}";
},
{
name = ogonek;
position = "{571, 27}";
},
{
name = top;
position = "{305, 525}";
}
);
guideLines = (
{
angle = 90;
position = "{78, 0}";
},
{
position = "{0, 33}";
},
{
position = "{0, 103}";
},
{
angle = 90;
position = "{139, 0}";
},
{
angle = 90;
position = "{294, 0}";
},
{
angle = 183.69;
position = "{347, 251}";
},
{
angle = 183.69;
position = "{356, 263}";
},
{
angle = 183.69;
position = "{356, 300}";
},
{
position = "{0, -5}";
},
{
position = "{0, 507}";
},
{
position = "{0, 542}";
},
{
position = "{0, 416}";
},
{
angle = 90;
position = "{494, 0}";
},
{
angle = 90;
position = "{94, 0}";
},
{
angle = 90;
position = "{294, 0}";
}
);
layerId = "9DFE6445-7062-4987-A7C3-244173BC9CEA";
paths = (
{
closed = 1;
nodes = (
"394 -5 OFFCURVE",
"456 55 OFFCURVE",
"491 125 CURVE",
"498 125 LINE",
"498 0 LINE",
"532 0 LINE",
"532 525 LINE",
"498 525 LINE",
"498 413 LINE",
"491 413 LINE",
"459 478 OFFCURVE",
"401 542 OFFCURVE",
"295 542 CURVE SMOOTH",
"141 542 OFFCURVE",
"58 415 OFFCURVE",
"58 268 CURVE SMOOTH",
"58 121 OFFCURVE",
"141 -5 OFFCURVE",
"291 -5 CURVE SMOOTH"
);
},
{
closed = 1;
nodes = (
"160 31 OFFCURVE",
"94 137 OFFCURVE",
"94 269 CURVE SMOOTH",
"94 399 OFFCURVE",
"159 506 OFFCURVE",
"294 506 CURVE SMOOTH",
"426 506 OFFCURVE",
"494 401 OFFCURVE",
"494 268 CURVE SMOOTH",
"494 136 OFFCURVE",
"426 31 OFFCURVE",
"294 31 CURVE SMOOTH"
);
}
);
width = 623;
}
);
leftKerningGroup = o;
rightKerningGroup = a;
unicode = 0061;
},
{
glyphname = ae;
layers = (
{
guideLines = (
{
angle = 90;
position = "{411, 0}";
},
{
position = "{0, 211}";
},
{
position = "{0, 540}";
},
{
position = "{0, 493}";
},
{
angle = 90;
position = "{403, 0}";
},
{
position = "{0, 321}";
}
);
layerId = "306713D8-4F8C-486F-A8A4-9DD13D5E83DB";
paths = (
{
closed = 1;
nodes = (
"308 -10 OFFCURVE",
"370 25 OFFCURVE",
"403 70 CURVE",
"411 70 LINE",
"453 22 OFFCURVE",
"512 -10 OFFCURVE",
"599 -10 CURVE SMOOTH",
"739 -10 OFFCURVE",
"823 72 OFFCURVE",
"848 176 CURVE",
"662 176 LINE",
"653 155 OFFCURVE",
"630 138 OFFCURVE",
"595 138 CURVE SMOOTH",
"561 138 OFFCURVE",
"526 158 OFFCURVE",
"526 202 CURVE SMOOTH",
"526 212 LINE",
"851 212 LINE",
"851 264 LINE SMOOTH",
"851 448 OFFCURVE",
"750 540 OFFCURVE",
"605 540 CURVE SMOOTH",
"532 540 OFFCURVE",
"482 517 OFFCURVE",
"443 486 CURVE",
"435 486 LINE",
"398 516 OFFCURVE",
"351 540 OFFCURVE",
"273 540 CURVE SMOOTH",
"77 540 OFFCURVE",
"51 388 OFFCURVE",
"51 344 CURVE",
"227 344 LINE",
"230 388 OFFCURVE",
"264 396 OFFCURVE",
"287 396 CURVE SMOOTH",
"328 396 OFFCURVE",
"341 369 OFFCURVE",
"341 337 CURVE SMOOTH",
"341 321 LINE",
"272 320 LINE SMOOTH",
"117 318 OFFCURVE",
"35 261 OFFCURVE",
"35 155 CURVE SMOOTH",
"35 62 OFFCURVE",
"98 -10 OFFCURVE",
"223 -10 CURVE SMOOTH"
);
},
{
closed = 1;
nodes = (
"237 118 OFFCURVE",
"218 138 OFFCURVE",
"218 165 CURVE SMOOTH",
"218 205 OFFCURVE",
"259 211 OFFCURVE",
"282 211 CURVE SMOOTH",
"341 211 LINE",
"341 191 LINE SMOOTH",
"341 152 OFFCURVE",
"313 118 OFFCURVE",
"270 118 CURVE SMOOTH"
);
},
{
closed = 1;
nodes = (
"528 321 LINE",
"528 373 OFFCURVE",
"557 396 OFFCURVE",
"598 396 CURVE SMOOTH",
"640 396 OFFCURVE",
"670 372 OFFCURVE",
"670 321 CURVE"
);
}
);
width = 881;
},
{
guideLines = (
{
angle = 90;
position = "{503, 0}";
},
{
angle = 90;
position = "{527, 0}";
},
{
position = "{0, 256}";
},
{
position = "{0, 289}";
},
{
angle = 90;
position = "{438, 0}";
},
{
angle = 90;
position = "{468, 0}";
},
{
angle = 90;
position = "{97, 0}";
},
{
angle = 90;
position = "{205, 0}";
},
{
angle = 90;
position = "{279, 0}";
},
{
angle = 90;
position = "{464, 0}";
}
);
layerId = "9DFE6445-7062-4987-A7C3-244173BC9CEA";
paths = (
{
closed = 1;
nodes = (
"334 -5 OFFCURVE",
"425 42 OFFCURVE",
"463 148 CURVE",
"467 148 LINE",
"497 61 OFFCURVE",
"572 -5 OFFCURVE",
"684 -5 CURVE SMOOTH",
"808 -5 OFFCURVE",
"874 74 OFFCURVE",
"900 154 CURVE",
"865 154 LINE",
"835 78 OFFCURVE",
"772 29 OFFCURVE",
"684 29 CURVE SMOOTH",
"560 29 OFFCURVE",
"479 133 OFFCURVE",
"479 250 CURVE SMOOTH",
"479 257 LINE",
"909 257 LINE",
"909 267 LINE SMOOTH",
"909 299 OFFCURVE",
"909 542 OFFCURVE",
"684 542 CURVE SMOOTH",
"580 542 OFFCURVE",
"502 482 OFFCURVE",
"469 386 CURVE",
"465 386 LINE",
"444 488 OFFCURVE",
"370 537 OFFCURVE",
"273 537 CURVE SMOOTH",
"172 537 OFFCURVE",
"89 483 OFFCURVE",
"69 386 CURVE",
"104 386 LINE",
"116 434 OFFCURVE",
"156 504 OFFCURVE",
"271 504 CURVE SMOOTH",
"423 504 OFFCURVE",
"440 381 OFFCURVE",
"440 342 CURVE SMOOTH",
"440 289 LINE",
"279 289 LINE SMOOTH",
"227 289 OFFCURVE",
"60 289 OFFCURVE",
"60 148 CURVE SMOOTH",
"60 53 OFFCURVE",
"135 -5 OFFCURVE",
"240 -5 CURVE SMOOTH"
);
},
{
closed = 1;
nodes = (
"155 33 OFFCURVE",
"97 71 OFFCURVE",
"97 147 CURVE SMOOTH",
"97 257 OFFCURVE",
"219 257 OFFCURVE",
"279 257 CURVE SMOOTH",
"439 257 LINE",
"439 200 LINE SMOOTH",
"439 120 OFFCURVE",
"372 33 OFFCURVE",
"241 33 CURVE SMOOTH"
);
},
{
closed = 1;
nodes = (
"480 289 LINE",
"486 413 OFFCURVE",
"559 507 OFFCURVE",
"684 507 CURVE SMOOTH",
"782 507 OFFCURVE",
"864 455 OFFCURVE",
"872 289 CURVE"
);
}
);
width = 971;
}
);
unicode = 00E6;
},
{
glyphname = b;
layers = (
{
guideLines = (
{
angle = 90;
position = "{242, 0}";
},
{
position = "{0, 387}";
},
{
position = "{0, 462}";
},
{
position = "{0, 451}";
},
{
angle = 90;
position = "{562, 0}";
},
{
angle = 90;
position = "{370, 0}";
},
{
position = "{0, 387}";
},
{
position = "{0, 387}";
},
{
position = "{0, 471}";
},
{
position = "{0, 264}";
}
);
layerId = "306713D8-4F8C-486F-A8A4-9DD13D5E83DB";
paths = (
{
closed = 1;
nodes = (
"510 -10 OFFCURVE",
"579 97 OFFCURVE",
"579 264 CURVE SMOOTH",
"579 436 OFFCURVE",
"510 540 OFFCURVE",
"382 540 CURVE SMOOTH",
"279 540 OFFCURVE",
"244 472 OFFCURVE",
"240 462 CURVE",
"232 462 LINE",
"232 751 LINE",
"40 751 LINE",
"40 0 LINE",
"232 0 LINE",
"232 74 LINE",
"240 74 LINE",
"245 63 OFFCURVE",
"279 -10 OFFCURVE",
"382 -10 CURVE SMOOTH"
);
},
{
closed = 1;
nodes = (
"247 138 OFFCURVE",
"230 210 OFFCURVE",
"230 264 CURVE SMOOTH",
"230 316 OFFCURVE",
"246 387 OFFCURVE",
"308 387 CURVE SMOOTH",
"371 387 OFFCURVE",
"386 317 OFFCURVE",
"386 264 CURVE SMOOTH",
"386 210 OFFCURVE",
"371 138 OFFCURVE",
"308 138 CURVE SMOOTH"
);
}
);
width = 609;
},
{
guideLines = (
{
position = "{0, 53}";
},
{
angle = 90;
position = "{235, 0}";
},
{
position = "{0, 26}";
},
{
position = "{0, 417}";
},
{
position = "{0, 542}";
},
{
position = "{0, 103}";
},
{
position = "{0, -5}";
},
{
position = "{0, 506}";
}
);
layerId = "9DFE6445-7062-4987-A7C3-244173BC9CEA";
paths = (
{
closed = 1;
nodes = (
"482 -5 OFFCURVE",
"565 121 OFFCURVE",
"565 268 CURVE SMOOTH",
"565 415 OFFCURVE",
"482 542 OFFCURVE",
"328 542 CURVE SMOOTH",
"222 542 OFFCURVE",
"164 478 OFFCURVE",
"132 413 CURVE",
"125 413 LINE",
"125 750 LINE",
"91 750 LINE",
"91 0 LINE",
"125 0 LINE",
"125 125 LINE",
"132 125 LINE",
"167 55 OFFCURVE",
"229 -5 OFFCURVE",
"332 -5 CURVE SMOOTH"
);
},
{
closed = 1;
nodes = (
"197 31 OFFCURVE",
"129 136 OFFCURVE",
"129 268 CURVE SMOOTH",
"129 401 OFFCURVE",
"197 506 OFFCURVE",
"329 506 CURVE SMOOTH",
"464 506 OFFCURVE",
"529 399 OFFCURVE",
"529 269 CURVE SMOOTH",
"529 137 OFFCURVE",
"463 31 OFFCURVE",
"329 31 CURVE SMOOTH"
);
}
);
width = 623;
}
);
leftKerningGroup = h;
rightKerningGroup = o;
unicode = 0062;
},
{
glyphname = c;
layers = (
{
anchors = (
{
name = bottom;
position = "{328, 0}";
},
{
name = top;
position = "{288, 530}";
}
);
guideLines = (
{
angle = 90;
position = "{216, 0}";
},
{
angle = 90;
position = "{678, 0}";
},
{
position = "{0, 392}";
},
{
position = "{0, 427}";
},
{
position = "{0, 540}";
},
{
position = "{0, -10}";
},
{
angle = 90;
position = "{30, -76}";
}
);
layerId = "306713D8-4F8C-486F-A8A4-9DD13D5E83DB";
paths = (
{
closed = 1;
nodes = (
"441 -10 OFFCURVE",
"522 90 OFFCURVE",
"540 212 CURVE",
"354 212 LINE",
"349 172 OFFCURVE",
"328 141 OFFCURVE",
"290 141 CURVE SMOOTH",
"225 141 OFFCURVE",
"216 211 OFFCURVE",
"216 266 CURVE SMOOTH",
"216 319 OFFCURVE",
"225 389 OFFCURVE",
"290 389 CURVE SMOOTH",
"329 389 OFFCURVE",
"349 357 OFFCURVE",
"354 318 CURVE",
"540 318 LINE",
"522 440 OFFCURVE",
"440 540 OFFCURVE",
"288 540 CURVE SMOOTH",
"108 540 OFFCURVE",
"30 403 OFFCURVE",
"30 266 CURVE SMOOTH",
"30 127 OFFCURVE",
"108 -10 OFFCURVE",
"288 -10 CURVE SMOOTH"
);
}
);
width = 570;
},
{
anchors = (
{
name = bottom;
position = "{314, -6}";
},
{
name = top;
position = "{306, 525}";
}
);
guideLines = (
{
angle = 90;
position = "{57, 44}";
},
{
position = "{0, -5}";
},
{
position = "{0, 507}";
},
{
position = "{0, 542}";
},
{
position = "{0, 28}";
},
{
angle = 90;
position = "{313, 0}";
},
{
position = "{0, 506}";
}
);
layerId = "9DFE6445-7062-4987-A7C3-244173BC9CEA";
paths = (
{
closed = 1;
nodes = (
"448 -6 OFFCURVE",
"515 94 OFFCURVE",
"527 189 CURVE",
"494 189 LINE",
"479 99 OFFCURVE",
"419 29 OFFCURVE",
"306 29 CURVE SMOOTH",
"170 29 OFFCURVE",
"99 135 OFFCURVE",
"99 268 CURVE SMOOTH",
"99 401 OFFCURVE",
"170 507 OFFCURVE",
"306 507 CURVE SMOOTH",
"419 507 OFFCURVE",
"479 437 OFFCURVE",
"494 347 CURVE",
"527 347 LINE",
"515 442 OFFCURVE",
"448 542 OFFCURVE",
"306 542 CURVE SMOOTH",
"136 542 OFFCURVE",
"62 401 OFFCURVE",
"62 268 CURVE",
"62 135 OFFCURVE",
"136 -6 OFFCURVE",
"306 -6 CURVE SMOOTH"
);
}
);
width = 579;
}
);
leftKerningGroup = o;
rightKerningGroup = o;
unicode = 0063;
},
{
glyphname = eth;
layers = (
{
layerId = "306713D8-4F8C-486F-A8A4-9DD13D5E83DB";
paths = (
{
closed = 1;
nodes = (
"475 -10 OFFCURVE",
"544 151 OFFCURVE",
"544 284 CURVE SMOOTH",
"544 492 LINE SMOOTH",
"544 793 OFFCURVE",
"275 843 OFFCURVE",
"152 841 CURVE",
"152 700 LINE",
"239 702 OFFCURVE",
"352 654 OFFCURVE",
"352 502 CURVE SMOOTH",
"352 463 LINE",
"344 463 LINE",
"341 470 OFFCURVE",
"306 539 OFFCURVE",
"206 539 CURVE SMOOTH",
"78 539 OFFCURVE",
"5 425 OFFCURVE",
"5 284 CURVE SMOOTH",
"5 148 OFFCURVE",
"74 -10 OFFCURVE",
"274 -10 CURVE SMOOTH"
);
},
{
closed = 1;
nodes = (
"212 140 OFFCURVE",
"198 214 OFFCURVE",
"198 265 CURVE SMOOTH",
"198 320 OFFCURVE",
"214 392 OFFCURVE",
"276 392 CURVE SMOOTH",
"338 392 OFFCURVE",
"354 319 OFFCURVE",
"354 268 CURVE SMOOTH",
"354 214 OFFCURVE",
"338 140 OFFCURVE",
"275 140 CURVE SMOOTH"
);
},
{
closed = 1;
nodes = (
"544 737 LINE",
"494 824 LINE",
"203 656 LINE",
"253 569 LINE"
);
}
);
width = 600;
},
{
guideLines = (
{
angle = 90;
position = "{499, 0}";
},
{
position = "{0, -5}";
},
{
position = "{0, 268}";
}
);
layerId = "9DFE6445-7062-4987-A7C3-244173BC9CEA";
paths = (
{
closed = 1;
nodes = (
"446 -5 OFFCURVE",
"531 121 OFFCURVE",
"531 268 CURVE SMOOTH",
"531 416 LINE SMOOTH",
"531 740 OFFCURVE",
"288 765 OFFCURVE",
"251 765 CURVE",
"251 736 LINE",
"269 736 OFFCURVE",
"499 719 OFFCURVE",
"499 419 CURVE SMOOTH",
"499 416 LINE",
"492 416 LINE",
"460 481 OFFCURVE",
"402 542 OFFCURVE",
"294 542 CURVE SMOOTH",
"142 542 OFFCURVE",
"59 415 OFFCURVE",
"59 268 CURVE SMOOTH",
"59 121 OFFCURVE",
"142 -5 OFFCURVE",
"294 -5 CURVE SMOOTH"
);
},
{
closed = 1;
nodes = (
"161 31 OFFCURVE",
"95 136 OFFCURVE",
"95 268 CURVE SMOOTH",
"95 398 OFFCURVE",
"160 506 OFFCURVE",
"294 506 CURVE SMOOTH",
"427 506 OFFCURVE",
"495 401 OFFCURVE",
"495 268 CURVE SMOOTH",
"495 136 OFFCURVE",
"427 31 OFFCURVE",
"294 31 CURVE SMOOTH"
);
},
{
closed = 1;
nodes = (
"515 739 LINE",
"500 764 LINE",
"287 641 LINE",
"302 616 LINE"
);
}
);
width = 621;
}
);
leftKerningGroup = o;
rightKerningGroup = dcroat;
unicode = 00F0;
},
{
glyphname = dcroat;
layers = (
{
components = (
{
name = d;
alignment = -1;
}
);
guideLines = (
{
angle = 90;
position = "{569, 0}";
}
);
layerId = "306713D8-4F8C-486F-A8A4-9DD13D5E83DB";
paths = (
{
closed = 1;
nodes = (
"621 571 LINE",
"621 691 LINE",
"306 691 LINE",
"306 571 LINE"
);
}
);
width = 631;
},
{
components = (
{
name = d;
alignment = -1;
}
);
guideLines = (
{
angle = 90;
position = "{616, 0}";
},
{
angle = 90;
position = "{532, 0}";
}
);
layerId = "9DFE6445-7062-4987-A7C3-244173BC9CEA";
paths = (
{
closed = 1;
nodes = (
"616 626 LINE",
"616 656 LINE",
"304 656 LINE",
"304 626 LINE"
);
}
);
width = 617;
}
);
leftKerningGroup = o;
rightKerningGroup = dcroat;
unicode = 0111;
},
{
glyphname = e;
layers = (
{
anchors = (
{
name = bottom;
position = "{290, 0}";
},
{
name = ogonek;
position = "{369, 44}";
},
{
name = top;
position = "{290, 530}";
}
);
guideLines = (
{
position = "{0, 96}";
},
{
position = "{0, 428}";
},
{
position = "{0, 128}";
},
{
position = "{0, -10}";
},
{
position = "{0, 540}";
},
{
position = "{0, 397}";
},
{
position = "{0, 176}";
},
{
angle = 90;
position = "{540, 0}";
},
{
angle = 90;
position = "{359, 0}";
}
);
layerId = "306713D8-4F8C-486F-A8A4-9DD13D5E83DB";
paths = (
{
closed = 1;
nodes = (
"428 -10 OFFCURVE",
"512 72 OFFCURVE",
"537 176 CURVE",
"351 176 LINE",
"342 155 OFFCURVE",
"319 138 OFFCURVE",
"284 138 CURVE SMOOTH",
"242 138 OFFCURVE",
"212 167 OFFCURVE",
"212 204 CURVE SMOOTH",
"212 212 LINE",
"540 212 LINE",
"540 264 LINE SMOOTH",
"540 448 OFFCURVE",
"440 540 OFFCURVE",
"290 540 CURVE SMOOTH",
"106 540 OFFCURVE",
"30 402 OFFCURVE",
"30 264 CURVE SMOOTH",
"30 124 OFFCURVE",
"108 -10 OFFCURVE",
"288 -10 CURVE SMOOTH"
);
},
{
closed = 1;
nodes = (
"217 331 LINE",
"217 383 OFFCURVE",
"246 406 OFFCURVE",
"287 406 CURVE SMOOTH",
"329 406 OFFCURVE",
"359 382 OFFCURVE",
"359 331 CURVE"
);
}
);
width = 570;
},
{
anchors = (
{
name = bottom;
position = "{302, 0}";
},
{
name = ogonek;
position = "{376, 24}";
},
{
name = top;
position = "{302, 525}";
}
);
guideLines = (
{
angle = 90;
position = "{618, 0}";
},
{
angle = 90;
position = "{647, 0}";
},
{
position = "{0, 53}";
},
{
position = "{0, 507}";
},
{
position = "{0, 28}";
},
{
position = "{0, 280}";
},
{
position = "{0, 250}";
},
{
angle = 90;
position = "{107, 0}";
},
{
angle = 90;
position = "{140, 0}";
},
{
position = "{0, 507}";
},
{
position = "{0, 542}";
},
{
position = "{0, -5}";
}
);
layerId = "9DFE6445-7062-4987-A7C3-244173BC9CEA";
paths = (
{
closed = 1;
nodes = (
"425 -5 OFFCURVE",
"492 74 OFFCURVE",
"518 154 CURVE",
"483 154 LINE",
"453 78 OFFCURVE",
"390 29 OFFCURVE",
"302 29 CURVE SMOOTH",
"178 29 OFFCURVE",
"99 138 OFFCURVE",
"99 250 CURVE SMOOTH",
"99 257 LINE",
"527 257 LINE",
"527 267 LINE SMOOTH",
"527 450 OFFCURVE",
"433 542 OFFCURVE",
"302 542 CURVE SMOOTH",
"138 542 OFFCURVE",
"62 402 OFFCURVE",
"62 269 CURVE SMOOTH",
"62 137 OFFCURVE",
"137 -5 OFFCURVE",
"302 -5 CURVE SMOOTH"
);
},
{
closed = 1;
nodes = (
"100 289 LINE",
"106 413 OFFCURVE",
"178 507 OFFCURVE",
"302 507 CURVE SMOOTH",
"400 507 OFFCURVE",
"482 455 OFFCURVE",
"490 289 CURVE"
);
}
);
width = 589;
}
);
leftKerningGroup = o;
rightKerningGroup = o;
unicode = 0065;
},
{
glyphname = f;
layers = (
{
layerId = "306713D8-4F8C-486F-A8A4-9DD13D5E83DB";
paths = (
{
closed = 1;
nodes = (
"280 0 LINE",
"280 524 LINE SMOOTH",
"280 566 OFFCURVE",
"280 609 OFFCURVE",
"339 609 CURVE SMOOTH",
"352 609 OFFCURVE",
"379 607 OFFCURVE",
"391 605 CURVE",
"391 728 LINE",
"379 733 OFFCURVE",
"322 740 OFFCURVE",
"283 740 CURVE SMOOTH",
"100 740 OFFCURVE",
"90 613 OFFCURVE",
"90 566 CURVE SMOOTH",
"90 0 LINE"
);
},
{
closed = 1;
nodes = (
"391 383 LINE",
"391 530 LINE",
"30 530 LINE",
"30 383 LINE"
);
}
);
width = 406;
},
{
guideLines = (
{
position = "{0, 715}";
}
);
layerId = "9DFE6445-7062-4987-A7C3-244173BC9CEA";
paths = (
{
closed = 1;
nodes = (
"169 0 LINE",
"169 611 LINE SMOOTH",
"169 653 OFFCURVE",
"169 708 OFFCURVE",
"252 708 CURVE SMOOTH",
"270 708 OFFCURVE",
"288 706 OFFCURVE",
"301 703 CURVE",
"301 731 LINE",
"288 735 OFFCURVE",
"271 737 OFFCURVE",
"249 737 CURVE SMOOTH",
"152 737 OFFCURVE",
"134 674 OFFCURVE",
"134 611 CURVE SMOOTH",
"135 0 LINE"
);
},
{
closed = 1;
nodes = (
"301 495 LINE",
"301 525 LINE",
"55 525 LINE",
"55 495 LINE"
);
}
);
width = 356;
}
);
leftKerningGroup = f;
rightKerningGroup = f;
unicode = 0066;
},
{
glyphname = g;
layers = (
{
anchors = (
{
name = bottom;
position = "{305, -250}";
},
{
name = top;
position = "{305, 530}";
}
);
guideLines = (
{
angle = 90;
position = "{377, 0}";
},
{
position = "{0, -234}";
}
);
layerId = "306713D8-4F8C-486F-A8A4-9DD13D5E83DB";
paths = (
{
closed = 1;
nodes = (
"569 -238 OFFCURVE",
"569 -9 OFFCURVE",
"569 39 CURVE SMOOTH",
"569 530 LINE",
"377 530 LINE",
"377 456 LINE",
"369 456 LINE",
"365 466 OFFCURVE",
"330 540 OFFCURVE",
"228 540 CURVE SMOOTH",
"103 540 OFFCURVE",
"30 436 OFFCURVE",
"30 269 CURVE SMOOTH",
"30 107 OFFCURVE",
"99 0 OFFCURVE",
"226 0 CURVE SMOOTH",
"330 0 OFFCURVE",
"364 73 OFFCURVE",
"369 84 CURVE",
"377 84 LINE",
"377 39 LINE SMOOTH",
"377 1 OFFCURVE",
"377 -76 OFFCURVE",
"281 -76 CURVE SMOOTH",
"254 -76 OFFCURVE",
"218 -70 OFFCURVE",
"207 -66 CURVE",
"207 -215 LINE",
"220 -220 OFFCURVE",
"238 -233 OFFCURVE",
"300 -234 CURVE SMOOTH"
);
},
{
closed = 1;
nodes = (
"238 150 OFFCURVE",
"223 222 OFFCURVE",
"223 271 CURVE SMOOTH",
"223 319 OFFCURVE",
"238 389 OFFCURVE",
"301 389 CURVE SMOOTH",
"363 389 OFFCURVE",
"379 318 OFFCURVE",
"379 271 CURVE SMOOTH",
"379 222 OFFCURVE",
"362 150 OFFCURVE",
"301 150 CURVE SMOOTH"
);
}
);
width = 609;
},
{
anchors = (
{
name = bottom;
position = "{305, -250}";
},
{
name = top;
position = "{305, 525}";
}
);
guideLines = (
{
position = "{0, -199}";
},
{
angle = 90;
position = "{305, 0}";
}
);
layerId = "9DFE6445-7062-4987-A7C3-244173BC9CEA";
paths = (
{
closed = 1;
nodes = (
"455 -199 OFFCURVE",
"536 -103 OFFCURVE",
"536 20 CURVE SMOOTH",
"536 524 LINE",
"502 524 LINE",
"502 409 LINE",
"495 409 LINE",
"464 486 OFFCURVE",
"393 544 OFFCURVE",
"294 544 CURVE SMOOTH",
"155 544 OFFCURVE",
"62 430 OFFCURVE",
"62 279 CURVE SMOOTH",
"62 125 OFFCURVE",
"159 14 OFFCURVE",
"295 14 CURVE SMOOTH",
"386 14 OFFCURVE",
"459 63 OFFCURVE",
"494 140 CURVE",
"502 140 LINE",
"502 20 LINE SMOOTH",
"502 -99 OFFCURVE",
"430 -164 OFFCURVE",
"314 -164 CURVE SMOOTH",
"279 -164 OFFCURVE",
"248 -157 OFFCURVE",
"234 -153 CURVE",
"234 -187 LINE",
"248 -192 OFFCURVE",
"276 -199 OFFCURVE",
"314 -199 CURVE SMOOTH"
);
},
{
closed = 1;
nodes = (
"169 50 OFFCURVE",
"101 157 OFFCURVE",
"101 281 CURVE SMOOTH",
"101 401 OFFCURVE",
"168 508 OFFCURVE",
"300 508 CURVE SMOOTH",
"431 508 OFFCURVE",
"498 401 OFFCURVE",
"498 281 CURVE SMOOTH",
"498 157 OFFCURVE",
"430 50 OFFCURVE",
"300 50 CURVE SMOOTH"
);
}
);
width = 628;
}
);
leftKerningGroup = o;
rightKerningGroup = g;
unicode = 0067;
},
{
glyphname = h;
layers = (
{
guideLines = (
{
position = "{0, 476}";
},
{
angle = 90;
position = "{270, 0}";
},
{
angle = 90;
position = "{191, 0}";
},
{
angle = 90;
position = "{351, 0}";
},
{
angle = 90;
position = "{320, 0}";
},
{
position = "{0, 387}";
}
);
layerId = "306713D8-4F8C-486F-A8A4-9DD13D5E83DB";
paths = (
{
closed = 1;
nodes = (
"232 0 LINE",
"232 300 LINE SMOOTH",
"232 343 OFFCURVE",
"242 387 OFFCURVE",
"297 387 CURVE SMOOTH",
"349 387 OFFCURVE",
"361 346 OFFCURVE",
"361 300 CURVE SMOOTH",
"361 0 LINE",
"551 0 LINE",
"551 334 LINE SMOOTH",
"551 396 OFFCURVE",
"540 540 OFFCURVE",
"375 540 CURVE SMOOTH",
"273 540 OFFCURVE",
"240 462 OFFCURVE",
"240 462 CURVE",
"232 462 LINE",
"232 740 LINE",
"40 740 LINE",
"40 0 LINE"
);
}
);
width = 591;
},
{
guideLines = (
{
position = "{0, 750}";
},
{
position = "{0, 504}";
},
{
position = "{0, 542}";
}
);
layerId = "9DFE6445-7062-4987-A7C3-244173BC9CEA";
paths = (
{
closed = 1;
nodes = (
"126 0 LINE",
"126 306 LINE SMOOTH",
"126 438 OFFCURVE",
"221 503 OFFCURVE",
"316 503 CURVE SMOOTH",
"418 503 OFFCURVE",
"506 445 OFFCURVE",
"506 306 CURVE SMOOTH",
"506 0 LINE",
"540 0 LINE",
"540 306 LINE SMOOTH",
"540 445 OFFCURVE",
"458 542 OFFCURVE",
"328 542 CURVE SMOOTH",
"180 542 OFFCURVE",
"133 417 OFFCURVE",
"133 417 CURVE",
"126 417 LINE",
"126 750 LINE",
"92 750 LINE",
"92 0 LINE"
);
}
);
width = 622;
}
);
leftKerningGroup = h;
rightKerningGroup = n;
unicode = 0068;
},
{
glyphname = hbar;
layers = (
{
layerId = "306713D8-4F8C-486F-A8A4-9DD13D5E83DB";
paths = (
{
closed = 1;
nodes = (
"258 0 LINE",
"258 300 LINE SMOOTH",
"258 343 OFFCURVE",
"268 387 OFFCURVE",
"323 387 CURVE SMOOTH",
"375 387 OFFCURVE",
"387 346 OFFCURVE",
"387 300 CURVE SMOOTH",
"387 0 LINE",
"577 0 LINE",
"577 334 LINE SMOOTH",
"577 364 OFFCURVE",
"577 540 OFFCURVE",
"412 540 CURVE SMOOTH",
"310 540 OFFCURVE",
"274 473 OFFCURVE",
"266 456 CURVE",
"258 456 LINE",
"258 751 LINE",
"66 751 LINE",
"66 0 LINE"
);
},
{
closed = 1;
nodes = (
"325 571 LINE",
"325 691 LINE",
"10 691 LINE",
"10 571 LINE"
);
}
);
width = 617;
},
{
guideLines = (
{
angle = 90;
position = "{92, 0}";
},
{
angle = 90;
position = "{8, -39}";
}
);
layerId = "9DFE6445-7062-4987-A7C3-244173BC9CEA";
paths = (
{
closed = 1;
nodes = (
"126 0 LINE",
"126 272 LINE SMOOTH",
"126 402 OFFCURVE",
"205 504 OFFCURVE",
"341 504 CURVE SMOOTH",
"506 504 OFFCURVE",
"506 354 OFFCURVE",
"506 317 CURVE SMOOTH",
"506 0 LINE",
"540 0 LINE",
"540 318 LINE SMOOTH",
"540 360 OFFCURVE",
"540 542 OFFCURVE",
"346 542 CURVE SMOOTH",
"179 542 OFFCURVE",
"133 407 OFFCURVE",
"133 407 CURVE",
"125 407 LINE",
"125 750 LINE",
"92 750 LINE",
"92 0 LINE"
);
},
{
closed = 1;
nodes = (
"320 626 LINE",
"320 656 LINE",
"8 656 LINE",
"8 626 LINE"
);
}
);
width = 600;
}
);
unicode = 0127;
},
{
glyphname = idotless;
layers = (
{
anchors = (
{
name = bottom;
position = "{159, 0}";
},
{
name = ogonek;
position = "{289, 51}";
},
{
name = top;
position = "{159, 530}";
}
);
layerId = "306713D8-4F8C-486F-A8A4-9DD13D5E83DB";
paths = (
{
closed = 1;
nodes = (
"254 0 LINE",
"254 530 LINE",
"64 530 LINE",
"64 0 LINE"
);
}
);
width = 318;
},
{
anchors = (
{
name = bottom;
position = "{108, 0}";
},
{
name = ogonek;
position = "{164, 27}";
},
{
name = top;
position = "{108, 525}";
}
);
guideLines = (
{
angle = 90;
position = "{108, 0}";
}
);
layerId = "9DFE6445-7062-4987-A7C3-244173BC9CEA";
paths = (
{
closed = 1;
nodes = (
"125 0 LINE",
"125 525 LINE",
"91 525 LINE",
"91 0 LINE"
);
}
);
width = 216;
}
);
unicode = 0131;
},
{
glyphname = j;
layers = (
{
components = (
{
name = dotaccentcomb;
transform = "{1, 0, 0, 1, -3, 0}";
alignment = -1;
}
);
guideLines = (
{
angle = 90;
position = "{251, 0}";
},
{
position = "{0, -258}";
},
{
position = "{0, 610}";
},
{
angle = 90;
position = "{61, 374}";
},
{
position = "{0, -254}";
},
{
position = "{0, -234}";
}
);
layerId = "306713D8-4F8C-486F-A8A4-9DD13D5E83DB";
paths = (
{
closed = 1;
nodes = (
"251 -234 OFFCURVE",
"251 -94 OFFCURVE",
"251 -68 CURVE SMOOTH",
"251 551 LINE",
"61 551 LINE",
"61 -7 LINE SMOOTH",
"61 -52 OFFCURVE",
"61 -94 OFFCURVE",
"-8 -94 CURVE SMOOTH",
"-19 -94 OFFCURVE",
"-39 -93 OFFCURVE",
"-50 -91 CURVE",
"-50 -221 LINE",
"-32 -225 OFFCURVE",
"5 -234 OFFCURVE",
"55 -234 CURVE SMOOTH"
);
}
);
width = 312;
},
{
components = (
{
name = dotaccentcomb;
transform = "{1, 0, 0, 1, 2, 0}";
alignment = -1;
}
);
guideLines = (
{
position = "{0, -212}";
},
{
angle = 270;
position = "{132, 220}";
},
{
angle = 270;
position = "{100, 220}";
}
);
layerId = "9DFE6445-7062-4987-A7C3-244173BC9CEA";
paths = (
{
closed = 1;
nodes = (
"117 -212 OFFCURVE",
"134 -149 OFFCURVE",
"134 -86 CURVE SMOOTH",
"133 525 LINE",
"99 525 LINE",
"99 -86 LINE SMOOTH",
"99 -128 OFFCURVE",
"98 -183 OFFCURVE",
"16 -183 CURVE SMOOTH",
"-2 -183 OFFCURVE",
"-20 -181 OFFCURVE",
"-33 -178 CURVE",
"-33 -206 LINE",
"-20 -210 OFFCURVE",
"-3 -212 OFFCURVE",
"19 -212 CURVE SMOOTH"
);
}
);
width = 224;
}
);
leftKerningGroup = j;
unicode = 006A;
},
{
glyphname = k;
layers = (
{
anchors = (
{
name = bottom;
position = "{303, 0}";
},
{
name = top;
position = "{303, 1050}";
}
);
guideLines = (
{
position = "{0, 0}";
},
{
position = "{0, 13}";
},
{
angle = 58.72;
position = "{499, 402}";
},
{
angle = 117.98;
position = "{499, 148}";
}
);
layerId = "306713D8-4F8C-486F-A8A4-9DD13D5E83DB";
paths = (
{
closed = 1;
nodes = (
"242 0 LINE",
"242 251 LINE",
"248 251 LINE",
"367 0 LINE",
"578 0 LINE",
"427 283 LINE",
"577 530 LINE",
"367 530 LINE",
"247 332 LINE",
"242 332 LINE",
"242 740 LINE",
"50 740 LINE",
"50 0 LINE"
);
}
);
width = 606;
},
{
anchors = (
{
name = bottom;
position = "{236, 0}";
},
{
name = top;
position = "{324, 700}";
}
);
guideLines = (
{
angle = 39.49;
position = "{272, 404}";
},
{
angle = 134.9;
position = "{279, 153}";
},
{
angle = 219.81;
position = "{250, 425}";
},
{
angle = 314.33;
position = "{294, 135}";
},
{
angle = 314.33;
position = "{257, 130}";
}
);
layerId = "9DFE6445-7062-4987-A7C3-244173BC9CEA";
paths = (
{
closed = 1;
nodes = (
"126 0 LINE",
"126 260 LINE",
"130 260 LINE",
"384 0 LINE",
"426 0 LINE",
"138 294 LINE",
"412 525 LINE",
"370 525 LINE",
"130 325 LINE",
"126 325 LINE",
"126 750 LINE",
"92 750 LINE",
"92 0 LINE"
);
}
);
width = 471;
}
);
leftKerningGroup = h;
rightKerningGroup = k;
unicode = 006B;
},
{
glyphname = l;
layers = (
{
anchors = (
{
name = bottom;
position = "{185, 0}";
},
{
name = center;
position = "{185, 475}";
},
{
name = top;
position = "{143, 739}";
},
{
name = topright;
position = "{349, 950}";
}
);
guideLines = (
{
position = "{0, 181}";
},
{
angle = 270;
position = "{143, 519}";
},
{
position = "{0, -3}";
},
{
position = "{0, 137}";
},
{
position = "{0, 135}";
}
);
layerId = "306713D8-4F8C-486F-A8A4-9DD13D5E83DB";
paths = (
{
closed = 1;
nodes = (
"278 -3 OFFCURVE",
"319 1 OFFCURVE",
"339 3 CURVE",
"339 133 LINE",
"333 132 OFFCURVE",
"325 132 OFFCURVE",
"318 132 CURVE SMOOTH",
"240 132 OFFCURVE",
"240 165 OFFCURVE",
"240 218 CURVE SMOOTH",
"240 750 LINE",
"50 750 LINE",
"50 177 LINE SMOOTH",
"50 97 OFFCURVE",
"50 -3 OFFCURVE",
"241 -3 CURVE SMOOTH"
);
}
);
width = 369;
},
{
anchors = (
{
name = bottom;
position = "{143, 0}";
},
{
name = center;
position = "{143, 475}";
},
{
name = top;
position = "{110, 750}";
},
{
name = topright;
position = "{266, 950}";
}
);
guideLines = (
{
angle = 270;
position = "{175, 436}";
},
{
angle = 90;
position = "{207, 0}";
},
{
position = "{0, -5}";
},
{
position = "{0, 750}";
}
);
layerId = "9DFE6445-7062-4987-A7C3-244173BC9CEA";
paths = (
{
closed = 1;
nodes = (
"213 -5 OFFCURVE",
"228 -3 OFFCURVE",
"241 0 CURVE",
"241 28 LINE",
"228 26 OFFCURVE",
"213 24 OFFCURVE",
"197 24 CURVE SMOOTH",
"127 24 OFFCURVE",
"127 62 OFFCURVE",
"127 127 CURVE SMOOTH",
"127 750 LINE",
"93 750 LINE",
"92 127 LINE SMOOTH",
"92 47 OFFCURVE",
"101 -5 OFFCURVE",
"195 -5 CURVE SMOOTH"
);
}
);
width = 286;
}
);
leftKerningGroup = h;
rightKerningGroup = t;
unicode = 006C;
},
{
glyphname = m;
layers = (
{
guideLines = (
{
position = "{0, 363}";
},
{
position = "{0, 542}";
},
{
angle = 90;
position = "{595, 0}";
},
{
angle = 90;
position = "{704, 0}";
},
{
angle = 90;
position = "{578, 0}";
},
{
angle = 90;
position = "{404, 0}";
},
{
angle = 90;
position = "{506, 0}";
},
{
angle = 90;
position = "{836, 0}";
},
{
position = "{0, 462}";
},
{
position = "{0, 456}";
},
{
position = "{0, 387}";
}
);
layerId = "306713D8-4F8C-486F-A8A4-9DD13D5E83DB";
paths = (
{
closed = 1;
nodes = (
"231 0 LINE",
"231 313 LINE SMOOTH",
"231 358 OFFCURVE",
"260 380 OFFCURVE",
"288 380 CURVE SMOOTH",
"317 380 OFFCURVE",
"345 358 OFFCURVE",
"345 313 CURVE SMOOTH",
"345 0 LINE",
"536 0 LINE",
"536 313 LINE SMOOTH",
"536 358 OFFCURVE",
"565 380 OFFCURVE",
"593 380 CURVE SMOOTH",
"622 380 OFFCURVE",
"650 358 OFFCURVE",
"650 313 CURVE SMOOTH",
"650 0 LINE",
"841 0 LINE",
"841 335 LINE SMOOTH",
"841 375 OFFCURVE",
"832 540 OFFCURVE",
"668 540 CURVE SMOOTH",
"553 540 OFFCURVE",
"521 451 OFFCURVE",
"516 438 CURVE",
"509 438 LINE",
"507 450 OFFCURVE",
"471 540 OFFCURVE",
"368 540 CURVE SMOOTH",
"279 540 OFFCURVE",
"244 471 OFFCURVE",
"239 456 CURVE",
"231 456 LINE",
"231 530 LINE",
"40 530 LINE",
"40 0 LINE"
);
}
);
width = 881;
},
{
guideLines = (
{
angle = 90;
position = "{747, 0}";
},
{
position = "{0, 504}";
},
{
position = "{0, 542}";
},
{
position = "{0, 407}";
}
);
layerId = "9DFE6445-7062-4987-A7C3-244173BC9CEA";
paths = (
{
closed = 1;
nodes = (
"125 0 LINE",
"125 306 LINE SMOOTH",
"125 438 OFFCURVE",
"214 503 OFFCURVE",
"311 503 CURVE SMOOTH",
"402 503 OFFCURVE",
"487 445 OFFCURVE",
"487 306 CURVE SMOOTH",
"487 0 LINE",
"520 0 LINE",
"520 306 LINE SMOOTH",
"520 438 OFFCURVE",
"609 503 OFFCURVE",
"706 503 CURVE SMOOTH",
"797 503 OFFCURVE",
"882 445 OFFCURVE",
"882 306 CURVE SMOOTH",
"882 0 LINE",
"915 0 LINE",
"915 306 LINE SMOOTH",
"915 450 OFFCURVE",
"833 542 OFFCURVE",
"714 542 CURVE SMOOTH",
"567 542 OFFCURVE",
"516 407 OFFCURVE",
"516 407 CURVE",
"508 407 LINE",
"508 407 OFFCURVE",
"463 542 OFFCURVE",
"318 542 CURVE SMOOTH",
"177 542 OFFCURVE",
"132 417 OFFCURVE",
"132 417 CURVE",
"125 417 LINE",
"125 525 LINE",
"92 525 LINE",
"92 0 LINE"
);
}
);
width = 997;
}
);
leftKerningGroup = h;
rightKerningGroup = n;
unicode = 006D;
},
{
glyphname = n;
layers = (
{
anchors = (
{
name = bottom;
position = "{296, 0}";
},
{
name = top;
position = "{296, 530}";
}
);
guideLines = (
{
position = "{0, 387}";
},
{
angle = 90;
position = "{551, 0}";
},
{
position = "{0, 540}";
},
{
position = "{0, 456}";
},
{
position = "{0, 462}";
}
);
layerId = "306713D8-4F8C-486F-A8A4-9DD13D5E83DB";
paths = (
{
closed = 1;
nodes = (
"232 0 LINE",
"232 300 LINE SMOOTH",
"232 343 OFFCURVE",
"242 387 OFFCURVE",
"297 387 CURVE SMOOTH",
"349 387 OFFCURVE",
"361 346 OFFCURVE",
"361 300 CURVE SMOOTH",
"361 0 LINE",
"551 0 LINE",
"551 334 LINE SMOOTH",
"551 396 OFFCURVE",
"540 540 OFFCURVE",
"375 540 CURVE SMOOTH",
"273 540 OFFCURVE",
"240 462 OFFCURVE",
"240 462 CURVE",
"232 462 LINE",
"232 530 LINE",
"40 530 LINE",
"40 0 LINE"
);
}
);
width = 591;
},
{
anchors = (
{
name = bottom;
position = "{311, 0}";
},
{
name = top;
position = "{311, 525}";
}
);
guideLines = (
{
position = "{0, 504}";
},
{
position = "{0, 542}";
},
{
angle = 90;
position = "{316, 0}";
},
{
position = "{0, 407}";
},
{
angle = 90;
position = "{540, 0}";
},
{
angle = 90;
position = "{455, 0}";
},
{
angle = 90;
position = "{177, 0}";
},
{
angle = 90;
position = "{316, 0}";
},
{
position = "{0, 416}";
}
);
layerId = "9DFE6445-7062-4987-A7C3-244173BC9CEA";
paths = (
{
closed = 1;
nodes = (
"126 0 LINE",
"126 306 LINE SMOOTH",
"126 426 OFFCURVE",
"207 503 OFFCURVE",
"319 503 CURVE SMOOTH",
"417 503 OFFCURVE",
"506 445 OFFCURVE",
"506 306 CURVE SMOOTH",
"506 0 LINE",
"540 0 LINE",
"540 306 LINE SMOOTH",
"540 445 OFFCURVE",
"458 542 OFFCURVE",
"328 542 CURVE SMOOTH",
"180 542 OFFCURVE",
"133 417 OFFCURVE",
"133 417 CURVE",
"126 417 LINE",
"126 525 LINE",
"92 525 LINE",
"92 0 LINE"
);
}
);
width = 622;
}
);
leftKerningGroup = h;
rightKerningGroup = n;
unicode = 006E;
},
{
glyphname = o;
layers = (
{
anchors = (
{
name = bottom;
position = "{289, 0}";
},
{
name = center;
position = "{289, 265}";
},
{
name = ogonek;
position = "{520, 10}";
},
{
name = top;
position = "{289, 530}";
},
{
name = topright;
position = "{558, 530}";
}
);
guideLines = (
{
angle = 90;
position = "{30, -36}";
},
{
position = "{0, 141}";
},
{
angle = 90;
position = "{216, 0}";
},
{
position = "{0, 99}";
},
{
position = "{0, 389}";
},
{
position = "{0, 540}";
},
{
position = "{0, -10}";
}
);
layerId = "306713D8-4F8C-486F-A8A4-9DD13D5E83DB";
paths = (
{
closed = 1;
nodes = (
"469 -10 OFFCURVE",
"548 118 OFFCURVE",
"548 266 CURVE SMOOTH",
"548 414 OFFCURVE",
"468 540 OFFCURVE",
"289 540 CURVE SMOOTH",
"108 540 OFFCURVE",
"30 412 OFFCURVE",
"30 264 CURVE SMOOTH",
"30 114 OFFCURVE",
"110 -10 OFFCURVE",
"289 -10 CURVE SMOOTH"
);
},
{
closed = 1;
nodes = (
"231 141 OFFCURVE",
"216 203 OFFCURVE",
"216 267 CURVE SMOOTH",
"216 328 OFFCURVE",
"230 389 OFFCURVE",
"289 389 CURVE SMOOTH",
"349 389 OFFCURVE",
"362 329 OFFCURVE",
"362 267 CURVE SMOOTH",
"362 203 OFFCURVE",
"349 141 OFFCURVE",
"289 141 CURVE SMOOTH"
);
}
);
width = 578;
},
{
anchors = (
{
name = bottom;
position = "{302, 0}";
},
{
name = center;
position = "{302, 263}";
},
{
name = ogonek;
position = "{544, 10}";
},
{
name = top;
position = "{302, 525}";
},
{
name = topright;
position = "{456, 525}";
}
);
guideLines = (
{
position = "{0, -5}";
},
{
angle = 90;
position = "{62, 97}";
},
{
position = "{0, 507}";
},
{
position = "{0, 542}";
}
);
layerId = "9DFE6445-7062-4987-A7C3-244173BC9CEA";
paths = (
{
closed = 1;
nodes = (
"462 -5 OFFCURVE",
"542 136 OFFCURVE",
"542 268 CURVE SMOOTH",
"542 399 OFFCURVE",
"463 541 OFFCURVE",
"302 541 CURVE SMOOTH",
"142 541 OFFCURVE",
"62 401 OFFCURVE",
"62 268 CURVE SMOOTH",
"62 137 OFFCURVE",
"141 -5 OFFCURVE",
"302 -5 CURVE"
);
},
{
closed = 1;
nodes = (
"176 30 OFFCURVE",
"98 135 OFFCURVE",
"98 268 CURVE SMOOTH",
"98 402 OFFCURVE",
"177 507 OFFCURVE",
"302 507 CURVE SMOOTH",
"425 507 OFFCURVE",
"506 404 OFFCURVE",
"506 268 CURVE SMOOTH",
"506 135 OFFCURVE",
"425 30 OFFCURVE",
"302 30 CURVE SMOOTH"
);
}
);
width = 604;
}
);
leftKerningGroup = o;
rightKerningGroup = o;
unicode = 006F;
},
{
glyphname = oslash;
layers = (
{
components = (
{
name = o;
alignment = -1;
}
);
layerId = "306713D8-4F8C-486F-A8A4-9DD13D5E83DB";
paths = (
{
closed = 1;
nodes = (
"178 -31 LINE",
"527 573 LINE",
"400 573 LINE",
"51 -31 LINE"
);
}
);
width = 578;
},
{
components = (
{
name = o;
transform = "{1, 0, 0, 1, 0, 1}";
alignment = -1;
}
);
guideLines = (
{
position = "{0, -5}";
},
{
position = "{0, 542}";
}
);
layerId = "9DFE6445-7062-4987-A7C3-244173BC9CEA";
paths = (
{
closed = 1;
nodes = (
"148 -46 LINE",
"493 590 LINE",
"456 590 LINE",
"111 -46 LINE"
);
}
);
width = 604;
}
);
unicode = 00F8;
},
{
glyphname = oe;
layers = (
{
guideLines = (
{
angle = 90;
position = "{554, 0}";
},
{
position = "{0, -10}";
},
{
angle = 90;
position = "{285, 0}";
},
{
position = "{0, 475}";
},
{
position = "{0, 386}";
}
);
layerId = "306713D8-4F8C-486F-A8A4-9DD13D5E83DB";
paths = (
{
closed = 1;
nodes = (
"361 -13 OFFCURVE",
"423 15 OFFCURVE",
"452 50 CURVE",
"452 50 OFFCURVE",
"460 50 OFFCURVE",
"460 50 CURVE",
"489 18 OFFCURVE",
"547 -10 OFFCURVE",
"625 -10 CURVE SMOOTH",
"758 -10 OFFCURVE",
"845 73 OFFCURVE",
"869 176 CURVE",
"688 176 LINE",
"679 155 OFFCURVE",
"657 138 OFFCURVE",
"624 138 CURVE SMOOTH",
"580 138 OFFCURVE",
"554 167 OFFCURVE",
"554 204 CURVE SMOOTH",
"554 212 LINE",
"872 212 LINE",
"872 264 LINE SMOOTH",
"872 448 OFFCURVE",
"770 540 OFFCURVE",
"627 540 CURVE SMOOTH",
"544 540 OFFCURVE",
"487 509 OFFCURVE",
"460 475 CURVE",
"452 475 LINE",
"421 509 OFFCURVE",
"362 537 OFFCURVE",
"282 537 CURVE SMOOTH",
"111 537 OFFCURVE",
"30 410 OFFCURVE",
"30 261 CURVE SMOOTH",
"30 111 OFFCURVE",
"112 -13 OFFCURVE",
"281 -13 CURVE SMOOTH"
);
},
{
closed = 1;
nodes = (
"226 138 OFFCURVE",
"211 200 OFFCURVE",
"211 264 CURVE SMOOTH",
"211 325 OFFCURVE",
"226 386 OFFCURVE",
"285 386 CURVE SMOOTH",
"345 386 OFFCURVE",
"357 326 OFFCURVE",
"357 264 CURVE SMOOTH",
"357 201 OFFCURVE",
"344 138 OFFCURVE",
"285 138 CURVE SMOOTH"
);
},
{
closed = 1;
nodes = (
"554 331 LINE",
"554 383 OFFCURVE",
"583 406 OFFCURVE",
"624 406 CURVE SMOOTH",
"666 406 OFFCURVE",
"696 382 OFFCURVE",
"696 331 CURVE"
);
}
);
width = 902;
},
{
guideLines = (
{
position = "{0, -5}";
},
{
position = "{0, 507}";
},
{
angle = 90;
position = "{520, 0}";
},
{
angle = 90;
position = "{542, 0}";
},
{
angle = 90;
position = "{504, 0}";
},
{
angle = 90;
position = "{504, 0}";
},
{
angle = 90;
position = "{526, 0}";
}
);
layerId = "9DFE6445-7062-4987-A7C3-244173BC9CEA";
paths = (
{
closed = 1;
nodes = (
"422 -5 OFFCURVE",
"491 78 OFFCURVE",
"521 160 CURVE",
"521 160 OFFCURVE",
"527 160 OFFCURVE",
"527 160 CURVE",
"558 72 OFFCURVE",
"626 -5 OFFCURVE",
"746 -5 CURVE SMOOTH",
"867 -5 OFFCURVE",
"936 74 OFFCURVE",
"962 154 CURVE",
"927 154 LINE",
"897 78 OFFCURVE",
"830 29 OFFCURVE",
"746 29 CURVE SMOOTH",
"633 29 OFFCURVE",
"545 133 OFFCURVE",
"545 250 CURVE SMOOTH",
"545 257 LINE",
"971 257 LINE",
"971 267 LINE SMOOTH",
"971 450 OFFCURVE",
"876 542 OFFCURVE",
"746 542 CURVE SMOOTH",
"628 542 OFFCURVE",
"558 464 OFFCURVE",
"527 375 CURVE",
"521 375 LINE",
"490 463 OFFCURVE",
"418 541 OFFCURVE",
"300 541 CURVE SMOOTH",
"141 541 OFFCURVE",
"62 400 OFFCURVE",
"62 268 CURVE SMOOTH",
"62 137 OFFCURVE",
"140 -5 OFFCURVE",
"300 -5 CURVE SMOOTH"
);
},
{
closed = 1;
nodes = (
"182 30 OFFCURVE",
"98 128 OFFCURVE",
"98 267 CURVE SMOOTH",
"98 402 OFFCURVE",
"177 507 OFFCURVE",
"296 507 CURVE SMOOTH",
"413 507 OFFCURVE",
"504 405 OFFCURVE",
"504 265 CURVE SMOOTH",
"504 126 OFFCURVE",
"413 28 OFFCURVE",
"296 29 CURVE SMOOTH"
);
},
{
closed = 1;
nodes = (
"545 289 LINE",
"553 414 OFFCURVE",
"630 507 OFFCURVE",
"746 507 CURVE SMOOTH",
"841 507 OFFCURVE",
"926 455 OFFCURVE",
"934 289 CURVE"
);
}
);
width = 1033;
}
);
unicode = 0153;
},
{
glyphname = p;
layers = (
{
guideLines = (
{
position = "{0, 542}";
},
{
position = "{0, -228}";
},
{
position = "{0, 137}";
},
{
position = "{0, -212}";
}
);
layerId = "306713D8-4F8C-486F-A8A4-9DD13D5E83DB";
paths = (
{
closed = 1;
nodes = (
"510 -10 OFFCURVE",
"579 97 OFFCURVE",
"579 264 CURVE SMOOTH",
"579 436 OFFCURVE",
"510 540 OFFCURVE",
"382 540 CURVE SMOOTH",
"279 540 OFFCURVE",
"244 472 OFFCURVE",
"240 462 CURVE",
"232 462 LINE",
"232 530 LINE",
"40 530 LINE",
"40 -212 LINE",
"232 -212 LINE",
"232 74 LINE",
"240 74 LINE",
"245 63 OFFCURVE",
"279 -10 OFFCURVE",
"382 -10 CURVE SMOOTH"
);
},
{
closed = 1;
nodes = (
"247 138 OFFCURVE",
"230 210 OFFCURVE",
"230 264 CURVE SMOOTH",
"230 316 OFFCURVE",
"246 387 OFFCURVE",
"308 387 CURVE SMOOTH",
"371 387 OFFCURVE",
"386 317 OFFCURVE",
"386 264 CURVE SMOOTH",
"386 210 OFFCURVE",
"371 138 OFFCURVE",
"308 138 CURVE SMOOTH"
);
}
);
width = 619;
},
{
guideLines = (
{
position = "{0, 484}";
},
{
position = "{0, 544}";
},
{
position = "{0, 407}";
},
{
position = "{0, 542}";
},
{
position = "{0, -225}";
},
{
position = "{0, -199}";
}
);
layerId = "9DFE6445-7062-4987-A7C3-244173BC9CEA";
paths = (
{
closed = 1;
nodes = (
"482 -5 OFFCURVE",
"565 121 OFFCURVE",
"565 268 CURVE SMOOTH",
"565 415 OFFCURVE",
"482 542 OFFCURVE",
"328 542 CURVE SMOOTH",
"222 542 OFFCURVE",
"164 478 OFFCURVE",
"132 413 CURVE",
"125 413 LINE",
"125 525 LINE",
"91 525 LINE",
"91 -199 LINE",
"125 -199 LINE",
"125 125 LINE",
"132 125 LINE",
"167 55 OFFCURVE",
"229 -5 OFFCURVE",
"332 -5 CURVE SMOOTH"
);
},
{
closed = 1;
nodes = (
"197 31 OFFCURVE",
"129 136 OFFCURVE",
"129 268 CURVE SMOOTH",
"129 401 OFFCURVE",
"197 506 OFFCURVE",
"329 506 CURVE SMOOTH",
"464 506 OFFCURVE",
"529 399 OFFCURVE",
"529 269 CURVE SMOOTH",
"529 137 OFFCURVE",
"463 31 OFFCURVE",
"329 31 CURVE SMOOTH"
);
}
);
width = 623;
}
);
leftKerningGroup = h;
rightKerningGroup = o;
unicode = 0070;
},
{
glyphname = thorn;
layers = (
{
layerId = "306713D8-4F8C-486F-A8A4-9DD13D5E83DB";
paths = (
{
closed = 1;
nodes = (
"510 -10 OFFCURVE",
"579 97 OFFCURVE",
"579 264 CURVE SMOOTH",
"579 436 OFFCURVE",
"510 540 OFFCURVE",
"382 540 CURVE SMOOTH",
"279 540 OFFCURVE",
"244 472 OFFCURVE",
"240 462 CURVE",
"232 462 LINE",
"232 751 LINE",
"40 751 LINE",
"40 -250 LINE",
"232 -250 LINE",
"232 74 LINE",
"240 74 LINE",
"245 63 OFFCURVE",
"279 -10 OFFCURVE",
"382 -10 CURVE SMOOTH"
);
},
{
closed = 1;
nodes = (
"247 138 OFFCURVE",
"230 210 OFFCURVE",
"230 264 CURVE SMOOTH",
"230 316 OFFCURVE",
"246 387 OFFCURVE",
"308 387 CURVE SMOOTH",
"371 387 OFFCURVE",
"386 317 OFFCURVE",
"386 264 CURVE SMOOTH",
"386 210 OFFCURVE",
"371 138 OFFCURVE",
"308 138 CURVE SMOOTH"
);
}
);
width = 619;
},
{
layerId = "9DFE6445-7062-4987-A7C3-244173BC9CEA";
paths = (
{
closed = 1;
nodes = (
"482 -5 OFFCURVE",
"565 121 OFFCURVE",
"565 268 CURVE SMOOTH",
"565 415 OFFCURVE",
"482 542 OFFCURVE",
"328 542 CURVE SMOOTH",
"222 542 OFFCURVE",
"164 481 OFFCURVE",
"132 416 CURVE",
"125 416 LINE",
"125 750 LINE",
"91 750 LINE",
"91 -225 LINE",
"125 -225 LINE",
"125 122 LINE",
"132 122 LINE",
"167 52 OFFCURVE",
"229 -5 OFFCURVE",
"332 -5 CURVE SMOOTH"
);
},
{
closed = 1;
nodes = (
"197 31 OFFCURVE",
"129 136 OFFCURVE",
"129 268 CURVE SMOOTH",
"129 401 OFFCURVE",
"197 506 OFFCURVE",
"329 506 CURVE SMOOTH",
"464 506 OFFCURVE",
"529 399 OFFCURVE",
"529 269 CURVE SMOOTH",
"529 137 OFFCURVE",
"463 31 OFFCURVE",
"329 31 CURVE SMOOTH"
);
}
);
width = 623;
}
);
unicode = 00FE;
},
{
glyphname = r;
layers = (
{
anchors = (
{
name = bottom;
position = "{211, 0}";
},
{
name = top;
position = "{240, 530}";
}
);
guideLines = (
{
angle = 90;
position = "{439, 0}";
}
);
layerId = "306713D8-4F8C-486F-A8A4-9DD13D5E83DB";
paths = (
{
closed = 1;
nodes = (
"240 0 LINE",
"240 231 LINE SMOOTH",
"240 325 OFFCURVE",
"269 364 OFFCURVE",
"358 364 CURVE SMOOTH",
"381 364 OFFCURVE",
"393 362 OFFCURVE",
"408 357 CURVE",
"417 529 LINE",
"410 530 OFFCURVE",
"402 530 OFFCURVE",
"393 530 CURVE SMOOTH",
"270 530 OFFCURVE",
"248 446 OFFCURVE",
"248 446 CURVE",
"240 446 LINE",
"240 530 LINE",
"50 530 LINE",
"50 0 LINE"
);
}
);
width = 422;
},
{
anchors = (
{
name = bottom;
position = "{159, 0}";
},
{
name = top;
position = "{150, 525}";
}
);
layerId = "9DFE6445-7062-4987-A7C3-244173BC9CEA";
paths = (
{
closed = 1;
nodes = (
"115 0 LINE",
"115 331 LINE SMOOTH",
"115 451 OFFCURVE",
"181 485 OFFCURVE",
"243 485 CURVE SMOOTH",
"268 485 OFFCURVE",
"279 483 OFFCURVE",
"303 476 CURVE",
"303 515 LINE",
"284 522 OFFCURVE",
"274 525 OFFCURVE",
"244 525 CURVE SMOOTH",
"150 525 OFFCURVE",
"120 441 OFFCURVE",
"120 441 CURVE",
"115 441 LINE",
"115 525 LINE",
"82 525 LINE",
"82 0 LINE"
);
}
);
width = 318;
}
);
leftKerningGroup = r;
rightKerningGroup = r;
unicode = 0072;
},
{
glyphname = s;
layers = (
{
anchors = (
{
name = bottom;
position = "{300, -5}";
},
{
name = top;
position = "{255, 550}";
}
);
guideLines = (
{
angle = 90;
position = "{238, 0}";
},
{
position = "{0, 540}";
},
{
position = "{0, -10}";
},
{
position = "{0, 375}";
},
{
position = "{0, 171}";
},
{
angle = 90;
position = "{468, 0}";
},
{
angle = 167.47;
position = "{271, 193}";
},
{
angle = 167.47;
position = "{299, 334}";
}
);
layerId = "306713D8-4F8C-486F-A8A4-9DD13D5E83DB";
paths = (
{
closed = 1;
nodes = (
"372 -10 OFFCURVE",
"467 55 OFFCURVE",
"467 165 CURVE SMOOTH",
"467 265 OFFCURVE",
"388 309 OFFCURVE",
"320 326 CURVE SMOOTH",
"264 340 LINE SMOOTH",
"238 346 OFFCURVE",
"207 352 OFFCURVE",
"207 378 CURVE SMOOTH",
"207 398 OFFCURVE",
"221 407 OFFCURVE",
"240 407 CURVE SMOOTH",
"266 407 OFFCURVE",
"276 389 OFFCURVE",
"276 373 CURVE SMOOTH",
"276 370 LINE",
"460 370 LINE",
"460 375 LINE",
"460 456 OFFCURVE",
"387 540 OFFCURVE",
"247 540 CURVE SMOOTH",
"131 540 OFFCURVE",
"43 482 OFFCURVE",
"43 374 CURVE SMOOTH",
"43 248 OFFCURVE",
"162 216 OFFCURVE",
"201 207 CURVE SMOOTH",
"252 195 LINE SMOOTH",
"272 190 OFFCURVE",
"292 182 OFFCURVE",
"292 162 CURVE SMOOTH",
"292 148 OFFCURVE",
"281 133 OFFCURVE",
"255 133 CURVE SMOOTH",
"226 133 OFFCURVE",
"214 151 OFFCURVE",
"214 167 CURVE SMOOTH",
"214 175 LINE",
"30 175 LINE",
"30 167 LINE SMOOTH",
"30 78 OFFCURVE",
"107 -10 OFFCURVE",
"251 -10 CURVE SMOOTH"
);
}
);
width = 492;
},
{
anchors = (
{
name = bottom;
position = "{266, -6}";
},
{
name = top;
position = "{251, 525}";
}
);
guideLines = (
{
position = "{0, 33}";
},
{
position = "{0, -5}";
},
{
position = "{0, 507}";
}
);
layerId = "9DFE6445-7062-4987-A7C3-244173BC9CEA";
paths = (
{
closed = 1;
nodes = (
"364 -5 OFFCURVE",
"445 57 OFFCURVE",
"445 147 CURVE SMOOTH",
"445 245 OFFCURVE",
"360 277 OFFCURVE",
"284 287 CURVE SMOOTH",
"199 298 LINE SMOOTH",
"146 305 OFFCURVE",
"107 342 OFFCURVE",
"107 394 CURVE SMOOTH",
"107 459 OFFCURVE",
"163 508 OFFCURVE",
"249 508 CURVE SMOOTH",
"363 508 OFFCURVE",
"396 424 OFFCURVE",
"396 381 CURVE",
"396 379 LINE",
"433 379 LINE",
"433 382 LINE SMOOTH",
"433 467 OFFCURVE",
"367 542 OFFCURVE",
"249 542 CURVE SMOOTH",
"148 542 OFFCURVE",
"70 489 OFFCURVE",
"70 394 CURVE SMOOTH",
"70 313 OFFCURVE",
"128 272 OFFCURVE",
"220 260 CURVE SMOOTH",
"298 250 LINE SMOOTH",
"354 243 OFFCURVE",
"407 211 OFFCURVE",
"407 147 CURVE SMOOTH",
"407 68 OFFCURVE",
"338 30 OFFCURVE",
"259 30 CURVE SMOOTH",
"146 30 OFFCURVE",
"94 106 OFFCURVE",
"94 170 CURVE",
"94 172 LINE",
"57 172 LINE",
"57 169 LINE SMOOTH",
"57 85 OFFCURVE",
"129 -5 OFFCURVE",
"257 -5 CURVE SMOOTH"
);
}
);
width = 498;
}
);
leftKerningGroup = s;
rightKerningGroup = s;
unicode = 0073;
},
{
glyphname = germandbls;
layers = (
{
guideLines = (
{
position = "{0, 571}";
},
{
position = "{0, 719}";
}
);
layerId = "306713D8-4F8C-486F-A8A4-9DD13D5E83DB";
paths = (
{
closed = 1;
nodes = (
"356 571 OFFCURVE",
"390 554 OFFCURVE",
"390 507 CURVE SMOOTH",
"390 474 OFFCURVE",
"373 448 OFFCURVE",
"321 448 CURVE SMOOTH",
"268 448 LINE",
"268 312 LINE",
"315 312 LINE SMOOTH",
"332 312 OFFCURVE",
"408 312 OFFCURVE",
"408 233 CURVE SMOOTH",
"408 178 OFFCURVE",
"369 147 OFFCURVE",
"303 147 CURVE SMOOTH",
"286 147 OFFCURVE",
"274 149 OFFCURVE",
"268 151 CURVE",
"268 -4 LINE",
"273 -5 OFFCURVE",
"306 -11 OFFCURVE",
"340 -11 CURVE SMOOTH",
"476 -11 OFFCURVE",
"579 83 OFFCURVE",
"579 206 CURVE SMOOTH",
"579 334 OFFCURVE",
"469 372 OFFCURVE",
"469 372 CURVE",
"469 379 LINE",
"469 379 OFFCURVE",
"565 402 OFFCURVE",
"565 511 CURVE SMOOTH",
"565 595 OFFCURVE",
"510 719 OFFCURVE",
"297 719 CURVE SMOOTH",
"131 719 OFFCURVE",
"40 644 OFFCURVE",
"40 476 CURVE SMOOTH",
"40 0 LINE",
"229 0 LINE",
"229 495 LINE SMOOTH",
"229 515 OFFCURVE",
"229 571 OFFCURVE",
"311 571 CURVE SMOOTH"
);
}
);
width = 621;
},
{
layerId = "9DFE6445-7062-4987-A7C3-244173BC9CEA";
paths = (
{
closed = 1;
nodes = (
"368 681 OFFCURVE",
"431 631 OFFCURVE",
"431 534 CURVE SMOOTH",
"431 410 OFFCURVE",
"326 384 OFFCURVE",
"256 384 CURVE SMOOTH",
"193 384 LINE",
"193 352 LINE",
"256 352 LINE SMOOTH",
"357 352 OFFCURVE",
"450 310 OFFCURVE",
"450 191 CURVE SMOOTH",
"450 88 OFFCURVE",
"381 26 OFFCURVE",
"270 26 CURVE SMOOTH",
"250 26 OFFCURVE",
"228 28 OFFCURVE",
"215 30 CURVE",
"215 -2 LINE",
"228 -5 OFFCURVE",
"249 -7 OFFCURVE",
"270 -7 CURVE SMOOTH",
"417 -7 OFFCURVE",
"483 86 OFFCURVE",
"483 191 CURVE SMOOTH",
"483 339 OFFCURVE",
"352 366 OFFCURVE",
"343 366 CURVE",
"343 371 LINE",
"357 371 OFFCURVE",
"464 409 OFFCURVE",
"464 539 CURVE SMOOTH",
"464 636 OFFCURVE",
"404 715 OFFCURVE",
"277 715 CURVE SMOOTH",
"92 715 OFFCURVE",
"92 547 OFFCURVE",
"92 491 CURVE SMOOTH",
"92 -4 LINE",
"126 -4 LINE",
"126 491 LINE SMOOTH",
"126 545 OFFCURVE",
"126 681 OFFCURVE",
"277 681 CURVE SMOOTH"
);
}
);
width = 543;
}
);
unicode = 00DF;
},
{
glyphname = t;
layers = (
{
anchors = (
{
name = bottom;
position = "{292, 0}";
},
{
name = center;
position = "{225, 265}";
},
{
name = top;
position = "{225, 530}";
},
{
name = topright;
position = "{429, 530}";
}
);
guideLines = (
{
angle = 90;
position = "{141, 0}";
},
{
angle = 90;
position = "{4, 152}";
},
{
position = "{0, 135}";
},
{
angle = 90;
position = "{292, 0}";
},
{
angle = 270;
position = "{102, 493}";
}
);
layerId = "306713D8-4F8C-486F-A8A4-9DD13D5E83DB";
paths = (
{
closed = 1;
nodes = (
"345 -3 OFFCURVE",
"404 4 OFFCURVE",
"404 4 CURVE",
"404 134 LINE",
"395 133 OFFCURVE",
"383 132 OFFCURVE",
"371 132 CURVE SMOOTH",
"293 132 OFFCURVE",
"293 165 OFFCURVE",
"293 218 CURVE SMOOTH",
"293 700 LINE",
"103 700 LINE",
"103 177 LINE SMOOTH",
"103 97 OFFCURVE",
"103 -3 OFFCURVE",
"294 -3 CURVE SMOOTH"
);
},
{
closed = 1;
nodes = (
"404 383 LINE",
"404 530 LINE",
"25 530 LINE",
"25 383 LINE"
);
}
);
width = 449;
},
{
anchors = (
{
name = bottom;
position = "{226, -6}";
},
{
name = center;
position = "{183, 263}";
},
{
name = top;
position = "{183, 525}";
},
{
name = topright;
position = "{345, 525}";
}
);
guideLines = (
{
position = "{0, 525}";
},
{
angle = 90;
position = "{310, 0}";
},
{
angle = 180;
position = "{337, 34}";
},
{
position = "{0, -5}";
}
);
layerId = "9DFE6445-7062-4987-A7C3-244173BC9CEA";
paths = (
{
closed = 1;
nodes = (
"274 -5 OFFCURVE",
"296 0 OFFCURVE",
"310 5 CURVE",
"310 33 LINE",
"296 29 OFFCURVE",
"273 24 OFFCURVE",
"248 24 CURVE SMOOTH",
"178 24 OFFCURVE",
"178 54 OFFCURVE",
"178 119 CURVE SMOOTH",
"178 700 LINE",
"144 700 LINE",
"143 111 LINE SMOOTH",
"143 31 OFFCURVE",
"158 -5 OFFCURVE",
"246 -5 CURVE SMOOTH"
);
},
{
closed = 1;
nodes = (
"310 495 LINE",
"310 525 LINE",
"35 525 LINE",
"35 495 LINE"
);
}
);
width = 365;
}
);
leftKerningGroup = t;
rightKerningGroup = t;
unicode = 0074;
},
{
glyphname = tbar;
layers = (
{
layerId = "306713D8-4F8C-486F-A8A4-9DD13D5E83DB";
paths = (
{
closed = 1;
nodes = (
"345 -3 OFFCURVE",
"404 4 OFFCURVE",
"404 4 CURVE",
"404 134 LINE",
"395 133 OFFCURVE",
"383 132 OFFCURVE",
"371 132 CURVE SMOOTH",
"293 132 OFFCURVE",
"293 165 OFFCURVE",
"293 218 CURVE SMOOTH",
"293 700 LINE",
"103 700 LINE",
"103 177 LINE SMOOTH",
"103 97 OFFCURVE",
"103 -3 OFFCURVE",
"294 -3 CURVE SMOOTH"
);
},
{
closed = 1;
nodes = (
"404 232 LINE",
"404 332 LINE",
"25 332 LINE",
"25 232 LINE"
);
},
{
closed = 1;
nodes = (
"404 383 LINE",
"404 530 LINE",
"25 530 LINE",
"25 383 LINE"
);
}
);
width = 449;
},
{
layerId = "9DFE6445-7062-4987-A7C3-244173BC9CEA";
paths = (
{
closed = 1;
nodes = (
"275 -5 OFFCURVE",
"297 0 OFFCURVE",
"311 5 CURVE",
"311 33 LINE",
"297 29 OFFCURVE",
"274 24 OFFCURVE",
"249 24 CURVE SMOOTH",
"179 24 OFFCURVE",
"179 62 OFFCURVE",
"179 127 CURVE SMOOTH",
"179 700 LINE",
"145 700 LINE",
"144 127 LINE SMOOTH",
"144 47 OFFCURVE",
"153 -5 OFFCURVE",
"247 -5 CURVE SMOOTH"
);
},
{
closed = 1;
nodes = (
"311 296 LINE",
"311 322 LINE",
"36 322 LINE",
"36 296 LINE"
);
},
{
closed = 1;
nodes = (
"311 495 LINE",
"311 525 LINE",
"36 525 LINE",
"36 495 LINE"
);
}
);
width = 365;
}
);
unicode = 0167;
},
{
glyphname = u;
leftMetricsKey = n;
rightMetricsKey = n;
layers = (
{
anchors = (
{
name = bottom;
position = "{291, 0}";
},
{
name = ogonek;
position = "{581, 51}";
},
{
name = top;
position = "{287, 530}";
},
{
name = topright;
position = "{546, 323}";
}
);
guideLines = (
{
position = "{0, 223}";
},
{
angle = 90;
position = "{44, -61}";
},
{
angle = 90;
position = "{182, 0}";
},
{
position = "{0, 74}";
},
{
position = "{0, -10}";
}
);
layerId = "306713D8-4F8C-486F-A8A4-9DD13D5E83DB";
paths = (
{
closed = 1;
nodes = (
"349 530 LINE",
"349 230 LINE SMOOTH",
"349 191 OFFCURVE",
"343 143 OFFCURVE",
"289 143 CURVE SMOOTH",
"237 143 OFFCURVE",
"230 189 OFFCURVE",
"230 230 CURVE SMOOTH",
"230 530 LINE",
"40 530 LINE",
"40 196 LINE SMOOTH",
"40 140 OFFCURVE",
"46 -10 OFFCURVE",
"211 -10 CURVE SMOOTH",
"309 -10 OFFCURVE",
"342 68 OFFCURVE",
"342 68 CURVE",
"349 68 LINE",
"349 0 LINE",
"541 0 LINE",
"541 530 LINE"
);
}
);
width = 581;
},
{
anchors = (
{
name = bottom;
position = "{290, 0}";
},
{
name = ogonek;
position = "{543, 27}";
},
{
name = top;
position = "{290, 525}";
},
{
name = topright;
position = "{564, 525}";
}
);
guideLines = (
{
angle = 180;
position = "{334, -9}";
}
);
layerId = "9DFE6445-7062-4987-A7C3-244173BC9CEA";
paths = (
{
closed = 1;
nodes = (
"496 525 LINE",
"496 227 LINE SMOOTH",
"496 107 OFFCURVE",
"417 30 OFFCURVE",
"308 30 CURVE SMOOTH",
"213 30 OFFCURVE",
"126 88 OFFCURVE",
"126 227 CURVE SMOOTH",
"126 525 LINE",
"92 525 LINE",
"92 227 LINE SMOOTH",
"92 88 OFFCURVE",
"172 -9 OFFCURVE",
"299 -9 CURVE SMOOTH",
"443 -9 OFFCURVE",
"490 116 OFFCURVE",
"490 116 CURVE",
"496 116 LINE",
"496 0 LINE",
"530 0 LINE",
"530 525 LINE"
);
}
);
width = 612;
}
);
leftKerningGroup = u;
rightKerningGroup = u;
unicode = 0075;
},
{
glyphname = v;
layers = (
{
guideLines = (
{
position = "{0, 189}";
},
{
angle = 286.86;
position = "{92, 259}";
},
{
angle = 73.14;
position = "{472, 259}";
}
);
layerId = "306713D8-4F8C-486F-A8A4-9DD13D5E83DB";
paths = (
{
closed = 1;
nodes = (
"393 0 LINE",
"554 530 LINE",
"376 530 LINE",
"285 190 LINE",
"278 190 LINE",
"184 530 LINE",
"6 530 LINE",
"166 0 LINE"
);
}
);
width = 560;
},
{
guideLines = (
{
angle = 90;
position = "{274, 0}";
},
{
position = "{0, 0}";
},
{
position = "{0, 41}";
},
{
angle = 68.57;
position = "{401, 256}";
},
{
angle = 291.43;
position = "{187, 256}";
},
{
angle = 291.43;
position = "{148, 256}";
}
);
layerId = "9DFE6445-7062-4987-A7C3-244173BC9CEA";
paths = (
{
closed = 1;
nodes = (
"297 0 LINE",
"504 525 LINE",
"467 525 LINE",
"276 41 LINE",
"272 41 LINE",
"82 525 LINE",
"45 525 LINE",
"251 0 LINE"
);
}
);
width = 549;
}
);
leftKerningGroup = v;
rightKerningGroup = v;
unicode = 0076;
},
{
glyphname = w;
layers = (
{
anchors = (
{
name = bottom;
position = "{416, 0}";
},
{
name = top;
position = "{416, 530}";
}
);
guideLines = (
{
angle = 90;
position = "{416, 0}";
},
{
position = "{0, 136}";
},
{
angle = 283.67;
position = "{247, 259}";
},
{
angle = 283.67;
position = "{73, 259}";
},
{
angle = 76.75;
position = "{757, 259}";
}
);
layerId = "306713D8-4F8C-486F-A8A4-9DD13D5E83DB";
paths = (
{
closed = 1;
nodes = (
"361 0 LINE",
"412 250 LINE",
"420 250 LINE",
"471 0 LINE",
"696 0 LINE",
"821 530 LINE",
"646 530 LINE",
"587 205 LINE",
"580 205 LINE",
"497 530 LINE",
"331 530 LINE",
"252 205 LINE",
"245 205 LINE",
"182 530 LINE",
"7 530 LINE",
"136 0 LINE"
);
}
);
width = 828;
},
{
anchors = (
{
name = bottom;
position = "{406, 0}";
},
{
name = top;
position = "{406, 525}";
}
);
guideLines = (
{
position = "{0, 41}";
},
{
angle = 90;
position = "{406, 0}";
},
{
angle = 286.42;
position = "{162, 255}";
},
{
angle = 286.42;
position = "{126, 255}";
},
{
angle = 251.67;
position = "{346, 282}";
},
{
angle = 251.67;
position = "{310, 282}";
},
{
angle = 73.58;
position = "{687, 255}";
}
);
layerId = "9DFE6445-7062-4987-A7C3-244173BC9CEA";
paths = (
{
closed = 1;
nodes = (
"253 0 LINE",
"403 453 LINE",
"409 453 LINE",
"560 0 LINE",
"612 0 LINE",
"767 525 LINE",
"731 525 LINE",
"588 39 LINE",
"585 39 LINE",
"423 525 LINE",
"390 525 LINE",
"229 39 LINE",
"226 39 LINE",
"82 525 LINE",
"46 525 LINE",
"201 0 LINE"
);
}
);
width = 812;
}
);
leftKerningGroup = v;
rightKerningGroup = v;
unicode = 0077;
},
{
glyphname = x;
layers = (
{
guideLines = (
{
angle = 240.7;
position = "{96, 138}";
},
{
angle = 120.16;
position = "{487, 138}";
},
{
angle = 60.04;
position = "{487, 392}";
},
{
angle = 299.11;
position = "{96, 392}";
}
);
layerId = "306713D8-4F8C-486F-A8A4-9DD13D5E83DB";
paths = (
{
closed = 1;
nodes = (
"225 0 LINE",
"290 151 LINE",
"295 151 LINE",
"362 0 LINE",
"567 0 LINE",
"413 264 LINE",
"567 530 LINE",
"362 530 LINE",
"295 380 LINE",
"290 380 LINE",
"225 530 LINE",
"19 530 LINE",
"167 264 LINE",
"19 0 LINE"
);
}
);
width = 595;
},
{
guideLines = (
{
angle = 305.67;
position = "{139, 388}";
},
{
angle = 54.95;
position = "{370, 388}";
},
{
angle = 234.87;
position = "{139, 138}";
},
{
angle = 124.52;
position = "{370, 138}";
}
);
layerId = "9DFE6445-7062-4987-A7C3-244173BC9CEA";
paths = (
{
closed = 1;
nodes = (
"86 0 LINE",
"254 243 LINE",
"256 243 LINE",
"422 0 LINE",
"465 0 LINE",
"283 264 LINE",
"466 525 LINE",
"423 525 LINE",
"256 280 LINE",
"254 280 LINE",
"84 525 LINE",
"41 525 LINE",
"228 264 LINE",
"42 0 LINE"
);
}
);
width = 535;
}
);
leftKerningGroup = x;
unicode = 0078;
},
{
glyphname = y;
layers = (
{
anchors = (
{
name = bottom;
position = "{481, 0}";
},
{
name = top;
position = "{288, 530}";
}
);
guideLines = (
{
angle = 70.12;
position = "{422, 130}";
},
{
angle = 248.49;
position = "{150, -122}";
},
{
angle = 90;
position = "{288, 0}";
},
{
angle = 90;
position = "{481, 0}";
},
{
angle = 289.23;
position = "{107, 259}";
}
);
layerId = "306713D8-4F8C-486F-A8A4-9DD13D5E83DB";
paths = (
{
closed = 1;
nodes = (
"566 530 LINE",
"375 530 LINE",
"291 208 LINE",
"285 208 LINE",
"203 530 LINE",
"12 530 LINE",
"197 -1 LINE",
"187 -27 LINE SMOOTH",
"170 -72 OFFCURVE",
"150 -104 OFFCURVE",
"81 -104 CURVE SMOOTH",
"70 -104 OFFCURVE",
"50 -103 OFFCURVE",
"39 -101 CURVE",
"39 -231 LINE",
"61 -235 OFFCURVE",
"82 -243 OFFCURVE",
"125 -243 CURVE SMOOTH",
"301 -243 OFFCURVE",
"338 -104 OFFCURVE",
"347 -78 CURVE SMOOTH"
);
}
);
width = 552;
},
{
anchors = (
{
name = bottom;
position = "{382, 0}";
},
{
name = top;
position = "{259, 525}";
}
);
guideLines = (
{
angle = 66.41;
position = "{327, 149}";
},
{
angle = 247.2;
position = "{187, -84}";
},
{
position = "{0, -199}";
},
{
angle = 90;
position = "{259, 0}";
},
{
angle = 90;
position = "{382, 0}";
},
{
angle = 292.4;
position = "{141, 276}";
},
{
angle = 111.87;
position = "{167, 301}";
},
{
angle = 246.82;
position = "{358, 301}";
}
);
layerId = "9DFE6445-7062-4987-A7C3-244173BC9CEA";
paths = (
{
closed = 1;
nodes = (
"491 525 LINE",
"452 525 LINE",
"262 78 LINE",
"256 78 LINE",
"77 525 LINE",
"38 525 LINE",
"238 39 LINE",
"207 -36 LINE SMOOTH",
"178 -105 OFFCURVE",
"161 -152 OFFCURVE",
"92 -152 CURVE SMOOTH",
"78 -152 OFFCURVE",
"62 -150 OFFCURVE",
"49 -147 CURVE",
"49 -178 LINE",
"62 -182 OFFCURVE",
"80 -184 OFFCURVE",
"96 -184 CURVE SMOOTH",
"182 -184 OFFCURVE",
"210 -118 OFFCURVE",
"231 -70 CURVE SMOOTH"
);
}
);
width = 530;
}
);
leftKerningGroup = y;
unicode = 0079;
},
{
glyphname = z;
layers = (
{
anchors = (
{
name = bottom;
position = "{247, 0}";
},
{
name = center;
position = "{255, 265}";
},
{
name = top;
position = "{255, 530}";
}
);
layerId = "306713D8-4F8C-486F-A8A4-9DD13D5E83DB";
paths = (
{
closed = 1;
nodes = (
"454 0 LINE",
"454 147 LINE",
"250 147 LINE",
"250 150 LINE",
"454 384 LINE",
"454 533 LINE",
"56 533 LINE",
"56 386 LINE",
"255 386 LINE",
"255 383 LINE",
"51 149 LINE",
"51 0 LINE"
);
}
);
width = 493;
},
{
anchors = (
{
name = bottom;
position = "{256, 0}";
},
{
name = center;
position = "{256, 263}";
},
{
name = top;
position = "{256, 525}";
}
);
layerId = "9DFE6445-7062-4987-A7C3-244173BC9CEA";
paths = (
{
closed = 1;
nodes = (
"455 0 LINE",
"455 34 LINE",
"97 34 LINE",
"97 36 LINE",
"455 495 LINE",
"455 525 LINE",
"75 525 LINE",
"75 491 LINE",
"410 491 LINE",
"410 489 LINE",
"52 30 LINE",
"52 0 LINE"
);
}
);
width = 502;
}
);
leftKerningGroup = z;
rightKerningGroup = z;
unicode = 007A;
},
{
glyphname = a.ss01;
layers = (
{
anchors = (
{
name = bottom;
position = "{292, 0}";
},
{
name = ogonek;
position = "{509, 10}";
},
{
name = top;
position = "{291, 530}";
}
);
guideLines = (
{
angle = 90;
position = "{684, 0}";
},
{
angle = 90;
position = "{287, 0}";
},
{
position = "{0, -10}";
},
{
position = "{0, 21}";
},
{
angle = 90;
position = "{544, 0}";
},
{
position = "{0, 400}";
},
{
position = "{0, 53}";
},
{
position = "{0, 540}";
},
{
position = "{0, 37}";
},
{
angle = 90;
position = "{35, 0}";
},
{
angle = 90;
position = "{218, 0}";
},
{
position = "{0, 400}";
},
{
position = "{0, 74}";
},
{
position = "{0, 211}";
},
{
position = "{0, 318}";
}
);
layerId = "306713D8-4F8C-486F-A8A4-9DD13D5E83DB";
paths = (
{
closed = 1;
nodes = (
"269 -10 OFFCURVE",
"316 28 OFFCURVE",
"333 60 CURVE",
"341 60 LINE",
"341 0 LINE",
"526 0 LINE",
"526 345 LINE SMOOTH",
"526 421 OFFCURVE",
"492 540 OFFCURVE",
"286 540 CURVE SMOOTH",
"78 540 OFFCURVE",
"51 404 OFFCURVE",
"51 348 CURVE SMOOTH",
"51 345 LINE",
"227 345 LINE",
"227 348 LINE SMOOTH",
"227 381 OFFCURVE",
"245 400 OFFCURVE",
"283 400 CURVE SMOOTH",
"322 400 OFFCURVE",
"341 381 OFFCURVE",
"341 344 CURVE SMOOTH",
"341 318 LINE",
"259 318 LINE SMOOTH",
"113 318 OFFCURVE",
"35 252 OFFCURVE",
"35 144 CURVE SMOOTH",
"35 52 OFFCURVE",
"95 -10 OFFCURVE",
"193 -10 CURVE SMOOTH"
);
},
{
closed = 1;
nodes = (
"237 118 OFFCURVE",
"218 138 OFFCURVE",
"218 165 CURVE SMOOTH",
"218 205 OFFCURVE",
"259 211 OFFCURVE",
"282 211 CURVE SMOOTH",
"341 211 LINE",
"341 191 LINE SMOOTH",
"341 152 OFFCURVE",
"313 118 OFFCURVE",
"270 118 CURVE SMOOTH"
);
}
);
width = 566;
},
{
anchors = (
{
name = bottom;
position = "{280, 0}";
},
{
name = ogonek;
position = "{504, 10}";
},
{
name = top;
position = "{281, 542}";
}
);
guideLines = (
{
angle = 90;
position = "{444, 0}";
},
{
position = "{0, 33}";
},
{
position = "{0, 349}";
},
{
angle = 90;
position = "{416, 0}";
},
{
position = "{0, -5}";
},
{
position = "{0, 507}";
},
{
position = "{0, 542}";
},
{
position = "{0, 256}";
},
{
position = "{0, 289}";
},
{
angle = 90;
position = "{204, 0}";
},
{
angle = 90;
position = "{278, 0}";
},
{
angle = 90;
position = "{96, 0}";
}
);
layerId = "9DFE6445-7062-4987-A7C3-244173BC9CEA";
paths = (
{
closed = 1;
nodes = (
"382 -5 OFFCURVE",
"430 92 OFFCURVE",
"435 103 CURVE",
"443 103 LINE",
"443 0 LINE",
"478 0 LINE",
"478 349 LINE SMOOTH",
"478 469 OFFCURVE",
"400 542 OFFCURVE",
"276 542 CURVE SMOOTH",
"179 542 OFFCURVE",
"75 498 OFFCURVE",
"75 366 CURVE",
"75 364 LINE",
"110 364 LINE",
"110 366 LINE",
"110 447 OFFCURVE",
"161 509 OFFCURVE",
"275 509 CURVE SMOOTH",
"426 509 OFFCURVE",
"444 399 OFFCURVE",
"444 349 CURVE SMOOTH",
"444 289 LINE",
"244 289 LINE SMOOTH",
"205 289 OFFCURVE",
"55 289 OFFCURVE",
"55 152 CURVE SMOOTH",
"55 55 OFFCURVE",
"132 -5 OFFCURVE",
"243 -5 CURVE SMOOTH"
);
},
{
closed = 1;
nodes = (
"152 33 OFFCURVE",
"92 74 OFFCURVE",
"92 152 CURVE SMOOTH",
"92 256 OFFCURVE",
"195 256 OFFCURVE",
"244 256 CURVE SMOOTH",
"443 256 LINE",
"443 200 LINE SMOOTH",
"443 120 OFFCURVE",
"371 33 OFFCURVE",
"241 33 CURVE SMOOTH"
);
}
);
width = 560;
}
);
leftKerningGroup = a;
rightKerningGroup = a;
},
{
glyphname = ae.ss01;
layers = (
{
guideLines = (
{
angle = 90;
position = "{411, 0}";
},
{
position = "{0, 396}";
},
{
position = "{0, 540}";
},
{
position = "{0, 493}";
},
{
angle = 90;
position = "{403, 0}";
},
{
position = "{0, 211}";
},
{
position = "{0, 321}";
}
);
layerId = "306713D8-4F8C-486F-A8A4-9DD13D5E83DB";
paths = (
{
closed = 1;
nodes = (
"734 -10 OFFCURVE",
"815 67 OFFCURVE",
"843 176 CURVE",
"657 176 LINE",
"646 147 OFFCURVE",
"622 137 OFFCURVE",
"595 137 CURVE SMOOTH",
"547 137 OFFCURVE",
"525 169 OFFCURVE",
"525 204 CURVE SMOOTH",
"525 212 LINE",
"845 212 LINE",
"845 264 LINE SMOOTH",
"845 448 OFFCURVE",
"742 540 OFFCURVE",
"595 540 CURVE SMOOTH",
"429 540 OFFCURVE",
"345 428 OFFCURVE",
"345 288 CURVE SMOOTH",
"345 240 LINE SMOOTH",
"345 99 OFFCURVE",
"431 -10 OFFCURVE",
"596 -10 CURVE SMOOTH"
);
},
{
closed = 1;
nodes = (
"237 118 OFFCURVE",
"218 138 OFFCURVE",
"218 165 CURVE SMOOTH",
"218 205 OFFCURVE",
"259 211 OFFCURVE",
"282 211 CURVE SMOOTH",
"341 211 LINE",
"341 191 LINE SMOOTH",
"341 152 OFFCURVE",
"313 118 OFFCURVE",
"270 118 CURVE SMOOTH"
);
},
{
closed = 1;
nodes = (
"328 -10 OFFCURVE",
"388 33 OFFCURVE",
"411 60 CURVE",
"526 331 LINE",
"526 407 OFFCURVE",
"493 540 OFFCURVE",
"287 540 CURVE SMOOTH",
"74 540 OFFCURVE",
"53 397 OFFCURVE",
"51 344 CURVE",
"227 344 LINE",
"230 388 OFFCURVE",
"264 396 OFFCURVE",
"287 396 CURVE SMOOTH",
"328 396 OFFCURVE",
"341 369 OFFCURVE",
"341 337 CURVE SMOOTH",
"341 321 LINE",
"272 321 LINE SMOOTH",
"117 321 OFFCURVE",
"35 262 OFFCURVE",
"35 155 CURVE SMOOTH",
"35 46 OFFCURVE",
"121 -10 OFFCURVE",
"231 -10 CURVE SMOOTH"
);
},
{
closed = 1;
nodes = (
"526 330 LINE SMOOTH",
"526 376 OFFCURVE",
"557 396 OFFCURVE",
"594 396 CURVE SMOOTH",
"632 396 OFFCURVE",
"664 375 OFFCURVE",
"664 330 CURVE SMOOTH",
"664 321 LINE",
"526 321 LINE"
);
}
);
width = 875;
},
{
guideLines = (
{
angle = 90;
position = "{503, 0}";
},
{
angle = 90;
position = "{527, 0}";
},
{
position = "{0, 289}";
},
{
angle = 90;
position = "{438, 0}";
},
{
angle = 90;
position = "{468, 0}";
},
{
angle = 90;
position = "{97, 0}";
},
{
angle = 90;
position = "{205, 0}";
},
{
angle = 90;
position = "{279, 0}";
},
{
angle = 90;
position = "{464, 0}";
}
);
layerId = "9DFE6445-7062-4987-A7C3-244173BC9CEA";
paths = (
{
closed = 1;
nodes = (
"816 -5 OFFCURVE",
"885 94 OFFCURVE",
"895 189 CURVE",
"862 189 LINE",
"849 99 OFFCURVE",
"787 31 OFFCURVE",
"672 31 CURVE SMOOTH",
"550 31 OFFCURVE",
"475 123 OFFCURVE",
"475 234 CURVE SMOOTH",
"475 257 LINE",
"899 257 LINE",
"899 281 LINE SMOOTH",
"899 464 OFFCURVE",
"791 542 OFFCURVE",
"672 542 CURVE SMOOTH",
"537 542 OFFCURVE",
"439 439 OFFCURVE",
"439 310 CURVE SMOOTH",
"439 226 LINE SMOOTH",
"439 97 OFFCURVE",
"537 -5 OFFCURVE",
"672 -5 CURVE SMOOTH"
);
},
{
closed = 1;
nodes = (
"155 33 OFFCURVE",
"97 71 OFFCURVE",
"97 147 CURVE SMOOTH",
"97 257 OFFCURVE",
"219 257 OFFCURVE",
"279 257 CURVE SMOOTH",
"439 257 LINE",
"439 200 LINE SMOOTH",
"439 120 OFFCURVE",
"372 33 OFFCURVE",
"241 33 CURVE SMOOTH"
);
},
{
closed = 1;
nodes = (
"339 -5 OFFCURVE",
"438 47 OFFCURVE",
"472 166 CURVE",
"471 367 LINE",
"456 482 OFFCURVE",
"376 537 OFFCURVE",
"273 537 CURVE SMOOTH",
"172 537 OFFCURVE",
"89 483 OFFCURVE",
"69 386 CURVE",
"104 386 LINE",
"116 434 OFFCURVE",
"156 504 OFFCURVE",
"271 504 CURVE SMOOTH",
"423 504 OFFCURVE",
"440 381 OFFCURVE",
"440 342 CURVE SMOOTH",
"440 289 LINE",
"279 289 LINE SMOOTH",
"227 289 OFFCURVE",
"60 289 OFFCURVE",
"60 148 CURVE SMOOTH",
"60 53 OFFCURVE",
"135 -5 OFFCURVE",
"240 -5 CURVE SMOOTH"
);
},
{
closed = 1;
nodes = (
"475 302 LINE SMOOTH",
"475 413 OFFCURVE",
"547 506 OFFCURVE",
"672 506 CURVE SMOOTH",
"791 506 OFFCURVE",
"863 413 OFFCURVE",
"863 302 CURVE SMOOTH",
"863 289 LINE",
"475 289 LINE"
);
}
);
width = 971;
}
);
},
{
glyphname = c.ss01;
layers = (
{
anchors = (
{
name = bottom;
position = "{318, 0}";
},
{
name = top;
position = "{285, 530}";
}
);
guideLines = (
{
position = "{0, 140}";
}
);
layerId = "306713D8-4F8C-486F-A8A4-9DD13D5E83DB";
paths = (
{
closed = 1;
nodes = (
"443 -10 OFFCURVE",
"524 90 OFFCURVE",
"536 212 CURVE",
"356 212 LINE",
"353 172 OFFCURVE",
"330 140 OFFCURVE",
"285 140 CURVE SMOOTH",
"234 140 OFFCURVE",
"210 181 OFFCURVE",
"210 240 CURVE SMOOTH",
"210 288 LINE SMOOTH",
"210 347 OFFCURVE",
"234 389 OFFCURVE",
"285 389 CURVE SMOOTH",
"331 389 OFFCURVE",
"353 357 OFFCURVE",
"356 318 CURVE",
"536 318 LINE",
"524 440 OFFCURVE",
"442 540 OFFCURVE",
"285 540 CURVE SMOOTH",
"116 540 OFFCURVE",
"30 428 OFFCURVE",
"30 288 CURVE SMOOTH",
"30 240 LINE SMOOTH",
"30 99 OFFCURVE",
"118 -10 OFFCURVE",
"285 -10 CURVE SMOOTH"
);
}
);
width = 566;
},
{
anchors = (
{
name = bottom;
position = "{313, -5}";
},
{
name = top;
position = "{297, 525}";
}
);
guideLines = (
{
position = "{0, -5}";
},
{
angle = 90;
position = "{313, 0}";
}
);
layerId = "9DFE6445-7062-4987-A7C3-244173BC9CEA";
paths = (
{
closed = 1;
nodes = (
"439 -5 OFFCURVE",
"508 94 OFFCURVE",
"518 189 CURVE",
"485 189 LINE",
"472 99 OFFCURVE",
"410 31 OFFCURVE",
"297 31 CURVE SMOOTH",
"173 31 OFFCURVE",
"98 123 OFFCURVE",
"98 234 CURVE SMOOTH",
"98 302 LINE SMOOTH",
"98 413 OFFCURVE",
"172 506 OFFCURVE",
"297 506 CURVE SMOOTH",
"410 506 OFFCURVE",
"472 437 OFFCURVE",
"485 347 CURVE",
"518 347 LINE",
"508 442 OFFCURVE",
"439 542 OFFCURVE",
"297 542 CURVE SMOOTH",
"160 542 OFFCURVE",
"62 439 OFFCURVE",
"62 310 CURVE SMOOTH",
"62 226 LINE SMOOTH",
"62 97 OFFCURVE",
"160 -5 OFFCURVE",
"297 -5 CURVE SMOOTH"
);
}
);
width = 570;
}
);
leftKerningGroup = o;
rightKerningGroup = o;
},
{
glyphname = d.ss01;
layers = (
{
anchors = (
{
name = bottom;
position = "{300, 0}";
},
{
name = center;
position = "{300, 265}";
},
{
name = top;
position = "{300, 1050}";
},
{
name = topright;
position = "{580, 530}";
}
);
guideLines = (
{
position = "{0, -10}";
}
);
layerId = "306713D8-4F8C-486F-A8A4-9DD13D5E83DB";
paths = (
{
closed = 1;
nodes = (
"331 -10 OFFCURVE",
"365 63 OFFCURVE",
"370 74 CURVE",
"378 74 LINE",
"378 0 LINE",
"570 0 LINE",
"570 750 LINE",
"378 750 LINE",
"378 462 LINE",
"370 462 LINE",
"366 472 OFFCURVE",
"331 540 OFFCURVE",
"229 540 CURVE SMOOTH",
"118 540 OFFCURVE",
"30 453 OFFCURVE",
"30 315 CURVE SMOOTH",
"30 213 LINE SMOOTH",
"30 79 OFFCURVE",
"115 -10 OFFCURVE",
"227 -10 CURVE SMOOTH"
);
},
{
closed = 1;
nodes = (
"248 140 OFFCURVE",
"222 181 OFFCURVE",
"222 240 CURVE SMOOTH",
"222 288 LINE SMOOTH",
"222 347 OFFCURVE",
"248 389 OFFCURVE",
"302 389 CURVE SMOOTH",
"356 389 OFFCURVE",
"382 347 OFFCURVE",
"382 288 CURVE SMOOTH",
"382 240 LINE SMOOTH",
"382 181 OFFCURVE",
"356 140 OFFCURVE",
"302 140 CURVE SMOOTH"
);
}
);
width = 610;
},
{
anchors = (
{
name = bottom;
position = "{312, 0}";
},
{
name = center;
position = "{312, 263}";
},
{
name = top;
position = "{312, 1050}";
},
{
name = topright;
position = "{603, 525}";
}
);
layerId = "9DFE6445-7062-4987-A7C3-244173BC9CEA";
paths = (
{
closed = 1;
nodes = (
"394 -5 OFFCURVE",
"456 52 OFFCURVE",
"491 122 CURVE",
"498 122 LINE",
"498 0 LINE",
"532 0 LINE",
"532 750 LINE",
"498 750 LINE",
"498 416 LINE",
"491 416 LINE",
"459 481 OFFCURVE",
"401 542 OFFCURVE",
"295 542 CURVE SMOOTH",
"156 542 OFFCURVE",
"58 439 OFFCURVE",
"58 310 CURVE SMOOTH",
"58 226 LINE SMOOTH",
"58 97 OFFCURVE",
"156 -5 OFFCURVE",
"291 -5 CURVE SMOOTH"
);
},
{
closed = 1;
nodes = (
"175 31 OFFCURVE",
"94 115 OFFCURVE",
"94 226 CURVE SMOOTH",
"94 310 LINE SMOOTH",
"94 421 OFFCURVE",
"174 506 OFFCURVE",
"294 506 CURVE SMOOTH",
"414 506 OFFCURVE",
"494 421 OFFCURVE",
"494 310 CURVE SMOOTH",
"494 226 LINE SMOOTH",
"494 115 OFFCURVE",
"413 31 OFFCURVE",
"294 31 CURVE SMOOTH"
);
}
);
width = 623;
}
);
leftKerningGroup = o;
rightKerningGroup = I;
},
{
glyphname = eth.ss01;
layers = (
{
guideLines = (
{
position = "{0, 240}";
},
{
position = "{0, -10}";
}
);
layerId = "306713D8-4F8C-486F-A8A4-9DD13D5E83DB";
paths = (
{
closed = 1;
nodes = (
"489 -10 OFFCURVE",
"570 128 OFFCURVE",
"570 272 CURVE SMOOTH",
"570 492 LINE SMOOTH",
"570 583 OFFCURVE",
"546 651 OFFCURVE",
"508 701 CURVE",
"570 737 LINE",
"520 824 LINE",
"432 773 LINE",
"347 829 OFFCURVE",
"242 842 OFFCURVE",
"178 841 CURVE",
"178 700 LINE",
"208 701 OFFCURVE",
"242 695 OFFCURVE",
"273 681 CURVE",
"229 656 LINE",
"279 569 LINE",
"352 611 LINE",
"368 583 OFFCURVE",
"378 547 OFFCURVE",
"378 502 CURVE SMOOTH",
"378 462 LINE",
"370 462 LINE",
"366 472 OFFCURVE",
"331 540 OFFCURVE",
"229 540 CURVE SMOOTH",
"118 540 OFFCURVE",
"30 453 OFFCURVE",
"30 315 CURVE SMOOTH",
"30 244 LINE SMOOTH",
"30 110 OFFCURVE",
"115 -10 OFFCURVE",
"302 -10 CURVE SMOOTH"
);
},
{
closed = 1;
nodes = (
"248 140 OFFCURVE",
"222 181 OFFCURVE",
"222 240 CURVE SMOOTH",
"222 288 LINE SMOOTH",
"222 347 OFFCURVE",
"248 389 OFFCURVE",
"302 389 CURVE SMOOTH",
"356 389 OFFCURVE",
"382 347 OFFCURVE",
"382 288 CURVE SMOOTH",
"382 240 LINE SMOOTH",
"382 181 OFFCURVE",
"356 140 OFFCURVE",
"302 140 CURVE SMOOTH"
);
}
);
width = 626;
},
{
guideLines = (
{
position = "{0, 226}";
},
{
position = "{0, 310}";
},
{
position = "{0, -5}";
}
);
layerId = "9DFE6445-7062-4987-A7C3-244173BC9CEA";
paths = (
{
closed = 1;
nodes = (
"432 -5 OFFCURVE",
"531 97 OFFCURVE",
"531 226 CURVE SMOOTH",
"531 416 LINE SMOOTH",
"531 556 OFFCURVE",
"486 640 OFFCURVE",
"431 691 CURVE",
"515 739 LINE",
"500 764 LINE",
"407 710 LINE",
"341 759 OFFCURVE",
"270 765 OFFCURVE",
"251 765 CURVE",
"251 736 LINE",
"260 736 OFFCURVE",
"319 732 OFFCURVE",
"377 693 CURVE",
"287 641 LINE",
"302 616 LINE",
"402 674 LINE",
"454 629 OFFCURVE",
"499 552 OFFCURVE",
"499 419 CURVE SMOOTH",
"499 416 LINE",
"492 416 LINE",
"460 481 OFFCURVE",
"402 542 OFFCURVE",
"296 542 CURVE SMOOTH",
"157 542 OFFCURVE",
"59 439 OFFCURVE",
"59 310 CURVE SMOOTH",
"59 226 LINE SMOOTH",
"59 97 OFFCURVE",
"158 -5 OFFCURVE",
"295 -5 CURVE SMOOTH"
);
},
{
closed = 1;
nodes = (
"177 31 OFFCURVE",
"95 115 OFFCURVE",
"95 226 CURVE SMOOTH",
"95 310 LINE SMOOTH",
"95 421 OFFCURVE",
"175 506 OFFCURVE",
"295 506 CURVE SMOOTH",
"415 506 OFFCURVE",
"495 421 OFFCURVE",
"495 310 CURVE SMOOTH",
"495 226 LINE SMOOTH",
"495 115 OFFCURVE",
"413 31 OFFCURVE",
"295 31 CURVE SMOOTH"
);
}
);
width = 611;
}
);
leftKerningGroup = o;
rightKerningGroup = dcroat;
},
{
glyphname = dcroat.ss01;
layers = (
{
components = (
{
name = d.ss01;
alignment = -1;
}
);
layerId = "306713D8-4F8C-486F-A8A4-9DD13D5E83DB";
paths = (
{
closed = 1;
nodes = (
"621 571 LINE",
"621 691 LINE",
"306 691 LINE",
"306 571 LINE"
);
}
);
width = 631;
},
{
components = (
{
name = d.ss01;
alignment = -1;
}
);
layerId = "9DFE6445-7062-4987-A7C3-244173BC9CEA";
paths = (
{
closed = 1;
nodes = (
"617 626 LINE",
"617 656 LINE",
"305 656 LINE",
"305 626 LINE"
);
}
);
width = 618;
}
);
leftKerningGroup = o;
rightKerningGroup = dcroat;
},
{
glyphname = e.ss01;
layers = (
{
anchors = (
{
name = bottom;
position = "{281, 0}";
},
{
name = ogonek;
position = "{504, 10}";
},
{
name = top;
position = "{280, 530}";
}
);
guideLines = (
{
position = "{0, 176}";
},
{
position = "{0, 340}";
},
{
position = "{0, 331}";
},
{
position = "{0, 140}";
}
);
layerId = "306713D8-4F8C-486F-A8A4-9DD13D5E83DB";
paths = (
{
closed = 1;
nodes = (
"419 -10 OFFCURVE",
"500 67 OFFCURVE",
"528 176 CURVE",
"342 176 LINE",
"331 147 OFFCURVE",
"307 137 OFFCURVE",
"280 137 CURVE SMOOTH",
"232 137 OFFCURVE",
"210 169 OFFCURVE",
"210 204 CURVE SMOOTH",
"210 212 LINE",
"530 212 LINE",
"530 264 LINE SMOOTH",
"530 448 OFFCURVE",
"427 540 OFFCURVE",
"280 540 CURVE SMOOTH",
"114 540 OFFCURVE",
"30 428 OFFCURVE",
"30 288 CURVE SMOOTH",
"30 240 LINE SMOOTH",
"30 99 OFFCURVE",
"116 -10 OFFCURVE",
"281 -10 CURVE SMOOTH"
);
},
{
closed = 1;
nodes = (
"211 340 LINE SMOOTH",
"211 386 OFFCURVE",
"242 406 OFFCURVE",
"279 406 CURVE SMOOTH",
"317 406 OFFCURVE",
"349 385 OFFCURVE",
"349 340 CURVE SMOOTH",
"349 331 LINE",
"211 331 LINE"
);
}
);
width = 560;
},
{
anchors = (
{
name = bottom;
position = "{295, 0}";
},
{
name = ogonek;
position = "{526, 10}";
},
{
name = top;
position = "{295, 525}";
}
);
guideLines = (
{
position = "{0, -5}";
},
{
angle = 90;
position = "{522, 0}";
},
{
angle = 90;
position = "{486, 0}";
},
{
angle = 90;
position = "{98, 0}";
},
{
angle = 90;
position = "{62, 77}";
}
);
layerId = "9DFE6445-7062-4987-A7C3-244173BC9CEA";
paths = (
{
closed = 1;
nodes = (
"439 -5 OFFCURVE",
"508 94 OFFCURVE",
"518 189 CURVE",
"485 189 LINE",
"472 99 OFFCURVE",
"410 31 OFFCURVE",
"295 31 CURVE SMOOTH",
"173 31 OFFCURVE",
"98 123 OFFCURVE",
"98 234 CURVE SMOOTH",
"98 257 LINE",
"522 257 LINE",
"522 281 LINE SMOOTH",
"522 464 OFFCURVE",
"414 542 OFFCURVE",
"295 542 CURVE SMOOTH",
"160 542 OFFCURVE",
"62 439 OFFCURVE",
"62 310 CURVE SMOOTH",
"62 226 LINE SMOOTH",
"62 97 OFFCURVE",
"160 -5 OFFCURVE",
"295 -5 CURVE SMOOTH"
);
},
{
closed = 1;
nodes = (
"98 302 LINE SMOOTH",
"98 413 OFFCURVE",
"170 506 OFFCURVE",
"295 506 CURVE SMOOTH",
"414 506 OFFCURVE",
"486 413 OFFCURVE",
"486 302 CURVE SMOOTH",
"486 289 LINE",
"98 289 LINE"
);
}
);
width = 584;
}
);
leftKerningGroup = o;
rightKerningGroup = o;
},
{
glyphname = f.ss01;
layers = (
{
layerId = "306713D8-4F8C-486F-A8A4-9DD13D5E83DB";
paths = (
{
closed = 1;
nodes = (
"280 0 LINE",
"280 524 LINE SMOOTH",
"280 566 OFFCURVE",
"280 591 OFFCURVE",
"339 591 CURVE SMOOTH",
"391 591 LINE",
"391 740 LINE",
"294 740 LINE SMOOTH",
"111 740 OFFCURVE",
"90 623 OFFCURVE",
"90 566 CURVE SMOOTH",
"90 0 LINE"
);
},
{
closed = 1;
nodes = (
"391 383 LINE",
"391 530 LINE",
"30 530 LINE",
"30 383 LINE"
);
}
);
width = 406;
},
{
layerId = "9DFE6445-7062-4987-A7C3-244173BC9CEA";
paths = (
{
closed = 1;
nodes = (
"169 0 LINE",
"169 611 LINE SMOOTH",
"169 653 OFFCURVE",
"169 703 OFFCURVE",
"252 703 CURVE SMOOTH",
"301 703 LINE",
"301 737 LINE",
"249 737 LINE SMOOTH",
"152 737 OFFCURVE",
"134 674 OFFCURVE",
"134 611 CURVE SMOOTH",
"135 0 LINE"
);
},
{
closed = 1;
nodes = (
"301 495 LINE",
"301 525 LINE",
"55 525 LINE",
"55 495 LINE"
);
}
);
width = 356;
}
);
leftKerningGroup = f;
rightKerningGroup = f;
},
{
glyphname = g.ss01;
layers = (
{
guideLines = (
{
position = "{0, 432}";
},
{
angle = 90;
position = "{295, 0}";
},
{
angle = 90;
position = "{641, 0}";
},
{
position = "{0, 25}";
},
{
angle = 90;
position = "{418, 0}";
},
{
angle = 90;
position = "{30, -320}";
},
{
position = "{0, -205}";
},
{
position = "{0, 540}";
},
{
position = "{0, -254}";
},
{
position = "{0, -118}";
},
{
position = "{0, 456}";
},
{
position = "{0, 540}";
}
);
layerId = "306713D8-4F8C-486F-A8A4-9DD13D5E83DB";
paths = (
{
closed = 1;
nodes = (
"560 -253 OFFCURVE",
"569 -51 OFFCURVE",
"569 -7 CURVE SMOOTH",
"570 530 LINE",
"378 530 LINE",
"378 462 LINE",
"370 462 LINE",
"365 472 OFFCURVE",
"331 540 OFFCURVE",
"229 540 CURVE SMOOTH",
"118 540 OFFCURVE",
"30 453 OFFCURVE",
"30 315 CURVE SMOOTH",
"30 213 LINE SMOOTH",
"30 79 OFFCURVE",
"115 -10 OFFCURVE",
"227 -10 CURVE SMOOTH",
"331 -10 OFFCURVE",
"365 63 OFFCURVE",
"370 74 CURVE",
"378 74 LINE",
"377 -7 LINE SMOOTH",
"376 -48 OFFCURVE",
"378 -119 OFFCURVE",
"301 -119 CURVE SMOOTH",
"254 -119 OFFCURVE",
"231 -92 OFFCURVE",
"227 -41 CURVE",
"45 -41 LINE",
"64 -182 OFFCURVE",
"148 -253 OFFCURVE",
"301 -253 CURVE SMOOTH"
);
},
{
closed = 1;
nodes = (
"248 140 OFFCURVE",
"222 181 OFFCURVE",
"222 240 CURVE SMOOTH",
"222 288 LINE SMOOTH",
"222 347 OFFCURVE",
"248 389 OFFCURVE",
"302 389 CURVE SMOOTH",
"356 389 OFFCURVE",
"382 347 OFFCURVE",
"382 288 CURVE SMOOTH",
"382 240 LINE SMOOTH",
"382 181 OFFCURVE",
"356 140 OFFCURVE",
"302 140 CURVE SMOOTH"
);
}
);
width = 609;
},
{
guideLines = (
{
position = "{0, 508}";
},
{
position = "{0, 544}";
},
{
position = "{0, 482}";
},
{
position = "{0, 544}";
},
{
angle = 90;
position = "{77, 0}";
},
{
position = "{0, -185}";
},
{
position = "{0, -220}";
},
{
position = "{0, -218}";
},
{
position = "{0, -199}";
}
);
layerId = "9DFE6445-7062-4987-A7C3-244173BC9CEA";
paths = (
{
closed = 1;
nodes = (
"455 -199 OFFCURVE",
"536 -103 OFFCURVE",
"536 20 CURVE SMOOTH",
"536 525 LINE",
"502 525 LINE",
"502 416 LINE",
"496 416 LINE",
"464 481 OFFCURVE",
"407 542 OFFCURVE",
"302 542 CURVE SMOOTH",
"168 542 OFFCURVE",
"72 439 OFFCURVE",
"72 310 CURVE SMOOTH",
"72 246 LINE SMOOTH",
"72 117 OFFCURVE",
"168 15 OFFCURVE",
"302 15 CURVE SMOOTH",
"401 15 OFFCURVE",
"461 72 OFFCURVE",
"496 142 CURVE",
"502 142 LINE",
"502 20 LINE SMOOTH",
"502 -99 OFFCURVE",
"430 -164 OFFCURVE",
"315 -164 CURVE SMOOTH",
"215 -164 OFFCURVE",
"140 -115 OFFCURVE",
"116 -36 CURVE",
"78 -36 LINE",
"99 -125 OFFCURVE",
"185 -199 OFFCURVE",
"312 -199 CURVE SMOOTH"
);
},
{
closed = 1;
nodes = (
"181 51 OFFCURVE",
"108 143 OFFCURVE",
"108 254 CURVE SMOOTH",
"108 302 LINE SMOOTH",
"108 413 OFFCURVE",
"180 506 OFFCURVE",
"302 506 CURVE SMOOTH",
"426 506 OFFCURVE",
"498 413 OFFCURVE",
"498 302 CURVE SMOOTH",
"498 254 LINE SMOOTH",
"498 143 OFFCURVE",
"425 51 OFFCURVE",
"302 51 CURVE SMOOTH"
);
}
);
width = 628;
}
);
leftKerningGroup = o;
rightKerningGroup = g;
},
{
glyphname = j.ss01;
layers = (
{
components = (
{
name = dotaccentcomb;
transform = "{1, 0, 0, 1, -33, 0}";
alignment = -1;
}
);
guideLines = (
{
angle = 90;
position = "{234, 0}";
},
{
angle = 90;
position = "{44, 374}";
}
);
layerId = "306713D8-4F8C-486F-A8A4-9DD13D5E83DB";
paths = (
{
closed = 1;
nodes = (
"43 -250 LINE SMOOTH",
"234 -250 OFFCURVE",
"234 -122 OFFCURVE",
"234 -29 CURVE SMOOTH",
"234 530 LINE",
"44 530 LINE",
"44 -3 LINE SMOOTH",
"44 -71 OFFCURVE",
"43 -101 OFFCURVE",
"-34 -101 CURVE SMOOTH",
"-50 -101 LINE",
"-50 -250 LINE"
);
}
);
width = 296;
},
{
components = (
{
name = dotaccentcomb;
transform = "{1, 0, 0, 1, -9, 0}";
alignment = -1;
}
);
guideLines = (
{
position = "{0, -212}";
},
{
angle = 270;
position = "{122, 220}";
},
{
angle = 270;
position = "{88, 220}";
}
);
layerId = "9DFE6445-7062-4987-A7C3-244173BC9CEA";
paths = (
{
closed = 1;
nodes = (
"20 -212 LINE SMOOTH",
"114 -212 OFFCURVE",
"123 -160 OFFCURVE",
"123 -80 CURVE SMOOTH",
"122 525 LINE",
"88 525 LINE",
"88 -80 LINE SMOOTH",
"88 -145 OFFCURVE",
"83 -182 OFFCURVE",
"18 -182 CURVE SMOOTH",
"-33 -182 LINE",
"-33 -212 LINE"
);
}
);
width = 213;
}
);
leftKerningGroup = j;
},
{
glyphname = l.ss01;
layers = (
{
anchors = (
{
name = bottom;
position = "{182, 0}";
},
{
name = center;
position = "{182, 525}";
},
{
name = top;
position = "{182, 1050}";
},
{
name = topright;
position = "{344, 1050}";
}
);
layerId = "306713D8-4F8C-486F-A8A4-9DD13D5E83DB";
paths = (
{
closed = 1;
nodes = (
"240 0 LINE",
"240 750 LINE",
"50 750 LINE",
"50 0 LINE"
);
}
);
width = 290;
},
{
anchors = (
{
name = bottom;
position = "{147, 0}";
},
{
name = center;
position = "{147, 525}";
},
{
name = top;
position = "{147, 1050}";
},
{
name = topright;
position = "{273, 1050}";
}
);
layerId = "9DFE6445-7062-4987-A7C3-244173BC9CEA";
paths = (
{
closed = 1;
nodes = (
"127 0 LINE",
"127 750 LINE",
"93 750 LINE",
"92 0 LINE"
);
}
);
width = 219;
}
);
leftKerningGroup = h;
rightKerningGroup = t;
},
{
glyphname = o.ss01;
layers = (
{
anchors = (
{
name = bottom;
position = "{285, 0}";
},
{
name = center;
position = "{285, 265}";
},
{
name = ogonek;
position = "{513, 10}";
},
{
name = top;
position = "{285, 530}";
},
{
name = topright;
position = "{550, 530}";
}
);
guideLines = (
{
position = "{0, 288}";
},
{
position = "{0, 315}";
},
{
position = "{0, 213}";
},
{
position = "{0, 240}";
},
{
angle = 90;
position = "{218, 0}";
},
{
angle = 90;
position = "{25, 70}";
}
);
layerId = "306713D8-4F8C-486F-A8A4-9DD13D5E83DB";
paths = (
{
closed = 1;
nodes = (
"452 -10 OFFCURVE",
"540 99 OFFCURVE",
"540 240 CURVE SMOOTH",
"540 288 LINE SMOOTH",
"540 428 OFFCURVE",
"454 540 OFFCURVE",
"285 540 CURVE SMOOTH",
"116 540 OFFCURVE",
"30 428 OFFCURVE",
"30 288 CURVE SMOOTH",
"30 240 LINE SMOOTH",
"30 99 OFFCURVE",
"118 -10 OFFCURVE",
"285 -10 CURVE SMOOTH"
);
},
{
closed = 1;
nodes = (
"234 140 OFFCURVE",
"210 181 OFFCURVE",
"210 240 CURVE SMOOTH",
"210 288 LINE SMOOTH",
"210 347 OFFCURVE",
"234 389 OFFCURVE",
"285 389 CURVE SMOOTH",
"336 389 OFFCURVE",
"360 347 OFFCURVE",
"360 288 CURVE SMOOTH",
"360 240 LINE SMOOTH",
"360 181 OFFCURVE",
"336 140 OFFCURVE",
"285 140 CURVE SMOOTH"
);
}
);
width = 570;
},
{
anchors = (
{
name = bottom;
position = "{293, 0}";
},
{
name = center;
position = "{293, 263}";
},
{
name = ogonek;
position = "{527, 10}";
},
{
name = top;
position = "{293, 525}";
},
{
name = topright;
position = "{440, 525}";
}
);
guideLines = (
{
position = "{0, 236}";
},
{
position = "{0, 300}";
}
);
layerId = "9DFE6445-7062-4987-A7C3-244173BC9CEA";
paths = (
{
closed = 1;
nodes = (
"430 -5 OFFCURVE",
"528 93 OFFCURVE",
"528 236 CURVE SMOOTH",
"528 300 LINE SMOOTH",
"528 443 OFFCURVE",
"430 542 OFFCURVE",
"293 542 CURVE SMOOTH",
"156 542 OFFCURVE",
"58 443 OFFCURVE",
"58 300 CURVE SMOOTH",
"58 236 LINE SMOOTH",
"58 93 OFFCURVE",
"156 -5 OFFCURVE",
"293 -5 CURVE SMOOTH"
);
},
{
closed = 1;
nodes = (
"169 31 OFFCURVE",
"94 119 OFFCURVE",
"94 244 CURVE SMOOTH",
"94 292 LINE SMOOTH",
"94 417 OFFCURVE",
"168 506 OFFCURVE",
"293 506 CURVE SMOOTH",
"418 506 OFFCURVE",
"492 417 OFFCURVE",
"492 292 CURVE SMOOTH",
"492 244 LINE SMOOTH",
"492 119 OFFCURVE",
"417 31 OFFCURVE",
"293 31 CURVE SMOOTH"
);
}
);
width = 586;
}
);
leftKerningGroup = o;
rightKerningGroup = o;
},
{
glyphname = oslash.ss01;
layers = (
{
components = (
{
name = o.ss01;
alignment = -1;
}
);
layerId = "306713D8-4F8C-486F-A8A4-9DD13D5E83DB";
paths = (
{
closed = 1;
nodes = (
"178 -31 LINE",
"527 573 LINE",
"400 573 LINE",
"51 -31 LINE"
);
}
);
width = 578;
},
{
components = (
{
name = o.ss01;
transform = "{1, 0, 0, 1, 0, 1}";
alignment = -1;
}
);
guideLines = (
{
position = "{0, -5}";
},
{
position = "{0, 542}";
}
);
layerId = "9DFE6445-7062-4987-A7C3-244173BC9CEA";
paths = (
{
closed = 1;
nodes = (
"148 -46 LINE",
"493 590 LINE",
"456 590 LINE",
"111 -46 LINE"
);
}
);
width = 604;
}
);
leftKerningGroup = o;
rightKerningGroup = o;
},
{
glyphname = oe.ss01;
layers = (
{
guideLines = (
{
angle = 90;
position = "{554, 0}";
},
{
position = "{0, -10}";
},
{
angle = 90;
position = "{285, 0}";
},
{
position = "{0, 475}";
},
{
position = "{0, 386}";
}
);
layerId = "306713D8-4F8C-486F-A8A4-9DD13D5E83DB";
paths = (
{
closed = 1;
nodes = (
"452 -10 OFFCURVE",
"540 99 OFFCURVE",
"540 240 CURVE SMOOTH",
"540 288 LINE SMOOTH",
"540 428 OFFCURVE",
"454 540 OFFCURVE",
"285 540 CURVE SMOOTH",
"116 540 OFFCURVE",
"30 428 OFFCURVE",
"30 288 CURVE SMOOTH",
"30 240 LINE SMOOTH",
"30 99 OFFCURVE",
"118 -10 OFFCURVE",
"285 -10 CURVE SMOOTH"
);
},
{
closed = 1;
nodes = (
"234 140 OFFCURVE",
"210 181 OFFCURVE",
"210 240 CURVE SMOOTH",
"210 288 LINE SMOOTH",
"210 347 OFFCURVE",
"234 389 OFFCURVE",
"285 389 CURVE SMOOTH",
"336 389 OFFCURVE",
"360 347 OFFCURVE",
"360 288 CURVE SMOOTH",
"360 240 LINE SMOOTH",
"360 181 OFFCURVE",
"336 140 OFFCURVE",
"285 140 CURVE SMOOTH"
);
},
{
closed = 1;
nodes = (
"749 -10 OFFCURVE",
"830 67 OFFCURVE",
"858 176 CURVE",
"672 176 LINE",
"661 147 OFFCURVE",
"637 137 OFFCURVE",
"610 137 CURVE SMOOTH",
"562 137 OFFCURVE",
"540 169 OFFCURVE",
"540 204 CURVE SMOOTH",
"540 212 LINE",
"860 212 LINE",
"860 264 LINE SMOOTH",
"860 448 OFFCURVE",
"757 540 OFFCURVE",
"610 540 CURVE SMOOTH",
"444 540 OFFCURVE",
"360 428 OFFCURVE",
"360 288 CURVE SMOOTH",
"360 240 LINE SMOOTH",
"360 99 OFFCURVE",
"446 -10 OFFCURVE",
"611 -10 CURVE SMOOTH"
);
},
{
closed = 1;
nodes = (
"541 340 LINE SMOOTH",
"541 386 OFFCURVE",
"572 406 OFFCURVE",
"609 406 CURVE SMOOTH",
"647 406 OFFCURVE",
"679 385 OFFCURVE",
"679 340 CURVE SMOOTH",
"679 331 LINE",
"541 331 LINE"
);
}
);
width = 902;
},
{
guideLines = (
{
position = "{0, -5}";
},
{
position = "{0, 507}";
},
{
angle = 90;
position = "{520, 0}";
},
{
angle = 90;
position = "{542, 0}";
},
{
angle = 90;
position = "{504, 0}";
},
{
angle = 90;
position = "{504, 0}";
},
{
angle = 90;
position = "{526, 0}";
}
);
layerId = "9DFE6445-7062-4987-A7C3-244173BC9CEA";
paths = (
{
closed = 1;
nodes = (
"430 -5 OFFCURVE",
"528 93 OFFCURVE",
"528 236 CURVE SMOOTH",
"528 300 LINE SMOOTH",
"528 443 OFFCURVE",
"430 542 OFFCURVE",
"293 542 CURVE SMOOTH",
"156 542 OFFCURVE",
"58 443 OFFCURVE",
"58 300 CURVE SMOOTH",
"58 236 LINE SMOOTH",
"58 93 OFFCURVE",
"156 -5 OFFCURVE",
"293 -5 CURVE SMOOTH"
);
},
{
closed = 1;
nodes = (
"169 31 OFFCURVE",
"94 119 OFFCURVE",
"94 244 CURVE SMOOTH",
"94 292 LINE SMOOTH",
"94 417 OFFCURVE",
"168 506 OFFCURVE",
"293 506 CURVE SMOOTH",
"418 506 OFFCURVE",
"492 417 OFFCURVE",
"492 292 CURVE SMOOTH",
"492 244 LINE SMOOTH",
"492 119 OFFCURVE",
"417 31 OFFCURVE",
"293 31 CURVE SMOOTH"
);
},
{
closed = 1;
nodes = (
"869 -5 OFFCURVE",
"938 94 OFFCURVE",
"948 189 CURVE",
"915 189 LINE",
"902 99 OFFCURVE",
"840 31 OFFCURVE",
"725 31 CURVE SMOOTH",
"603 31 OFFCURVE",
"528 123 OFFCURVE",
"528 234 CURVE SMOOTH",
"528 257 LINE",
"952 257 LINE",
"952 281 LINE SMOOTH",
"952 464 OFFCURVE",
"844 542 OFFCURVE",
"725 542 CURVE SMOOTH",
"590 542 OFFCURVE",
"492 439 OFFCURVE",
"492 310 CURVE SMOOTH",
"492 226 LINE SMOOTH",
"492 97 OFFCURVE",
"590 -5 OFFCURVE",
"725 -5 CURVE SMOOTH"
);
},
{
closed = 1;
nodes = (
"528 302 LINE SMOOTH",
"528 413 OFFCURVE",
"600 506 OFFCURVE",
"725 506 CURVE SMOOTH",
"844 506 OFFCURVE",
"916 413 OFFCURVE",
"916 302 CURVE SMOOTH",
"916 289 LINE",
"528 289 LINE"
);
}
);
width = 1014;
}
);
leftKerningGroup = o;
rightKerningGroup = o;
},
{
glyphname = thorn.ss01;
leftMetricsKey = p;
rightMetricsKey = p;
layers = (
{
layerId = "306713D8-4F8C-486F-A8A4-9DD13D5E83DB";
paths = (
{
closed = 1;
nodes = (
"495 -10 OFFCURVE",
"580 79 OFFCURVE",
"580 213 CURVE SMOOTH",
"580 315 LINE SMOOTH",
"580 453 OFFCURVE",
"492 540 OFFCURVE",
"381 540 CURVE SMOOTH",
"279 540 OFFCURVE",
"244 472 OFFCURVE",
"240 462 CURVE",
"232 462 LINE",
"232 751 LINE",
"40 751 LINE",
"40 -250 LINE",
"232 -250 LINE",
"232 74 LINE",
"240 74 LINE",
"245 63 OFFCURVE",
"279 -10 OFFCURVE",
"383 -10 CURVE SMOOTH"
);
},
{
closed = 1;
nodes = (
"254 140 OFFCURVE",
"228 181 OFFCURVE",
"228 240 CURVE SMOOTH",
"228 288 LINE SMOOTH",
"228 347 OFFCURVE",
"254 389 OFFCURVE",
"308 389 CURVE SMOOTH",
"362 389 OFFCURVE",
"388 347 OFFCURVE",
"388 288 CURVE SMOOTH",
"388 240 LINE SMOOTH",
"388 181 OFFCURVE",
"362 140 OFFCURVE",
"308 140 CURVE SMOOTH"
);
}
);
width = 620;
},
{
layerId = "9DFE6445-7062-4987-A7C3-244173BC9CEA";
paths = (
{
closed = 1;
nodes = (
"467 -5 OFFCURVE",
"565 97 OFFCURVE",
"565 226 CURVE SMOOTH",
"565 310 LINE SMOOTH",
"565 439 OFFCURVE",
"467 542 OFFCURVE",
"328 542 CURVE SMOOTH",
"222 542 OFFCURVE",
"164 481 OFFCURVE",
"132 416 CURVE",
"125 416 LINE",
"125 750 LINE",
"91 750 LINE",
"91 -225 LINE",
"125 -225 LINE",
"125 122 LINE",
"132 122 LINE",
"167 52 OFFCURVE",
"229 -5 OFFCURVE",
"332 -5 CURVE SMOOTH"
);
},
{
closed = 1;
nodes = (
"210 31 OFFCURVE",
"129 115 OFFCURVE",
"129 226 CURVE SMOOTH",
"129 310 LINE SMOOTH",
"129 421 OFFCURVE",
"209 506 OFFCURVE",
"329 506 CURVE SMOOTH",
"449 506 OFFCURVE",
"529 421 OFFCURVE",
"529 310 CURVE SMOOTH",
"529 226 LINE SMOOTH",
"529 115 OFFCURVE",
"448 31 OFFCURVE",
"329 31 CURVE SMOOTH"
);
}
);
width = 623;
}
);
leftKerningGroup = h;
rightKerningGroup = o;
},
{
glyphname = q.ss01;
layers = (
{
anchors = (
{
name = bottom;
position = "{310, 0}";
},
{
name = top;
position = "{310, 530}";
}
);
layerId = "306713D8-4F8C-486F-A8A4-9DD13D5E83DB";
paths = (
{
closed = 1;
nodes = (
"331 -10 OFFCURVE",
"365 63 OFFCURVE",
"370 74 CURVE",
"378 74 LINE",
"378 -228 LINE",
"570 -228 LINE",
"570 530 LINE",
"378 530 LINE",
"378 462 LINE",
"370 462 LINE",
"366 472 OFFCURVE",
"331 540 OFFCURVE",
"229 540 CURVE SMOOTH",
"118 540 OFFCURVE",
"30 453 OFFCURVE",
"30 315 CURVE SMOOTH",
"30 213 LINE SMOOTH",
"30 79 OFFCURVE",
"115 -10 OFFCURVE",
"227 -10 CURVE SMOOTH"
);
},
{
closed = 1;
nodes = (
"248 140 OFFCURVE",
"222 181 OFFCURVE",
"222 240 CURVE SMOOTH",
"222 288 LINE SMOOTH",
"222 347 OFFCURVE",
"248 389 OFFCURVE",
"302 389 CURVE SMOOTH",
"356 389 OFFCURVE",
"382 347 OFFCURVE",
"382 288 CURVE SMOOTH",
"382 240 LINE SMOOTH",
"382 181 OFFCURVE",
"356 140 OFFCURVE",
"302 140 CURVE SMOOTH"
);
}
);
width = 620;
},
{
anchors = (
{
name = bottom;
position = "{312, 0}";
},
{
name = top;
position = "{312, 525}";
}
);
guideLines = (
{
position = "{0, -199}";
}
);
layerId = "9DFE6445-7062-4987-A7C3-244173BC9CEA";
paths = (
{
closed = 1;
nodes = (
"394 -5 OFFCURVE",
"456 52 OFFCURVE",
"491 122 CURVE",
"498 122 LINE",
"498 -199 LINE",
"532 -199 LINE",
"532 525 LINE",
"498 525 LINE",
"498 416 LINE",
"491 416 LINE",
"459 481 OFFCURVE",
"401 542 OFFCURVE",
"295 542 CURVE SMOOTH",
"156 542 OFFCURVE",
"58 439 OFFCURVE",
"58 310 CURVE SMOOTH",
"58 226 LINE SMOOTH",
"58 97 OFFCURVE",
"156 -5 OFFCURVE",
"291 -5 CURVE SMOOTH"
);
},
{
closed = 1;
nodes = (
"175 31 OFFCURVE",
"94 115 OFFCURVE",
"94 226 CURVE SMOOTH",
"94 310 LINE SMOOTH",
"94 421 OFFCURVE",
"174 506 OFFCURVE",
"294 506 CURVE SMOOTH",
"414 506 OFFCURVE",
"494 421 OFFCURVE",
"494 310 CURVE SMOOTH",
"494 226 LINE SMOOTH",
"494 115 OFFCURVE",
"413 31 OFFCURVE",
"294 31 CURVE SMOOTH"
);
}
);
width = 623;
}
);
leftKerningGroup = o;
},
{
glyphname = r.ss01;
layers = (
{
anchors = (
{
name = bottom;
position = "{203, 0}";
},
{
name = top;
position = "{203, 530}";
}
);
layerId = "306713D8-4F8C-486F-A8A4-9DD13D5E83DB";
paths = (
{
closed = 1;
nodes = (
"240 0 LINE",
"240 231 LINE SMOOTH",
"240 325 OFFCURVE",
"270 364 OFFCURVE",
"373 364 CURVE SMOOTH",
"401 364 LINE",
"401 530 LINE",
"373 530 LINE SMOOTH",
"272 530 OFFCURVE",
"260 480 OFFCURVE",
"248 446 CURVE",
"240 446 LINE",
"240 530 LINE",
"50 530 LINE",
"50 0 LINE"
);
}
);
width = 406;
},
{
anchors = (
{
name = bottom;
position = "{149, 0}";
},
{
name = top;
position = "{150, 525}";
}
);
layerId = "9DFE6445-7062-4987-A7C3-244173BC9CEA";
paths = (
{
closed = 1;
nodes = (
"115 0 LINE",
"115 331 LINE SMOOTH",
"115 451 OFFCURVE",
"181 485 OFFCURVE",
"243 485 CURVE SMOOTH",
"283 485 LINE",
"283 525 LINE",
"244 525 LINE SMOOTH",
"178 525 OFFCURVE",
"136 485 OFFCURVE",
"120 441 CURVE",
"115 441 LINE",
"115 525 LINE",
"82 525 LINE",
"82 0 LINE"
);
}
);
width = 298;
}
);
leftKerningGroup = r;
rightKerningGroup = r;
},
{
glyphname = t.ss01;
layers = (
{
anchors = (
{
name = bottom;
position = "{225, 0}";
},
{
name = center;
position = "{225, 265}";
},
{
name = top;
position = "{225, 530}";
},
{
name = topright;
position = "{429, 530}";
}
);
guideLines = (
{
position = "{0, 200}";
}
);
layerId = "306713D8-4F8C-486F-A8A4-9DD13D5E83DB";
paths = (
{
closed = 1;
nodes = (
"387 0 LINE",
"387 149 LINE",
"371 149 LINE SMOOTH",
"294 149 OFFCURVE",
"293 179 OFFCURVE",
"293 247 CURVE SMOOTH",
"293 700 LINE",
"103 700 LINE",
"103 200 LINE SMOOTH",
"103 107 OFFCURVE",
"115 0 OFFCURVE",
"294 0 CURVE SMOOTH"
);
},
{
closed = 1;
nodes = (
"404 383 LINE",
"404 530 LINE",
"25 530 LINE",
"25 383 LINE"
);
}
);
width = 449;
},
{
anchors = (
{
name = bottom;
position = "{183, 0}";
},
{
name = center;
position = "{183, 263}";
},
{
name = top;
position = "{183, 525}";
},
{
name = topright;
position = "{345, 525}";
}
);
layerId = "9DFE6445-7062-4987-A7C3-244173BC9CEA";
paths = (
{
closed = 1;
nodes = (
"310 0 LINE",
"310 29 LINE",
"248 29 LINE SMOOTH",
"183 29 OFFCURVE",
"178 67 OFFCURVE",
"178 132 CURVE SMOOTH",
"178 700 LINE",
"144 700 LINE",
"143 132 LINE SMOOTH",
"143 52 OFFCURVE",
"152 0 OFFCURVE",
"246 0 CURVE SMOOTH"
);
},
{
closed = 1;
nodes = (
"310 495 LINE",
"310 525 LINE",
"35 525 LINE",
"35 495 LINE"
);
}
);
width = 365;
}
);
leftKerningGroup = t;
rightKerningGroup = t;
},
{
glyphname = y.ss01;
layers = (
{
anchors = (
{
name = bottom;
position = "{481, 0}";
},
{
name = top;
position = "{288, 530}";
}
);
guideLines = (
{
position = "{0, -316}";
},
{
position = "{0, -316}";
},
{
angle = 90;
position = "{481, 0}";
}
);
layerId = "306713D8-4F8C-486F-A8A4-9DD13D5E83DB";
paths = (
{
closed = 1;
nodes = (
"281 -259 LINE",
"562 518 LINE",
"562 530 LINE",
"375 530 LINE",
"291 208 LINE",
"285 208 LINE",
"203 530 LINE",
"16 530 LINE",
"16 518 LINE",
"197 -1 LINE",
"102 -242 LINE",
"102 -259 LINE"
);
}
);
width = 552;
},
{
anchors = (
{
name = bottom;
position = "{382, 0}";
},
{
name = top;
position = "{259, 525}";
}
);
guideLines = (
{
angle = 291.86;
position = "{136, 262}";
},
{
angle = 246.82;
position = "{347, 321}";
},
{
angle = 291.86;
position = "{196, 286}";
},
{
angle = 90;
position = "{382, 0}";
}
);
layerId = "9DFE6445-7062-4987-A7C3-244173BC9CEA";
paths = (
{
closed = 1;
nodes = (
"168 -214 LINE",
"485 512 LINE",
"485 524 LINE",
"453 524 LINE",
"262 78 LINE",
"256 78 LINE",
"77 524 LINE",
"43 524 LINE",
"43 512 LINE",
"238 39 LINE",
"135 -206 LINE",
"135 -214 LINE"
);
}
);
width = 534;
}
);
leftKerningGroup = y;
rightKerningGroup = v;
},
{
glyphname = a.ss02;
layers = (
{
anchors = (
{
name = bottom;
position = "{288, 0}";
},
{
name = ogonek;
position = "{541, 10}";
},
{
name = top;
position = "{314, 530}";
}
);
guideLines = (
{
angle = 90;
position = "{224, 0}";
},
{
position = "{0, 320}";
},
{
position = "{0, 288}";
},
{
angle = 90;
position = "{31, 70}";
},
{
angle = 90;
position = "{288, 0}";
},
{
position = "{0, -10}";
},
{
position = "{0, 209}";
},
{
position = "{0, 240}";
}
);
layerId = "306713D8-4F8C-486F-A8A4-9DD13D5E83DB";
paths = (
{
closed = 1;
nodes = (
"331 -10 OFFCURVE",
"365 63 OFFCURVE",
"370 74 CURVE",
"378 74 LINE",
"378 0 LINE",
"570 0 LINE",
"570 530 LINE",
"378 530 LINE",
"378 462 LINE",
"370 462 LINE",
"365 472 OFFCURVE",
"331 540 OFFCURVE",
"229 540 CURVE SMOOTH",
"118 540 OFFCURVE",
"30 453 OFFCURVE",
"30 315 CURVE SMOOTH",
"30 213 LINE SMOOTH",
"30 79 OFFCURVE",
"115 -10 OFFCURVE",
"227 -10 CURVE SMOOTH"
);
},
{
closed = 1;
nodes = (
"248 140 OFFCURVE",
"222 181 OFFCURVE",
"222 240 CURVE SMOOTH",
"222 288 LINE SMOOTH",
"222 347 OFFCURVE",
"248 389 OFFCURVE",
"302 389 CURVE SMOOTH",
"356 389 OFFCURVE",
"382 347 OFFCURVE",
"382 288 CURVE SMOOTH",
"382 240 LINE SMOOTH",
"382 181 OFFCURVE",
"356 140 OFFCURVE",
"302 140 CURVE SMOOTH"
);
}
);
width = 620;
},
{
anchors = (
{
name = bottom;
position = "{300, 0}";
},
{
name = ogonek;
position = "{530, 10}";
},
{
name = top;
position = "{288, 525}";
}
);
guideLines = (
{
position = "{0, 268}";
},
{
angle = 90;
position = "{53, 90}";
},
{
position = "{0, 302}";
},
{
position = "{0, 268}";
},
{
position = "{0, 234}";
},
{
angle = 90;
position = "{300, 0}";
}
);
layerId = "9DFE6445-7062-4987-A7C3-244173BC9CEA";
paths = (
{
closed = 1;
nodes = (
"387 -5 OFFCURVE",
"447 52 OFFCURVE",
"482 122 CURVE",
"488 122 LINE",
"488 0 LINE",
"522 0 LINE",
"522 525 LINE",
"488 525 LINE",
"488 416 LINE",
"482 416 LINE",
"450 481 OFFCURVE",
"393 542 OFFCURVE",
"288 542 CURVE SMOOTH",
"154 542 OFFCURVE",
"58 439 OFFCURVE",
"58 310 CURVE SMOOTH",
"58 226 LINE SMOOTH",
"58 97 OFFCURVE",
"154 -5 OFFCURVE",
"288 -5 CURVE SMOOTH"
);
},
{
closed = 1;
nodes = (
"167 31 OFFCURVE",
"94 123 OFFCURVE",
"94 234 CURVE SMOOTH",
"94 302 LINE SMOOTH",
"94 413 OFFCURVE",
"166 506 OFFCURVE",
"288 506 CURVE SMOOTH",
"412 506 OFFCURVE",
"484 413 OFFCURVE",
"484 302 CURVE SMOOTH",
"484 234 LINE SMOOTH",
"484 123 OFFCURVE",
"411 31 OFFCURVE",
"288 31 CURVE SMOOTH"
);
}
);
width = 613;
}
);
leftKerningGroup = o;
rightKerningGroup = a;
},
{
glyphname = f_h.dlig;
layers = (
{
layerId = "306713D8-4F8C-486F-A8A4-9DD13D5E83DB";
paths = (
{
closed = 1;
nodes = (
"281 0 LINE",
"281 541 LINE SMOOTH",
"281 581 OFFCURVE",
"299 617 OFFCURVE",
"340 617 CURVE SMOOTH",
"400 617 LINE SMOOTH",
"462 617 OFFCURVE",
"465 585 OFFCURVE",
"465 530 CURVE SMOOTH",
"465 0 LINE",
"657 0 LINE",
"657 300 LINE SMOOTH",
"657 343 OFFCURVE",
"667 387 OFFCURVE",
"722 387 CURVE SMOOTH",
"774 387 OFFCURVE",
"786 346 OFFCURVE",
"786 300 CURVE SMOOTH",
"786 0 LINE",
"976 0 LINE",
"976 334 LINE SMOOTH",
"976 396 OFFCURVE",
"965 540 OFFCURVE",
"800 540 CURVE SMOOTH",
"698 540 OFFCURVE",
"665 462 OFFCURVE",
"665 462 CURVE",
"657 462 LINE",
"657 507 LINE SMOOTH",
"657 683 OFFCURVE",
"596 774 OFFCURVE",
"400 774 CURVE SMOOTH",
"320 774 LINE SMOOTH",
"178 774 OFFCURVE",
"89 685 OFFCURVE",
"89 541 CURVE SMOOTH",
"89 0 LINE"
);
},
{
closed = 1;
nodes = (
"391 383 LINE",
"391 530 LINE",
"30 530 LINE",
"30 383 LINE"
);
}
);
width = 1016;
},
{
guideLines = (
{
position = "{0, 715}";
}
);
layerId = "9DFE6445-7062-4987-A7C3-244173BC9CEA";
paths = (
{
closed = 1;
nodes = (
"178 0 LINE",
"178 559 LINE SMOOTH",
"178 672 OFFCURVE",
"214 715 OFFCURVE",
"323 715 CURVE SMOOTH",
"378 715 LINE SMOOTH",
"487 715 OFFCURVE",
"521 672 OFFCURVE",
"521 559 CURVE SMOOTH",
"521 0 LINE",
"555 0 LINE",
"555 306 LINE SMOOTH",
"555 438 OFFCURVE",
"650 503 OFFCURVE",
"745 503 CURVE SMOOTH",
"847 503 OFFCURVE",
"935 445 OFFCURVE",
"935 306 CURVE SMOOTH",
"935 0 LINE",
"969 0 LINE",
"969 306 LINE SMOOTH",
"969 445 OFFCURVE",
"887 542 OFFCURVE",
"757 542 CURVE SMOOTH",
"609 542 OFFCURVE",
"562 417 OFFCURVE",
"562 417 CURVE",
"555 417 LINE",
"555 559 LINE SMOOTH",
"555 699 OFFCURVE",
"487 749 OFFCURVE",
"378 749 CURVE SMOOTH",
"323 749 LINE SMOOTH",
"214 749 OFFCURVE",
"144 699 OFFCURVE",
"144 559 CURVE SMOOTH",
"144 0 LINE"
);
},
{
closed = 1;
nodes = (
"301 495 LINE",
"301 525 LINE",
"55 525 LINE",
"55 495 LINE"
);
}
);
width = 1041;
}
);
leftKerningGroup = f;
rightKerningGroup = h;
},
{
glyphname = f_k.dlig;
layers = (
{
layerId = "306713D8-4F8C-486F-A8A4-9DD13D5E83DB";
paths = (
{
closed = 1;
nodes = (
"281 0 LINE",
"281 541 LINE SMOOTH",
"281 581 OFFCURVE",
"299 617 OFFCURVE",
"340 617 CURVE SMOOTH",
"400 617 LINE SMOOTH",
"462 617 OFFCURVE",
"465 585 OFFCURVE",
"465 530 CURVE SMOOTH",
"465 0 LINE",
"657 0 LINE",
"657 251 LINE",
"663 251 LINE",
"782 0 LINE",
"993 0 LINE",
"842 283 LINE",
"992 530 LINE",
"782 530 LINE",
"662 332 LINE",
"657 332 LINE",
"657 507 LINE SMOOTH",
"657 683 OFFCURVE",
"596 774 OFFCURVE",
"400 774 CURVE SMOOTH",
"320 774 LINE SMOOTH",
"178 774 OFFCURVE",
"89 685 OFFCURVE",
"89 541 CURVE SMOOTH",
"89 0 LINE"
);
},
{
closed = 1;
nodes = (
"391 383 LINE",
"391 530 LINE",
"30 530 LINE",
"30 383 LINE"
);
}
);
width = 1017;
},
{
layerId = "9DFE6445-7062-4987-A7C3-244173BC9CEA";
paths = (
{
closed = 1;
nodes = (
"178 0 LINE",
"178 559 LINE SMOOTH",
"178 672 OFFCURVE",
"214 715 OFFCURVE",
"323 715 CURVE SMOOTH",
"378 715 LINE SMOOTH",
"487 715 OFFCURVE",
"521 672 OFFCURVE",
"521 559 CURVE SMOOTH",
"521 0 LINE",
"555 0 LINE",
"555 260 LINE",
"559 260 LINE",
"813 0 LINE",
"855 0 LINE",
"567 294 LINE",
"841 525 LINE",
"799 525 LINE",
"559 325 LINE",
"555 325 LINE",
"555 559 LINE",
"558 700 OFFCURVE",
"487 749 OFFCURVE",
"378 749 CURVE SMOOTH",
"323 749 LINE SMOOTH",
"214 749 OFFCURVE",
"144 699 OFFCURVE",
"144 559 CURVE SMOOTH",
"144 0 LINE"
);
},
{
closed = 1;
nodes = (
"301 495 LINE",
"301 525 LINE",
"55 525 LINE",
"55 495 LINE"
);
}
);
width = 905;
}
);
leftKerningGroup = f;
rightKerningGroup = k;
},
{
glyphname = f_l.dlig;
layers = (
{
layerId = "306713D8-4F8C-486F-A8A4-9DD13D5E83DB";
paths = (
{
closed = 1;
nodes = (
"693 -3 OFFCURVE",
"734 1 OFFCURVE",
"754 3 CURVE",
"754 133 LINE",
"748 132 OFFCURVE",
"740 132 OFFCURVE",
"733 132 CURVE SMOOTH",
"655 132 OFFCURVE",
"655 165 OFFCURVE",
"655 218 CURVE SMOOTH",
"655 507 LINE SMOOTH",
"655 683 OFFCURVE",
"596 774 OFFCURVE",
"400 774 CURVE SMOOTH",
"320 774 LINE SMOOTH",
"178 774 OFFCURVE",
"89 685 OFFCURVE",
"89 541 CURVE SMOOTH",
"89 0 LINE",
"281 0 LINE",
"281 541 LINE SMOOTH",
"281 581 OFFCURVE",
"299 617 OFFCURVE",
"340 617 CURVE SMOOTH",
"400 617 LINE SMOOTH",
"462 617 OFFCURVE",
"465 585 OFFCURVE",
"465 530 CURVE SMOOTH",
"465 177 LINE SMOOTH",
"465 97 OFFCURVE",
"465 -3 OFFCURVE",
"656 -3 CURVE SMOOTH"
);
},
{
closed = 1;
nodes = (
"400 383 LINE",
"400 530 LINE",
"30 530 LINE",
"30 383 LINE"
);
}
);
width = 784;
},
{
layerId = "9DFE6445-7062-4987-A7C3-244173BC9CEA";
paths = (
{
closed = 1;
nodes = (
"641 -5 OFFCURVE",
"656 -3 OFFCURVE",
"669 0 CURVE",
"669 28 LINE",
"656 26 OFFCURVE",
"641 24 OFFCURVE",
"625 24 CURVE SMOOTH",
"555 24 OFFCURVE",
"555 62 OFFCURVE",
"555 127 CURVE SMOOTH",
"555 559 LINE SMOOTH",
"555 700 OFFCURVE",
"487 749 OFFCURVE",
"378 749 CURVE SMOOTH",
"323 749 LINE SMOOTH",
"214 749 OFFCURVE",
"144 699 OFFCURVE",
"144 559 CURVE SMOOTH",
"144 0 LINE",
"178 0 LINE",
"178 559 LINE SMOOTH",
"178 672 OFFCURVE",
"214 715 OFFCURVE",
"323 715 CURVE SMOOTH",
"378 715 LINE SMOOTH",
"487 715 OFFCURVE",
"521 672 OFFCURVE",
"521 559 CURVE SMOOTH",
"520 127 LINE SMOOTH",
"520 47 OFFCURVE",
"529 -5 OFFCURVE",
"623 -5 CURVE SMOOTH"
);
},
{
closed = 1;
nodes = (
"301 495 LINE",
"301 525 LINE",
"55 525 LINE",
"55 495 LINE"
);
}
);
width = 709;
}
);
},
{
glyphname = f_t.dlig;
layers = (
{
layerId = "306713D8-4F8C-486F-A8A4-9DD13D5E83DB";
paths = (
{
closed = 1;
nodes = (
"280 0 LINE",
"280 524 LINE SMOOTH",
"280 566 OFFCURVE",
"280 609 OFFCURVE",
"339 609 CURVE SMOOTH",
"352 609 OFFCURVE",
"379 607 OFFCURVE",
"391 605 CURVE",
"391 728 LINE",
"379 733 OFFCURVE",
"322 740 OFFCURVE",
"283 740 CURVE SMOOTH",
"100 740 OFFCURVE",
"90 610 OFFCURVE",
"90 584 CURVE SMOOTH",
"90 0 LINE"
);
},
{
closed = 1;
nodes = (
"809 383 LINE",
"809 530 LINE",
"30 530 LINE",
"30 383 LINE"
);
},
{
closed = 1;
nodes = (
"750 -3 OFFCURVE",
"809 4 OFFCURVE",
"809 4 CURVE",
"809 134 LINE",
"800 133 OFFCURVE",
"788 132 OFFCURVE",
"776 132 CURVE SMOOTH",
"698 132 OFFCURVE",
"698 165 OFFCURVE",
"698 218 CURVE SMOOTH",
"698 700 LINE",
"508 700 LINE",
"508 177 LINE SMOOTH",
"508 97 OFFCURVE",
"508 -3 OFFCURVE",
"699 -3 CURVE SMOOTH"
);
}
);
width = 851;
},
{
layerId = "9DFE6445-7062-4987-A7C3-244173BC9CEA";
paths = (
{
closed = 1;
nodes = (
"169 0 LINE",
"169 611 LINE SMOOTH",
"169 653 OFFCURVE",
"169 708 OFFCURVE",
"252 708 CURVE SMOOTH",
"270 708 OFFCURVE",
"288 706 OFFCURVE",
"301 703 CURVE",
"301 731 LINE",
"288 735 OFFCURVE",
"271 737 OFFCURVE",
"249 737 CURVE SMOOTH",
"152 737 OFFCURVE",
"134 674 OFFCURVE",
"134 611 CURVE SMOOTH",
"135 0 LINE"
);
},
{
closed = 1;
nodes = (
"667 495 LINE",
"667 525 LINE",
"55 525 LINE",
"55 495 LINE"
);
},
{
closed = 1;
nodes = (
"631 -5 OFFCURVE",
"653 0 OFFCURVE",
"667 5 CURVE",
"667 33 LINE",
"653 29 OFFCURVE",
"630 24 OFFCURVE",
"605 24 CURVE SMOOTH",
"535 24 OFFCURVE",
"535 62 OFFCURVE",
"535 127 CURVE SMOOTH",
"535 700 LINE",
"501 700 LINE",
"500 127 LINE SMOOTH",
"500 47 OFFCURVE",
"509 -5 OFFCURVE",
"603 -5 CURVE SMOOTH"
);
}
);
width = 722;
}
);
leftKerningGroup = f;
rightKerningGroup = t;
},
{
glyphname = r_f.dlig;
layers = (
{
layerId = "306713D8-4F8C-486F-A8A4-9DD13D5E83DB";
paths = (
{
closed = 1;
nodes = (
"230 0 LINE",
"230 250 LINE SMOOTH",
"230 362 OFFCURVE",
"266 383 OFFCURVE",
"337 383 CURVE SMOOTH",
"730 383 LINE",
"730 530 LINE",
"374 530 LINE SMOOTH",
"266 530 OFFCURVE",
"238 446 OFFCURVE",
"238 446 CURVE",
"230 446 LINE",
"230 530 LINE",
"40 530 LINE",
"40 0 LINE"
);
},
{
closed = 1;
nodes = (
"619 0 LINE",
"619 524 LINE SMOOTH",
"619 566 OFFCURVE",
"619 609 OFFCURVE",
"678 609 CURVE SMOOTH",
"691 609 OFFCURVE",
"718 607 OFFCURVE",
"730 605 CURVE",
"730 728 LINE",
"718 733 OFFCURVE",
"661 740 OFFCURVE",
"622 740 CURVE SMOOTH",
"439 740 OFFCURVE",
"429 610 OFFCURVE",
"429 584 CURVE SMOOTH",
"429 0 LINE"
);
}
);
width = 753;
},
{
guideLines = (
{
position = "{0, 470}";
}
);
layerId = "9DFE6445-7062-4987-A7C3-244173BC9CEA";
paths = (
{
closed = 1;
nodes = (
"115 0 LINE",
"115 329 LINE SMOOTH",
"115 449 OFFCURVE",
"191 495 OFFCURVE",
"253 495 CURVE SMOOTH",
"585 495 LINE",
"585 525 LINE",
"254 525 LINE SMOOTH",
"160 525 OFFCURVE",
"120 439 OFFCURVE",
"120 439 CURVE",
"115 439 LINE",
"115 525 LINE",
"82 525 LINE",
"82 0 LINE"
);
},
{
closed = 1;
nodes = (
"453 0 LINE",
"453 611 LINE SMOOTH",
"453 653 OFFCURVE",
"453 708 OFFCURVE",
"536 708 CURVE SMOOTH",
"554 708 OFFCURVE",
"572 706 OFFCURVE",
"585 703 CURVE",
"585 731 LINE",
"572 735 OFFCURVE",
"555 737 OFFCURVE",
"533 737 CURVE SMOOTH",
"436 737 OFFCURVE",
"418 674 OFFCURVE",
"418 611 CURVE SMOOTH",
"419 0 LINE"
);
}
);
width = 640;
}
);
leftKerningGroup = h;
rightKerningGroup = f;
},
{
glyphname = r_t.dlig;
layers = (
{
layerId = "306713D8-4F8C-486F-A8A4-9DD13D5E83DB";
paths = (
{
closed = 1;
nodes = (
"230 0 LINE",
"230 231 LINE SMOOTH",
"230 343 OFFCURVE",
"266 383 OFFCURVE",
"337 383 CURVE SMOOTH",
"430 383 LINE",
"430 530 LINE",
"374 530 LINE SMOOTH",
"266 530 OFFCURVE",
"238 446 OFFCURVE",
"238 446 CURVE",
"230 446 LINE",
"230 530 LINE",
"40 530 LINE",
"40 0 LINE"
);
},
{
closed = 1;
nodes = (
"730 -3 OFFCURVE",
"789 4 OFFCURVE",
"789 4 CURVE",
"789 134 LINE",
"780 133 OFFCURVE",
"768 132 OFFCURVE",
"756 132 CURVE SMOOTH",
"678 132 OFFCURVE",
"678 165 OFFCURVE",
"678 218 CURVE SMOOTH",
"678 700 LINE",
"488 700 LINE",
"488 177 LINE SMOOTH",
"488 97 OFFCURVE",
"488 -3 OFFCURVE",
"679 -3 CURVE SMOOTH"
);
},
{
closed = 1;
nodes = (
"789 383 LINE",
"789 530 LINE",
"410 530 LINE",
"410 383 LINE"
);
}
);
width = 834;
},
{
layerId = "9DFE6445-7062-4987-A7C3-244173BC9CEA";
paths = (
{
closed = 1;
nodes = (
"125 0 LINE",
"125 329 LINE SMOOTH",
"125 449 OFFCURVE",
"201 495 OFFCURVE",
"263 495 CURVE SMOOTH",
"448 495 LINE",
"448 525 LINE",
"264 525 LINE SMOOTH",
"170 525 OFFCURVE",
"130 439 OFFCURVE",
"130 439 CURVE",
"125 439 LINE",
"125 525 LINE",
"92 525 LINE",
"92 0 LINE"
);
},
{
closed = 1;
nodes = (
"569 -5 OFFCURVE",
"591 0 OFFCURVE",
"605 5 CURVE",
"605 33 LINE",
"591 29 OFFCURVE",
"568 24 OFFCURVE",
"543 24 CURVE SMOOTH",
"473 24 OFFCURVE",
"473 62 OFFCURVE",
"473 127 CURVE SMOOTH",
"473 700 LINE",
"439 700 LINE",
"438 127 LINE SMOOTH",
"438 47 OFFCURVE",
"447 -5 OFFCURVE",
"541 -5 CURVE SMOOTH"
);
},
{
closed = 1;
nodes = (
"605 495 LINE",
"605 525 LINE",
"330 525 LINE",
"330 495 LINE"
);
}
);
width = 660;
}
);
leftKerningGroup = h;
rightKerningGroup = t;
},
{
glyphname = f_f.liga;
layers = (
{
guideLines = (
{
angle = 90;
position = "{581, 0}";
},
{
angle = 90;
position = "{82, 0}";
}
);
layerId = "306713D8-4F8C-486F-A8A4-9DD13D5E83DB";
paths = (
{
closed = 1;
nodes = (
"677 0 LINE",
"677 524 LINE SMOOTH",
"677 566 OFFCURVE",
"677 609 OFFCURVE",
"736 609 CURVE SMOOTH",
"749 609 OFFCURVE",
"776 607 OFFCURVE",
"788 605 CURVE",
"788 728 LINE",
"776 733 OFFCURVE",
"719 740 OFFCURVE",
"680 740 CURVE SMOOTH",
"497 740 OFFCURVE",
"487 610 OFFCURVE",
"487 584 CURVE SMOOTH",
"487 0 LINE"
);
},
{
closed = 1;
nodes = (
"280 0 LINE",
"280 524 LINE SMOOTH",
"280 566 OFFCURVE",
"280 609 OFFCURVE",
"339 609 CURVE SMOOTH",
"352 609 OFFCURVE",
"379 607 OFFCURVE",
"391 605 CURVE",
"391 728 LINE",
"379 733 OFFCURVE",
"322 740 OFFCURVE",
"283 740 CURVE SMOOTH",
"100 740 OFFCURVE",
"90 610 OFFCURVE",
"90 584 CURVE SMOOTH",
"90 0 LINE"
);
},
{
closed = 1;
nodes = (
"787 383 LINE",
"787 530 LINE",
"30 530 LINE",
"30 383 LINE"
);
}
);
width = 803;
},
{
layerId = "9DFE6445-7062-4987-A7C3-244173BC9CEA";
paths = (
{
closed = 1;
nodes = (
"521 0 LINE",
"521 611 LINE SMOOTH",
"521 653 OFFCURVE",
"521 708 OFFCURVE",
"604 708 CURVE SMOOTH",
"622 708 OFFCURVE",
"640 706 OFFCURVE",
"653 703 CURVE",
"653 731 LINE",
"640 735 OFFCURVE",
"623 737 OFFCURVE",
"601 737 CURVE SMOOTH",
"504 737 OFFCURVE",
"486 674 OFFCURVE",
"486 611 CURVE SMOOTH",
"487 0 LINE"
);
},
{
closed = 1;
nodes = (
"169 0 LINE",
"169 611 LINE SMOOTH",
"169 653 OFFCURVE",
"169 708 OFFCURVE",
"252 708 CURVE SMOOTH",
"270 708 OFFCURVE",
"288 706 OFFCURVE",
"301 703 CURVE",
"301 731 LINE",
"288 735 OFFCURVE",
"271 737 OFFCURVE",
"249 737 CURVE SMOOTH",
"152 737 OFFCURVE",
"134 674 OFFCURVE",
"134 611 CURVE SMOOTH",
"135 0 LINE"
);
},
{
closed = 1;
nodes = (
"653 495 LINE",
"653 525 LINE",
"55 525 LINE",
"55 495 LINE"
);
}
);
width = 708;
}
);
leftKerningGroup = f;
rightKerningGroup = f;
},
{
glyphname = f_i.liga;
layers = (
{
components = (
{
name = idotless;
transform = "{1, 0, 0, 1, 403, 0}";
alignment = -1;
},
{
name = dotaccentcomb;
transform = "{1, 0, 0, 1, 403, 0}";
alignment = -1;
}
);
guideLines = (
{
position = "{0, 750}";
},
{
position = "{0, 636}";
}
);
layerId = "306713D8-4F8C-486F-A8A4-9DD13D5E83DB";
paths = (
{
closed = 1;
nodes = (
"280 0 LINE",
"280 524 LINE SMOOTH",
"280 566 OFFCURVE",
"280 609 OFFCURVE",
"339 609 CURVE SMOOTH",
"352 609 OFFCURVE",
"379 607 OFFCURVE",
"391 605 CURVE",
"391 728 LINE",
"379 733 OFFCURVE",
"322 740 OFFCURVE",
"283 740 CURVE SMOOTH",
"100 740 OFFCURVE",
"90 610 OFFCURVE",
"90 584 CURVE SMOOTH",
"90 0 LINE"
);
},
{
closed = 1;
nodes = (
"636 383 LINE",
"636 530 LINE",
"30 530 LINE",
"30 383 LINE"
);
}
);
width = 713;
},
{
components = (
{
name = idotless;
transform = "{1, 0, 0, 1, 359, 0}";
alignment = -1;
},
{
name = dotaccentcomb;
transform = "{1, 0, 0, 1, 353, 0}";
alignment = -1;
}
);
guideLines = (
{
position = "{0, 749}";
}
);
layerId = "9DFE6445-7062-4987-A7C3-244173BC9CEA";
paths = (
{
closed = 1;
nodes = (
"169 0 LINE",
"169 611 LINE SMOOTH",
"169 653 OFFCURVE",
"169 708 OFFCURVE",
"252 708 CURVE SMOOTH",
"270 708 OFFCURVE",
"288 706 OFFCURVE",
"301 703 CURVE",
"301 731 LINE",
"288 735 OFFCURVE",
"271 737 OFFCURVE",
"249 737 CURVE SMOOTH",
"152 737 OFFCURVE",
"134 674 OFFCURVE",
"134 611 CURVE SMOOTH",
"135 0 LINE"
);
},
{
closed = 1;
nodes = (
"481 495 LINE",
"481 525 LINE",
"55 525 LINE",
"55 495 LINE"
);
}
);
width = 581;
}
);
leftKerningGroup = f;
rightKerningGroup = i;
},
{
glyphname = t_t.liga;
layers = (
{
layerId = "306713D8-4F8C-486F-A8A4-9DD13D5E83DB";
paths = (
{
closed = 1;
nodes = (
"792 -3 OFFCURVE",
"851 4 OFFCURVE",
"851 4 CURVE",
"851 134 LINE",
"842 133 OFFCURVE",
"830 132 OFFCURVE",
"818 132 CURVE SMOOTH",
"740 132 OFFCURVE",
"740 165 OFFCURVE",
"740 218 CURVE SMOOTH",
"740 700 LINE",
"550 700 LINE",
"550 177 LINE SMOOTH",
"550 97 OFFCURVE",
"550 -3 OFFCURVE",
"741 -3 CURVE SMOOTH"
);
},
{
closed = 1;
nodes = (
"345 -3 OFFCURVE",
"404 4 OFFCURVE",
"404 4 CURVE",
"404 134 LINE",
"395 133 OFFCURVE",
"383 132 OFFCURVE",
"371 132 CURVE SMOOTH",
"293 132 OFFCURVE",
"293 165 OFFCURVE",
"293 218 CURVE SMOOTH",
"293 700 LINE",
"103 700 LINE",
"103 177 LINE SMOOTH",
"103 97 OFFCURVE",
"103 -3 OFFCURVE",
"294 -3 CURVE SMOOTH"
);
},
{
closed = 1;
nodes = (
"851 383 LINE",
"851 530 LINE",
"25 530 LINE",
"25 383 LINE"
);
}
);
width = 896;
},
{
layerId = "9DFE6445-7062-4987-A7C3-244173BC9CEA";
paths = (
{
closed = 1;
nodes = (
"639 -5 OFFCURVE",
"661 0 OFFCURVE",
"675 5 CURVE",
"675 33 LINE",
"661 29 OFFCURVE",
"638 24 OFFCURVE",
"613 24 CURVE SMOOTH",
"543 24 OFFCURVE",
"543 62 OFFCURVE",
"543 127 CURVE SMOOTH",
"543 700 LINE",
"509 700 LINE",
"508 127 LINE SMOOTH",
"508 47 OFFCURVE",
"517 -5 OFFCURVE",
"611 -5 CURVE SMOOTH"
);
},
{
closed = 1;
nodes = (
"274 -5 OFFCURVE",
"296 0 OFFCURVE",
"310 5 CURVE",
"310 33 LINE",
"296 29 OFFCURVE",
"273 24 OFFCURVE",
"248 24 CURVE SMOOTH",
"178 24 OFFCURVE",
"178 62 OFFCURVE",
"178 127 CURVE SMOOTH",
"178 700 LINE",
"144 700 LINE",
"143 127 LINE SMOOTH",
"143 47 OFFCURVE",
"152 -5 OFFCURVE",
"246 -5 CURVE SMOOTH"
);
},
{
closed = 1;
nodes = (
"675 495 LINE",
"675 525 LINE",
"35 525 LINE",
"35 495 LINE"
);
}
);
width = 730;
}
);
leftKerningGroup = t;
rightKerningGroup = t;
},
{
glyphname = f_f.liga.ss01;
layers = (
{
guideLines = (
{
angle = 90;
position = "{581, 0}";
},
{
angle = 90;
position = "{82, 0}";
}
);
layerId = "306713D8-4F8C-486F-A8A4-9DD13D5E83DB";
paths = (
{
closed = 1;
nodes = (
"676 0 LINE",
"676 524 LINE SMOOTH",
"676 566 OFFCURVE",
"676 591 OFFCURVE",
"735 591 CURVE SMOOTH",
"787 591 LINE",
"787 740 LINE",
"690 740 LINE SMOOTH",
"507 740 OFFCURVE",
"486 623 OFFCURVE",
"486 566 CURVE SMOOTH",
"486 0 LINE"
);
},
{
closed = 1;
nodes = (
"280 0 LINE",
"280 524 LINE SMOOTH",
"280 566 OFFCURVE",
"280 591 OFFCURVE",
"339 591 CURVE SMOOTH",
"391 591 LINE",
"391 740 LINE",
"294 740 LINE SMOOTH",
"111 740 OFFCURVE",
"90 623 OFFCURVE",
"90 566 CURVE SMOOTH",
"90 0 LINE"
);
},
{
closed = 1;
nodes = (
"787 383 LINE",
"787 530 LINE",
"30 530 LINE",
"30 383 LINE"
);
}
);
width = 802;
},
{
layerId = "9DFE6445-7062-4987-A7C3-244173BC9CEA";
paths = (
{
closed = 1;
nodes = (
"521 0 LINE",
"521 611 LINE SMOOTH",
"521 653 OFFCURVE",
"521 703 OFFCURVE",
"604 703 CURVE SMOOTH",
"653 703 LINE",
"653 737 LINE",
"601 737 LINE SMOOTH",
"504 737 OFFCURVE",
"486 674 OFFCURVE",
"486 611 CURVE SMOOTH",
"487 0 LINE"
);
},
{
closed = 1;
nodes = (
"169 0 LINE",
"169 611 LINE SMOOTH",
"169 653 OFFCURVE",
"169 703 OFFCURVE",
"252 703 CURVE SMOOTH",
"301 703 LINE",
"301 737 LINE",
"249 737 LINE SMOOTH",
"152 737 OFFCURVE",
"134 674 OFFCURVE",
"134 611 CURVE SMOOTH",
"135 0 LINE"
);
},
{
closed = 1;
nodes = (
"653 495 LINE",
"653 525 LINE",
"55 525 LINE",
"55 495 LINE"
);
}
);
width = 708;
}
);
leftKerningGroup = f;
rightKerningGroup = f;
},
{
glyphname = f_i.liga.ss01;
layers = (
{
components = (
{
name = idotless;
transform = "{1, 0, 0, 1, 403, 0}";
alignment = -1;
},
{
name = dotaccentcomb;
transform = "{1, 0, 0, 1, 403, 0}";
alignment = -1;
}
);
guideLines = (
{
position = "{0, 750}";
},
{
position = "{0, 636}";
}
);
layerId = "306713D8-4F8C-486F-A8A4-9DD13D5E83DB";
paths = (
{
closed = 1;
nodes = (
"636 383 LINE",
"636 530 LINE",
"30 530 LINE",
"30 383 LINE"
);
},
{
closed = 1;
nodes = (
"280 0 LINE",
"280 524 LINE SMOOTH",
"280 566 OFFCURVE",
"280 591 OFFCURVE",
"339 591 CURVE SMOOTH",
"391 591 LINE",
"391 740 LINE",
"294 740 LINE SMOOTH",
"111 740 OFFCURVE",
"90 623 OFFCURVE",
"90 566 CURVE SMOOTH",
"90 0 LINE"
);
}
);
width = 713;
},
{
components = (
{
name = idotless;
transform = "{1, 0, 0, 1, 359, 0}";
alignment = -1;
},
{
name = dotaccentcomb;
transform = "{1, 0, 0, 1, 353, 0}";
alignment = -1;
}
);
guideLines = (
{
position = "{0, 749}";
}
);
layerId = "9DFE6445-7062-4987-A7C3-244173BC9CEA";
paths = (
{
closed = 1;
nodes = (
"481 495 LINE",
"481 525 LINE",
"55 525 LINE",
"55 495 LINE"
);
},
{
closed = 1;
nodes = (
"169 0 LINE",
"169 611 LINE SMOOTH",
"169 653 OFFCURVE",
"169 703 OFFCURVE",
"252 703 CURVE SMOOTH",
"301 703 LINE",
"301 737 LINE",
"249 737 LINE SMOOTH",
"152 737 OFFCURVE",
"134 674 OFFCURVE",
"134 611 CURVE SMOOTH",
"135 0 LINE"
);
}
);
width = 581;
}
);
leftKerningGroup = f;
rightKerningGroup = i;
},
{
glyphname = t_t.liga.ss01;
layers = (
{
layerId = "306713D8-4F8C-486F-A8A4-9DD13D5E83DB";
paths = (
{
closed = 1;
nodes = (
"851 383 LINE",
"851 530 LINE",
"25 530 LINE",
"25 383 LINE"
);
},
{
closed = 1;
nodes = (
"387 0 LINE",
"387 149 LINE",
"371 149 LINE SMOOTH",
"294 149 OFFCURVE",
"293 179 OFFCURVE",
"293 247 CURVE SMOOTH",
"293 700 LINE",
"103 700 LINE",
"103 200 LINE SMOOTH",
"103 107 OFFCURVE",
"115 0 OFFCURVE",
"294 0 CURVE SMOOTH"
);
},
{
closed = 1;
nodes = (
"834 0 LINE",
"834 149 LINE",
"818 149 LINE SMOOTH",
"741 149 OFFCURVE",
"740 179 OFFCURVE",
"740 247 CURVE SMOOTH",
"740 700 LINE",
"550 700 LINE",
"550 200 LINE SMOOTH",
"550 107 OFFCURVE",
"562 0 OFFCURVE",
"741 0 CURVE SMOOTH"
);
}
);
width = 896;
},
{
layerId = "9DFE6445-7062-4987-A7C3-244173BC9CEA";
paths = (
{
closed = 1;
nodes = (
"675 495 LINE",
"675 525 LINE",
"35 525 LINE",
"35 495 LINE"
);
},
{
closed = 1;
nodes = (
"310 0 LINE",
"310 29 LINE",
"248 29 LINE SMOOTH",
"183 29 OFFCURVE",
"178 67 OFFCURVE",
"178 132 CURVE SMOOTH",
"178 700 LINE",
"144 700 LINE",
"143 132 LINE SMOOTH",
"143 52 OFFCURVE",
"152 0 OFFCURVE",
"246 0 CURVE SMOOTH"
);
},
{
closed = 1;
nodes = (
"675 0 LINE",
"675 29 LINE",
"613 29 LINE SMOOTH",
"548 29 OFFCURVE",
"543 67 OFFCURVE",
"543 132 CURVE SMOOTH",
"543 700 LINE",
"509 700 LINE",
"508 132 LINE SMOOTH",
"508 52 OFFCURVE",
"517 0 OFFCURVE",
"611 0 CURVE SMOOTH"
);
}
);
width = 730;
}
);
leftKerningGroup = t;
rightKerningGroup = t;
},
{
glyphname = ordfeminine;
layers = (
{
guideLines = (
{
position = "{0, 373}";
},
{
position = "{0, 376}";
}
);
layerId = "306713D8-4F8C-486F-A8A4-9DD13D5E83DB";
paths = (
{
closed = 1;
nodes = (
"92 373 OFFCURVE",
"99 393 OFFCURVE",
"99 393 CURVE",
"101 393 LINE",
"101 376 LINE",
"173 376 LINE",
"173 530 LINE",
"101 530 LINE",
"101 513 LINE",
"99 513 LINE",
"99 513 OFFCURVE",
"92 531 OFFCURVE",
"66 531 CURVE SMOOTH",
"33 531 OFFCURVE",
"10 504 OFFCURVE",
"10 452 CURVE SMOOTH",
"10 401 OFFCURVE",
"32 373 OFFCURVE",
"66 373 CURVE SMOOTH"
);
},
{
closed = 1;
nodes = (
"77 427 OFFCURVE",
"77 447 OFFCURVE",
"77 452 CURVE SMOOTH",
"77 457 OFFCURVE",
"77 478 OFFCURVE",
"92 478 CURVE SMOOTH",
"107 478 OFFCURVE",
"107 457 OFFCURVE",
"107 452 CURVE SMOOTH",
"107 447 OFFCURVE",
"107 427 OFFCURVE",
"92 427 CURVE SMOOTH"
);
}
);
width = 183;
},
{
guideLines = (
{
position = "{0, 394}";
}
);
layerId = "9DFE6445-7062-4987-A7C3-244173BC9CEA";
paths = (
{
closed = 1;
nodes = (
"80 394 OFFCURVE",
"93 410 OFFCURVE",
"99 421 CURVE",
"101 421 LINE",
"101 396 LINE",
"125 396 LINE",
"125 527 LINE",
"101 527 LINE",
"101 504 LINE",
"99 504 LINE",
"94 515 OFFCURVE",
"81 531 OFFCURVE",
"55 531 CURVE SMOOTH",
"20 531 OFFCURVE",
"0 501 OFFCURVE",
"0 462 CURVE SMOOTH",
"0 424 OFFCURVE",
"19 394 OFFCURVE",
"55 394 CURVE SMOOTH"
);
},
{
closed = 1;
nodes = (
"36 414 OFFCURVE",
"25 438 OFFCURVE",
"25 463 CURVE SMOOTH",
"25 487 OFFCURVE",
"36 510 OFFCURVE",
"63 510 CURVE SMOOTH",
"88 510 OFFCURVE",
"100 488 OFFCURVE",
"100 462 CURVE SMOOTH",
"100 437 OFFCURVE",
"88 414 OFFCURVE",
"63 414 CURVE SMOOTH"
);
}
);
width = 140;
}
);
unicode = 00AA;
},
{
glyphname = ordmasculine;
layers = (
{
anchors = (
{
name = bottom;
position = "{87, 376}";
},
{
name = center;
position = "{87, 455}";
},
{
name = ogonek;
position = "{157, 379}";
},
{
name = top;
position = "{87, 535}";
},
{
name = topright;
position = "{168, 535}";
}
);
guideLines = (
{
position = "{0, 376}";
},
{
position = "{0, 373}";
}
);
layerId = "306713D8-4F8C-486F-A8A4-9DD13D5E83DB";
paths = (
{
closed = 1;
nodes = (
"142 373 OFFCURVE",
"166 411 OFFCURVE",
"166 456 CURVE SMOOTH",
"166 500 OFFCURVE",
"142 538 OFFCURVE",
"88 538 CURVE SMOOTH",
"34 538 OFFCURVE",
"10 500 OFFCURVE",
"10 455 CURVE SMOOTH",
"10 410 OFFCURVE",
"34 373 OFFCURVE",
"88 373 CURVE SMOOTH"
);
},
{
closed = 1;
nodes = (
"72 423 OFFCURVE",
"69 440 OFFCURVE",
"69 456 CURVE SMOOTH",
"69 472 OFFCURVE",
"72 488 OFFCURVE",
"88 488 CURVE SMOOTH",
"103 488 OFFCURVE",
"107 472 OFFCURVE",
"107 456 CURVE SMOOTH",
"107 440 OFFCURVE",
"103 423 OFFCURVE",
"88 423 CURVE SMOOTH"
);
}
);
width = 175;
},
{
anchors = (
{
name = bottom;
position = "{81, 388}";
},
{
name = center;
position = "{81, 458}";
},
{
name = ogonek;
position = "{144, 391}";
},
{
name = top;
position = "{81, 528}";
},
{
name = topright;
position = "{133, 528}";
}
);
guideLines = (
{
position = "{0, 394}";
}
);
layerId = "9DFE6445-7062-4987-A7C3-244173BC9CEA";
paths = (
{
closed = 1;
nodes = (
"120 394 OFFCURVE",
"140 430 OFFCURVE",
"140 462 CURVE SMOOTH",
"140 496 OFFCURVE",
"119 531 OFFCURVE",
"77 531 CURVE SMOOTH",
"35 531 OFFCURVE",
"15 495 OFFCURVE",
"15 462 CURVE SMOOTH",
"15 428 OFFCURVE",
"35 394 OFFCURVE",
"77 394 CURVE"
);
},
{
closed = 1;
nodes = (
"52 413 OFFCURVE",
"39 437 OFFCURVE",
"39 462 CURVE SMOOTH",
"39 489 OFFCURVE",
"53 512 OFFCURVE",
"77 512 CURVE SMOOTH",
"102 512 OFFCURVE",
"116 489 OFFCURVE",
"116 462 CURVE SMOOTH",
"116 436 OFFCURVE",
"102 413 OFFCURVE",
"77 413 CURVE SMOOTH"
);
}
);
width = 154;
}
);
unicode = 00BA;
},
{
glyphname = zero;
layers = (
{
guideLines = (
{
position = "{0, 350}";
},
{
angle = 90;
position = "{49, 195}";
},
{
position = "{0, 713}";
},
{
position = "{0, -10}";
},
{
position = "{0, 320}";
},
{
position = "{0, 380}";
},
{
position = "{0, 350}";
}
);
layerId = "306713D8-4F8C-486F-A8A4-9DD13D5E83DB";
paths = (
{
closed = 1;
nodes = (
"523 -17 OFFCURVE",
"605 128 OFFCURVE",
"605 320 CURVE SMOOTH",
"605 380 LINE SMOOTH",
"605 572 OFFCURVE",
"523 713 OFFCURVE",
"317 713 CURVE SMOOTH",
"111 713 OFFCURVE",
"29 572 OFFCURVE",
"29 380 CURVE SMOOTH",
"29 320 LINE SMOOTH",
"29 128 OFFCURVE",
"111 -17 OFFCURVE",
"317 -17 CURVE SMOOTH"
);
},
{
closed = 1;
nodes = (
"255 146 OFFCURVE",
"245 211 OFFCURVE",
"245 305 CURVE SMOOTH",
"245 395 LINE SMOOTH",
"245 489 OFFCURVE",
"255 550 OFFCURVE",
"317 550 CURVE SMOOTH",
"379 550 OFFCURVE",
"389 489 OFFCURVE",
"389 395 CURVE SMOOTH",
"389 305 LINE SMOOTH",
"389 211 OFFCURVE",
"379 146 OFFCURVE",
"317 146 CURVE SMOOTH"
);
}
);
width = 638;
},
{
guideLines = (
{
position = "{0, 26}";
},
{
position = "{0, 715}";
},
{
position = "{0, 682}";
},
{
position = "{0, -7}";
},
{
position = "{0, 354}";
},
{
position = "{0, 325}";
},
{
position = "{0, 383}";
},
{
position = "{0, 354}";
}
);
layerId = "9DFE6445-7062-4987-A7C3-244173BC9CEA";
paths = (
{
closed = 1;
nodes = (
"455 -7 OFFCURVE",
"526 129 OFFCURVE",
"526 291 CURVE SMOOTH",
"526 417 LINE SMOOTH",
"526 579 OFFCURVE",
"455 715 OFFCURVE",
"294 715 CURVE SMOOTH",
"133 715 OFFCURVE",
"62 579 OFFCURVE",
"62 417 CURVE SMOOTH",
"62 291 LINE SMOOTH",
"62 129 OFFCURVE",
"133 -7 OFFCURVE",
"294 -7 CURVE SMOOTH"
);
},
{
closed = 1;
nodes = (
"173 26 OFFCURVE",
"94 113 OFFCURVE",
"94 304 CURVE SMOOTH",
"94 404 LINE SMOOTH",
"94 595 OFFCURVE",
"173 682 OFFCURVE",
"294 682 CURVE SMOOTH",
"415 682 OFFCURVE",
"494 595 OFFCURVE",
"494 404 CURVE SMOOTH",
"494 304 LINE SMOOTH",
"494 113 OFFCURVE",
"415 26 OFFCURVE",
"294 26 CURVE SMOOTH"
);
}
);
width = 588;
}
);
leftKerningGroup = O;
rightKerningGroup = O;
unicode = 0030;
},
{
glyphname = one;
layers = (
{
guideLines = (
{
angle = 322.75;
position = "{39, 448}";
},
{
angle = 230.79;
position = "{143, 612}";
},
{
angle = 55.22;
position = "{157, 401}";
},
{
angle = 221.47;
position = "{138, 416}";
},
{
angle = 221.47;
position = "{138, 632}";
},
{
angle = 90;
position = "{61, 238}";
}
);
layerId = "306713D8-4F8C-486F-A8A4-9DD13D5E83DB";
paths = (
{
closed = 1;
nodes = (
"398 0 LINE",
"398 700 LINE",
"211 700 LINE",
"55 563 LINE",
"55 337 LINE",
"211 474 LINE",
"215 474 LINE",
"215 0 LINE"
);
},
{
closed = 1;
nodes = (
"538 0 LINE",
"538 164 LINE",
"56 164 LINE",
"56 0 LINE"
);
}
);
width = 554;
},
{
guideLines = (
{
angle = 44.37;
position = "{133, 590}";
},
{
angle = 44.37;
position = "{176, 583}";
},
{
angle = 90;
position = "{114, 0}";
}
);
layerId = "9DFE6445-7062-4987-A7C3-244173BC9CEA";
paths = (
{
closed = 1;
nodes = (
"280 0 LINE",
"280 700 LINE",
"246 700 LINE",
"114 571 LINE",
"114 529 LINE",
"245 658 LINE",
"249 658 LINE",
"249 0 LINE"
);
},
{
closed = 1;
nodes = (
"407 0 LINE",
"407 34 LINE",
"116 34 LINE",
"116 0 LINE"
);
}
);
width = 463;
}
);
unicode = 0031;
},
{
glyphname = two;
layers = (
{
guideLines = (
{
position = "{0, 596}";
},
{
position = "{0, 157}";
},
{
angle = 90;
position = "{224, 0}";
},
{
position = "{0, 234}";
},
{
position = "{0, 488}";
},
{
angle = 218.42;
position = "{279, 158}";
},
{
angle = 218.42;
position = "{84, 181}";
},
{
position = "{0, 715}";
},
{
position = "{0, 557}";
},
{
angle = 90;
position = "{550, 0}";
},
{
angle = 90;
position = "{359, 0}";
}
);
layerId = "306713D8-4F8C-486F-A8A4-9DD13D5E83DB";
paths = (
{
closed = 1;
nodes = (
"550 0 LINE",
"550 164 LINE",
"293 164 LINE",
"293 169 LINE",
"363 226 LINE SMOOTH",
"432 282 OFFCURVE",
"545 356 OFFCURVE",
"545 495 CURVE SMOOTH",
"545 624 OFFCURVE",
"446 715 OFFCURVE",
"292 715 CURVE SMOOTH",
"163 715 OFFCURVE",
"36 644 OFFCURVE",
"36 452 CURVE",
"222 452 LINE",
"222 467 LINE SMOOTH",
"222 480 OFFCURVE",
"220 554 OFFCURVE",
"296 554 CURVE SMOOTH",
"349 554 OFFCURVE",
"367 517 OFFCURVE",
"367 483 CURVE SMOOTH",
"367 392 OFFCURVE",
"239 316 OFFCURVE",
"102 204 CURVE SMOOTH",
"48 160 LINE",
"48 0 LINE"
);
}
);
width = 604;
},
{
guideLines = (
{
angle = 224.67;
position = "{159, 159}";
},
{
angle = 90;
position = "{146, 0}";
},
{
angle = 90;
position = "{469, 0}";
},
{
angle = 90;
position = "{71, 0}";
},
{
angle = 348.23;
position = "{39, 511}";
},
{
angle = 223.44;
position = "{252, 154}";
},
{
angle = 223.44;
position = "{191, 148}";
},
{
position = "{0, 715}";
},
{
position = "{0, 681}";
},
{
angle = 90;
position = "{505, 0}";
}
);
layerId = "9DFE6445-7062-4987-A7C3-244173BC9CEA";
paths = (
{
closed = 1;
nodes = (
"524 0 LINE",
"524 34 LINE",
"137 34 LINE",
"137 39 LINE",
"307 190 LINE SMOOTH",
"424 294 OFFCURVE",
"516 385 OFFCURVE",
"516 512 CURVE SMOOTH",
"516 602 OFFCURVE",
"469 715 OFFCURVE",
"310 715 CURVE SMOOTH",
"122 715 OFFCURVE",
"96 567 OFFCURVE",
"96 498 CURVE",
"131 498 LINE",
"131 502 LINE SMOOTH",
"131 571 OFFCURVE",
"157 681 OFFCURVE",
"308 681 CURVE SMOOTH",
"431 681 OFFCURVE",
"481 599 OFFCURVE",
"481 513 CURVE SMOOTH",
"481 398 OFFCURVE",
"396 317 OFFCURVE",
"307 237 CURVE SMOOTH",
"82 33 LINE",
"83 0 LINE"
);
}
);
width = 575;
}
);
leftKerningGroup = two;
rightKerningGroup = two;
unicode = 0032;
},
{
glyphname = three;
layers = (
{
guideLines = (
{
angle = 90;
position = "{742, 0}";
},
{
angle = 90;
position = "{596, 0}";
},
{
angle = 90;
position = "{455, 0}";
},
{
angle = 90;
position = "{278, 0}";
},
{
angle = 90;
position = "{144, 0}";
},
{
angle = 355.1;
position = "{266, 476}";
},
{
angle = 90;
position = "{466, 0}";
},
{
position = "{0, 715}";
},
{
position = "{0, -10}";
}
);
layerId = "306713D8-4F8C-486F-A8A4-9DD13D5E83DB";
paths = (
{
closed = 1;
nodes = (
"482 -10 OFFCURVE",
"564 97 OFFCURVE",
"564 208 CURVE SMOOTH",
"564 337 OFFCURVE",
"453 362 OFFCURVE",
"455 362 CURVE",
"455 369 LINE",
"453 369 OFFCURVE",
"556 401 OFFCURVE",
"556 509 CURVE SMOOTH",
"556 593 OFFCURVE",
"493 719 OFFCURVE",
"296 719 CURVE SMOOTH",
"115 719 OFFCURVE",
"45 611 OFFCURVE",
"28 495 CURVE",
"214 495 LINE",
"224 541 OFFCURVE",
"252 565 OFFCURVE",
"295 565 CURVE SMOOTH",
"338 565 OFFCURVE",
"367 540 OFFCURVE",
"367 503 CURVE SMOOTH",
"367 475 OFFCURVE",
"351 442 OFFCURVE",
"304 442 CURVE SMOOTH",
"239 442 LINE",
"239 300 LINE",
"297 300 LINE SMOOTH",
"351 300 OFFCURVE",
"379 268 OFFCURVE",
"379 228 CURVE SMOOTH",
"379 186 OFFCURVE",
"345 157 OFFCURVE",
"296 157 CURVE SMOOTH",
"252 157 OFFCURVE",
"219 180 OFFCURVE",
"207 229 CURVE",
"14 229 LINE",
"29 98 OFFCURVE",
"110 -10 OFFCURVE",
"296 -10 CURVE SMOOTH"
);
}
);
width = 604;
},
{
guideLines = (
{
angle = 90;
position = "{795, 0}";
},
{
angle = 90;
position = "{862, 0}";
},
{
position = "{0, -7}";
},
{
position = "{0, 716}";
},
{
position = "{0, 53}";
},
{
angle = 90;
position = "{487, 0}";
},
{
angle = 348.23;
position = "{197, 546}";
},
{
angle = 192.2;
position = "{186, 147}";
},
{
angle = 90;
position = "{101, 0}";
},
{
angle = 90;
position = "{520, 0}";
},
{
position = "{0, 681}";
},
{
position = "{0, 26}";
}
);
layerId = "9DFE6445-7062-4987-A7C3-244173BC9CEA";
paths = (
{
closed = 1;
nodes = (
"455 -7 OFFCURVE",
"520 84 OFFCURVE",
"520 186 CURVE SMOOTH",
"520 324 OFFCURVE",
"406 354 OFFCURVE",
"391 356 CURVE",
"391 361 LINE",
"405 361 OFFCURVE",
"512 400 OFFCURVE",
"512 525 CURVE SMOOTH",
"512 626 OFFCURVE",
"447 715 OFFCURVE",
"303 715 CURVE SMOOTH",
"160 715 OFFCURVE",
"112 624 OFFCURVE",
"101 564 CURVE",
"135 564 LINE",
"147 624 OFFCURVE",
"198 681 OFFCURVE",
"302 681 CURVE SMOOTH",
"408 681 OFFCURVE",
"479 621 OFFCURVE",
"479 522 CURVE SMOOTH",
"479 400 OFFCURVE",
"374 374 OFFCURVE",
"295 374 CURVE SMOOTH",
"234 374 LINE",
"234 342 LINE",
"305 342 LINE SMOOTH",
"393 342 OFFCURVE",
"487 298 OFFCURVE",
"487 186 CURVE SMOOTH",
"487 102 OFFCURVE",
"436 26 OFFCURVE",
"305 26 CURVE SMOOTH",
"197 26 OFFCURVE",
"139 81 OFFCURVE",
"120 143 CURVE",
"86 143 LINE",
"102 74 OFFCURVE",
"167 -7 OFFCURVE",
"307 -7 CURVE SMOOTH"
);
}
);
width = 580;
}
);
leftKerningGroup = three;
rightKerningGroup = o;
unicode = 0033;
},
{
glyphname = four;
layers = (
{
guideLines = (
{
angle = 90;
position = "{328, 0}";
},
{
position = "{0, 279}";
},
{
position = "{0, 540}";
},
{
angle = 90;
position = "{187, 0}";
},
{
angle = 238.95;
position = "{154, 494}";
}
);
layerId = "306713D8-4F8C-486F-A8A4-9DD13D5E83DB";
paths = (
{
closed = 1;
nodes = (
"510 0 LINE",
"510 159 LINE",
"583 159 LINE",
"583 302 LINE",
"510 302 LINE",
"510 700 LINE",
"271 700 LINE",
"27 291 LINE",
"27 160 LINE",
"323 159 LINE",
"323 0 LINE"
);
},
{
closed = 1;
nodes = (
"323 476 LINE",
"323 305 LINE",
"222 305 LINE"
);
}
);
width = 627;
},
{
guideLines = (
{
position = "{0, 644}";
},
{
angle = 90;
position = "{375, 0}";
},
{
angle = 90;
position = "{93, 0}";
},
{
position = "{0, 233}";
},
{
position = "{0, 700}";
},
{
angle = 235.24;
position = "{224, 475}";
},
{
angle = 235.24;
position = "{200, 475}";
},
{
angle = 235.24;
position = "{264, 475}";
}
);
layerId = "9DFE6445-7062-4987-A7C3-244173BC9CEA";
paths = (
{
closed = 1;
nodes = (
"424 0 LINE",
"424 180 LINE",
"538 180 LINE",
"538 213 LINE",
"424 213 LINE",
"424 700 LINE",
"380 700 LINE",
"55 233 LINE",
"55 181 LINE",
"390 180 LINE",
"390 0 LINE"
);
},
{
closed = 1;
nodes = (
"391 658 LINE",
"391 213 LINE",
"82 213 LINE"
);
}
);
width = 589;
}
);
leftKerningGroup = four;
rightKerningGroup = four;
unicode = 0034;
},
